<svg xmlns="http://www.w3.org/2000/svg" width="514" height="161" viewBox="0 0 514 161"><path fill="#0BAB47" d="M81.25 96.724c-3.656.913-7.616 1.828-14.014 1.828-12.643 0-27.267-6.093-27.267-23.309 0-15.839 11.579-23.761 27.113-23.761 4.875 0 9.444 1.066 14.014 2.285l-1.066 9.901c-4.11-2.134-8.073-3.198-12.338-3.198-8.987 0-14.775 6.244-14.775 14.772 0 8.988 6.549 14.32 15.842 14.32 4.113 0 8.377-1.067 11.881-2.285l.61 9.447m49.505-.154c-8.076 1.983-14.014 2.134-18.278 2.134-12.646 0-27.267-6.094-27.267-23.306 0-17.061 12.491-23.764 30.008-23.764 3.046 0 9.746.305 14.316 1.983l-1.063 9.9c-3.962-2.285-8.532-2.895-11.578-2.895-10.207 0-18.736 4.112-18.736 14.775 0 8.985 6.549 14.316 15.842 14.316 1.675 0 3.348-.302 4.415-.761v-8.986h-7.461v-8.53h19.648V96.57m51.183-15.994c0 12.492-8.683 17.978-21.325 17.978-12.646 0-21.325-5.637-21.325-17.978v-28.18h12.947v26.2c0 5.942 1.675 11.12 8.378 11.12 6.699 0 8.377-5.026 8.377-11.12v-26.2h12.948v28.18"/><path fill="#0BAB47" d="M197.015 106.319c0 7.007-1.522 13.558-4.874 19.497-16.604 29.856-71.135 32.293-120.489 4.724-49.2-27.572-74.028-74.792-57.425-104.496C30.679-3.81 83.687-3.963 132.735 21.932c2.285 1.221 2.285 1.221.152-.151C81.858-8.533 25.042-7.01 6.153 25.131c-18.887 32.14 7.16 82.864 58.188 113.176s107.844 28.79 126.734-3.352c5.026-8.528 6.854-18.277 5.94-28.636"/><path fill="#6D6E71" d="M211.638 95.657v-8.073c2.741 1.523 4.874 2.437 7.006 2.437 2.285 0 4.113-1.066 4.113-3.807v-.153c0-1.979-.606-3.503-4.265-7.771-5.331-5.938-7.465-8.834-7.465-14.166v-.151c0-7.159 4.57-11.579 10.817-11.579 3.048 0 4.876.46 6.854 1.372v8.072c-2.439-1.368-3.807-1.979-5.94-1.979-2.131 0-3.96 1.371-3.96 3.808v.152c0 2.133.606 2.895 4.266 7.159 6.092 7.009 7.463 9.749 7.463 14.776v.151c0 7.01-4.874 11.579-10.966 11.579-3.049.153-5.638-.608-7.923-1.827m21.63-42.803h16.907v7.463h-9.139v10.968h8.073v7.311h-8.073v11.273h9.444v7.312h-17.212zm20.259 0h16.908v7.463h-9.14v10.968h8.076v7.311h-8.076v11.273h9.444v7.312h-17.212zm33.664 0h7.77V97.18h-7.77zm16.452 7.463h-5.331v-7.463h18.582v7.463h-5.484v37.015h-7.767zm33.207 0h-5.486v-7.463h18.737v7.463h-5.485v37.015h-7.766zm16.449-7.463h7.616v18.431h6.855V52.854h7.616v44.478h-7.616V78.596h-6.855v18.736h-7.616zm25.591 0h7.922c7.92 0 13.708 4.11 13.708 14.166v.608c0 5.791-2.285 9.444-5.18 11.729l5.941 17.974h-8.227l-5.026-15.384h-1.523v15.384h-7.768l.153-44.477zm8.072 21.934c3.353 0 5.791-1.979 5.791-7.159v-.457c0-5.636-2.589-7.006-6.092-7.006h-.156v14.622h.457zm16.452 1.372v-2.285c0-14.625 4.723-21.63 11.728-21.63 7.009 0 11.728 7.006 11.728 21.63v2.285c0 14.623-4.72 21.63-11.728 21.63-7.005.151-11.728-6.854-11.728-21.63m15.69 0v-2.285c0-11.424-1.523-14.625-3.962-14.625-2.286 0-3.961 3.201-3.961 14.625v2.285c0 11.424 1.523 14.623 3.961 14.623 2.438-.001 3.962-3.199 3.962-14.623m10.508 8.225v-31.53h7.616v32.14c0 3.96 1.372 5.637 3.352 5.637s3.352-1.523 3.352-5.637v-32.14h7.616v31.378c0 9.291-4.722 13.558-10.968 13.558-6.245-.001-10.968-4.114-10.968-13.406m24.527-8.53v-1.523c0-14.319 6.092-21.782 14.774-21.782 2.285 0 4.265.457 5.938 1.219v8.072c-1.828-1.066-3.653-1.828-5.637-1.828-4.414 0-7.156 4.418-7.156 14.014v2.134c0 11.577 3.349 14.316 6.551 14.316h.761v-11.27h-3.809v-6.854h10.814v23.611c-2.74 1.219-5.026 1.828-8.072 1.828-7.768-.155-14.164-6.553-14.164-21.937m25.437-23.001h7.768v18.431h6.703V52.854h7.767v44.478h-7.767V78.596h-6.703v18.736h-7.768zm25.741 35.643H514v8.835h-8.683z"/></svg>