<svg width="200" height="200" viewBox="0 0 200 200" xmlns="http://www.w3.org/2000/svg"><title>icon-unsubscribe</title><g fill-rule="evenodd"><path d="M133.333 199.996c-36.758 0-66.666-29.909-66.666-66.667s29.908-66.667 66.666-66.667c36.759 0 66.667 29.909 66.667 66.667s-29.908 66.667-66.667 66.667zm0-125C101.167 74.996 75 101.162 75 133.329s26.167 58.333 58.333 58.333c32.167 0 58.334-26.166 58.334-58.333S165.5 74.996 133.333 74.996z"/><path d="M66.667 137.5h-62.5A4.163 4.163 0 0 1 0 133.333V4.167A4.163 4.163 0 0 1 4.167 0h67.65c1.108 0 2.166.438 2.946 1.22l28.183 28.176a4.165 4.165 0 0 1 1.22 2.946v46.825A4.163 4.163 0 0 1 100 83.333a4.163 4.163 0 0 1-4.167-4.166v-45.1L70.092 8.333H8.333v120.834h58.334a4.163 4.163 0 0 1 4.166 4.166 4.163 4.163 0 0 1-4.166 4.167"/><path d="M100 41.667H66.667A4.163 4.163 0 0 1 62.5 37.5V4.167A4.163 4.163 0 0 1 66.667 0a4.163 4.163 0 0 1 4.166 4.167v29.166H100a4.163 4.163 0 0 1 4.167 4.167A4.163 4.163 0 0 1 100 41.667m33.333 130.12c-1.083 0-2.17-.412-2.958-1.204-.754-.75-1.208-1.833-1.208-2.962 0-1.08.454-2.163 1.208-2.913 1.583-1.587 4.375-1.541 5.917 0a4.2 4.2 0 0 1 1.208 2.913 4.23 4.23 0 0 1-1.208 2.962 4.198 4.198 0 0 1-2.959 1.204m0-16.891a4.166 4.166 0 0 1-4.166-4.167V99.996a4.163 4.163 0 0 1 4.166-4.167 4.163 4.163 0 0 1 4.167 4.167v50.733c0 2.3-1.863 4.167-4.167 4.167"/></g></svg>