<svg id="Layer_1" data-name="Layer 1" xmlns="http://www.w3.org/2000/svg" viewBox="0 0 52.35 25"><defs><style>.cls-1{fill:#253b80}.cls-2{fill:#179bd7}.cls-3{fill:#222d65}</style></defs><title>payment-options</title><path class="cls-1" d="M20 9.45h-2.5a.27.27 0 0 0-.3.3l-1 6.4a.22.22 0 0 0 .2.2h1.2a.27.27 0 0 0 .3-.3l.3-1.7a.32.32 0 0 1 .3-.3h.8a2.53 2.53 0 0 0 2.8-2.4 2 2 0 0 0-.3-1.6 2.16 2.16 0 0 0-1.8-.6zm.3 2.3c-.1.9-.8.9-1.5.9h-.4l.3-1.7a.22.22 0 0 1 .2-.2h.2c.4 0 .9 0 1.1.3a.82.82 0 0 1 .12.7zm7.22 0h-1.2a.22.22 0 0 0-.2.2l-.09.3-.1-.1a1.65 1.65 0 0 0-1.4-.5 2.84 2.84 0 0 0-2.7 2.4 2.14 2.14 0 0 0 .4 1.8 2 2 0 0 0 1.5.6 2 2 0 0 0 1.6-.7l-.1.3a.22.22 0 0 0 .2.2h1.1a.27.27 0 0 0 .3-.3l.6-4.1c.29 0 .19-.1.09-.1zm-1.7 2.3a1.29 1.29 0 0 1-1.3 1.1 1.14 1.14 0 0 1-.8-.3 1.08 1.08 0 0 1-.2-.8 1.29 1.29 0 0 1 1.3-1.1 1.14 1.14 0 0 1 .8.3.78.78 0 0 1 .2.8zm8-2.3h-1.2c-.09 0-.19.1-.3.2l-1.6 2.4L30 12c0-.1-.2-.2-.3-.2h-1.2c-.1 0-.2.1-.2.3l1.3 3.9-1.19 1.7c-.1.1 0 .3.19.3h1.2c.1 0 .2-.1.3-.1l4-5.7c.02-.2-.1-.45-.28-.45z"/><path class="cls-2" d="M37.82 9.45h-2.5a.27.27 0 0 0-.3.3l-1 6.4a.22.22 0 0 0 .2.2h1.3a.22.22 0 0 0 .2-.2l.3-1.8a.32.32 0 0 1 .3-.3h.8a2.53 2.53 0 0 0 2.81-2.4 2 2 0 0 0-.31-1.6 2.44 2.44 0 0 0-1.8-.6zm.2 2.3c-.1.9-.8.9-1.5.9h-.4l.3-1.7a.22.22 0 0 1 .2-.2h.2c.4 0 .9 0 1.1.3a.59.59 0 0 1 .08.7zm7.2 0H44a.22.22 0 0 0-.2.2l-.1.3-.1-.1a1.62 1.62 0 0 0-1.4-.5 2.86 2.86 0 0 0-2.7 2.4 2.14 2.14 0 0 0 .4 1.8 2 2 0 0 0 1.5.6 2 2 0 0 0 1.6-.7l-.1.3a.22.22 0 0 0 .2.2h1.1a.27.27 0 0 0 .3-.3l.6-4.1c.32 0 .22-.1.12-.1zm-1.7 2.3a1.29 1.29 0 0 1-1.3 1.1 1.14 1.14 0 0 1-.8-.3 1.08 1.08 0 0 1-.2-.8 1.29 1.29 0 0 1 1.3-1.1 1.14 1.14 0 0 1 .8.3.78.78 0 0 1 .2.8zm3.1-4.5l-1 6.5a.22.22 0 0 0 .2.2h1a.27.27 0 0 0 .3-.3l1-6.4a.21.21 0 0 0-.19-.2h-1.11c-.1.1-.2.1-.2.2z"/><path class="cls-1" d="M6.92 17.55l.2-1.2h-2.4L6 7.45v-.1h3.5a2.88 2.88 0 0 1 2.3.7 1.61 1.61 0 0 1 .4.7 1.7 1.7 0 0 1 0 1V10l.2.1a1.38 1.38 0 0 1 .4.3.91.91 0 0 1 .3.7v1a4.7 4.7 0 0 1-.4 1.2 2.3 2.3 0 0 1-.7.7 3.61 3.61 0 0 1-.91.4 3.68 3.68 0 0 1-1.09.1h-.28a.79.79 0 0 0-.5.2 2.62 2.62 0 0 0-.3.5v.1l-.3 2.1v.1l-1.7.1z"/><path class="cls-2" d="M12.62 9.75V10c-.4 2.3-2 3.1-3.9 3.1h-1a.66.66 0 0 0-.5.4l-.5 3.2-.1.9a.27.27 0 0 0 .3.3h1.8a.43.43 0 0 0 .4-.4v-.1l.31-2.1v-.1a.42.42 0 0 1 .4-.4h.3a3.18 3.18 0 0 0 3.5-2.7 2 2 0 0 0-.4-2z"/><path class="cls-3" d="M12.12 9.55c-.1 0-.1 0-.2-.1h-.2c-.3 0-.6-.1-.9-.1H7.93c-.1.1-.2.2-.2.3l-.6 3.6v.1a.46.46 0 0 1 .5-.4h1a3.63 3.63 0 0 0 4-3.1v-.2a1.35 1.35 0 0 1-.51-.1z"/><path class="cls-1" d="M7.72 9.75c0-.1.1-.3.2-.3h2.9a2.77 2.77 0 0 1 .9.1h.2c.1 0 .1 0 .2.1h.1a.76.76 0 0 1 .4.2 2.28 2.28 0 0 0-.5-2 3.26 3.26 0 0 0-2.6-.8h-3.4a.66.66 0 0 0-.5.4l-1.4 9a.27.27 0 0 0 .3.3h2.1l.5-3.4z"/></svg>