<svg id="Layer_1" data-name="Layer 1" xmlns="http://www.w3.org/2000/svg" viewBox="0 0 41 25"><defs><style>.cls-1{fill:#f90}.cls-2{fill:#c00}.cls-3{fill:#fcb340}.cls-4{fill:#006}.cls-5{fill:#fff}</style></defs><title>payment-options</title><g id="layer1"><g id="g10305"><path id="path2268" class="cls-1" d="M35.3 12.55a8.8 8.8 0 1 1-17.6 0 8.8 8.8 0 1 1 17.6 0z"/><path id="path1350" class="cls-2" d="M14.5 3.65a8.8 8.8 0 0 0 0 17.6A8.67 8.67 0 0 0 20.4 19l.9-.9h-1.8c-.2-.3-.5-.6-.7-.9h3.1a4.05 4.05 0 0 0 .5-.9h-4.2c-.1-.3-.3-.6-.4-.9h4.9a8.68 8.68 0 0 0 .5-2.8 12.25 12.25 0 0 0-.2-1.9h-5.4l.3-.9h4.9a3 3 0 0 0-.2-1h-4.1a4.05 4.05 0 0 1 .5-.9h3.1a5.5 5.5 0 0 0-.7-.9h-1.7l.9-.9a9 9 0 0 0-6.1-2.4z"/><path id="use9412" class="cls-3" d="M34.4 17.15h.1l.1.1v.2l-.1.1h-.2l-.1-.1v-.2l.1-.1h.1m0 0h-.1a.1.1 0 0 0-.1.1v.2l.1.1h.2a.1.1 0 0 0 .1-.1v-.2l-.1-.1h-.1m-.2.4v-.3h.2v.1h-.1v.2h-.1a.1.1 0 0 0-.1-.1l.1.1m.1-.1h.1c0-.1 0-.1-.1 0"/></g><g id="g16480"><g id="g13802"><path id="path13804" class="cls-4" d="M17.46 15l.1-.8h-.2c-.3 0-.4-.2-.3-.3l.3-1.6h.5l.1-.9h-.5l.1-.6h-1s-.6 3.1-.6 3.5c0 .6.3.8.8.8a3.55 3.55 0 0 0 .7-.1z"/><path id="path13806" class="cls-4" d="M17.76 13.54a1.46 1.46 0 0 0 1.6 1.6 2.65 2.65 0 0 0 1.1-.2l.2-.9a4.17 4.17 0 0 1-1.1.2c-1 0-.8-.8-.8-.8h1.9a7.75 7.75 0 0 0 .1-.9 1.3 1.3 0 0 0-1.4-1.4 2.36 2.36 0 0 0-1.6 2.4zm1.7-1.3c.5 0 .4.6.4.6h-1a.62.62 0 0 1 .6-.6z"/><path id="path13808" class="cls-4" d="M25.36 15l.2-1a2.91 2.91 0 0 1-.8.2c-.7 0-.9-.5-.9-1.1 0-1.1.6-1.7 1.2-1.7a1.67 1.67 0 0 1 .9.3l.2-1a2.19 2.19 0 0 0-.9-.3c-1.5 0-2.3 1-2.3 2.8 0 1.2.6 2 1.7 2a4.08 4.08 0 0 1 .7-.2z"/><path id="path13810" class="cls-4" d="M12.36 11.34a3.3 3.3 0 0 0-1.1.2l-.1.8a2.43 2.43 0 0 1 1-.2c.3 0 .6 0 .6.3v.2h-.4c-.9 0-1.7.3-1.7 1.4a.91.91 0 0 0 .9 1 1 1 0 0 0 .9-.4v.3h.8l.4-2.6c0-.9-1-1-1.3-1zm.1 2.1c0 .2 0 .9-.6.9a.37.37 0 0 1-.4-.4c0-.3.1-.6.8-.6z"/><path id="path13812" class="cls-4" d="M14.46 15.14a1.17 1.17 0 0 0 1.4-1.2c0-1.2-1.1-.9-1.1-1.4 0-.2.2-.3.5-.3h.6l.1-.8a3.14 3.14 0 0 0-.9-.1c-.7 0-1.4.3-1.4 1.2 0 1.1 1.2 1 1.2 1.4s-.3.3-.6.3a3.78 3.78 0 0 1-.8-.1V15a2.77 2.77 0 0 0 1 .14z"/><path id="path13814" class="cls-4" d="M33.16 10.64l-.2 1.2a1.36 1.36 0 0 0-.9-.5c-1 0-1.6 1-1.6 2.2 0 .8.4 1.5 1.2 1.5a1.16 1.16 0 0 0 .9-.4v.3h.9l.7-4.5zm-.4 2.4c0 .5-.2 1.2-.8 1.2-.3 0-.5-.3-.5-.7 0-.7.3-1.2.7-1.2s.6.2.6.66z"/><path id="path13816" class="cls-4" d="M7.26 15.14l.6-3.4.1 3.4h.6l1.2-3.4-.5 3.4h1l.7-4.5h-1.5l-.9 2.7v-2.7h-1.4l-.8 4.5z"/><path id="path13818" class="cls-4" d="M21.76 15.14c.3-1.6.4-2.8 1.2-2.5a7.17 7.17 0 0 1 .5-1.4s0-.1-.3-.1-1 .9-1 .9l.1-.5h-.9l-.6 3.6z"/><g id="use14699"><path id="path13810-2" data-name="path13810" class="cls-4" d="M27.36 11.34a3.3 3.3 0 0 0-1.1.2l-.1.8a2.43 2.43 0 0 1 1-.2c.4 0 .6 0 .6.3v.2h-.4c-.9 0-1.7.3-1.7 1.4a.91.91 0 0 0 .9 1 1 1 0 0 0 .9-.4v.3h.8l.4-2.6c0-.9-1-1-1.3-1zm.2 2.1c0 .2 0 .9-.6.9a.37.37 0 0 1-.4-.4c0-.3.1-.6.8-.6.2.1.1.1.2.1z"/></g><path id="use14701" class="cls-4" d="M29.66 15.14c.2-1.1.4-2.8 1.2-2.5.1-.6 0-.6-.2-.6h-.5l.1-.5h-.9l-.6 3.6z"/></g><g id="g10289"><path id="path4157" class="cls-5" d="M17.7 14.75l.1-.8h-.2c-.3 0-.4-.2-.3-.3l.3-1.6h.5l.1-.9h-.5l.1-.6h-.9s-.6 3.1-.6 3.5c0 .6.3.8.8.8a3.54 3.54 0 0 0 .6-.1z"/><path id="path4155" class="cls-5" d="M18 13.25a1.46 1.46 0 0 0 1.6 1.6 1.92 1.92 0 0 0 1-.2l.2-.9a3.1 3.1 0 0 1-1 .2c-1 0-.8-.8-.8-.8h1.9a7.75 7.75 0 0 0 .1-.9 1.27 1.27 0 0 0-1.3-1.4 2.32 2.32 0 0 0-1.7 2.4zM19.7 12c.5 0 .4.6.4.6h-1a.62.62 0 0 1 .6-.6z"/><path id="path4151" class="cls-5" d="M25.6 14.75l.2-1a2.91 2.91 0 0 1-.8.2c-.7 0-.9-.5-.9-1.1 0-1.1.6-1.7 1.2-1.7a1.67 1.67 0 0 1 .9.3l.2-1a4.17 4.17 0 0 0-1.1-.2c-1.1 0-2.1.9-2.1 2.7 0 1.2.6 1.9 1.7 1.9.2.15.7-.1.7-.1z"/><path id="path4149" class="cls-5" d="M12.6 11.05a3.3 3.3 0 0 0-1.1.2l-.1.8a2.43 2.43 0 0 1 1-.2c.4 0 .6 0 .6.3v.2h-.4c-.8 0-1.7.3-1.7 1.4a.91.91 0 0 0 .9 1 1.26 1.26 0 0 0 1-.4v.4h.8l.4-2.6a1.3 1.3 0 0 0-1.4-1.1zm.2 2.1c0 .2-.1.9-.7.9a.37.37 0 0 1-.4-.4c0-.3.1-.6.8-.6.2.1.2.1.3.1z"/><path id="path4145" class="cls-5" d="M14.7 14.85a1.17 1.17 0 0 0 1.4-1.2c0-1.2-1.1-.9-1.1-1.4 0-.2.2-.3.5-.3h.6l.1-.8a3.14 3.14 0 0 0-.9-.1c-.7 0-1.4.3-1.4 1.2 0 1.1 1.2 1 1.2 1.4s-.3.3-.6.3a3.78 3.78 0 0 1-.8-.1v.9a2.77 2.77 0 0 0 1 .1z"/><path id="path4139" class="cls-5" d="M33.4 10.35l-.2 1.3a1.36 1.36 0 0 0-.9-.5c-.9 0-1.6 1-1.6 2.2 0 .8.4 1.5 1.2 1.5a1.16 1.16 0 0 0 .9-.4v.3h.9l.7-4.5zm-.4 2.4c0 .5-.2 1.2-.8 1.2-.3 0-.5-.3-.5-.7 0-.7.3-1.2.7-1.2s.6.2.6.7z"/><path id="path4133" class="cls-5" d="M7.5 14.85l.6-3.4.1 3.4h.6l1.2-3.4-.5 3.4h1l.7-4.5H9.7l-1 2.7v-2.7H7.3l-.8 4.5z"/><path id="path4131" class="cls-5" d="M22 14.85c.3-1.6.3-2.8 1-2.6a2.3 2.3 0 0 1 .4-1.1h-.2c-.4 0-.7.6-.7.6l.1-.5h-.9l-.6 3.6z"/><g id="use8523"><path id="path4149-2" data-name="path4149" class="cls-5" d="M27.81 11.05a3.3 3.3 0 0 0-1.1.2l-.1.8a2.43 2.43 0 0 1 1-.2c.3 0 .6 0 .6.3v.2h-.4c-.8 0-1.7.3-1.7 1.4a.91.91 0 0 0 .9 1 1.53 1.53 0 0 0 1-.4v.4h.8l.4-2.6a1.3 1.3 0 0 0-1.4-1.1zm.2 2.1c0 .2-.1.9-.7.9a.37.37 0 0 1-.4-.4c0-.3.1-.6.8-.6z"/></g><g id="use8525"><path id="path4131-2" data-name="path4131" class="cls-5" d="M29.89 14.85c.3-1.6.3-2.8 1-2.6a2.3 2.3 0 0 1 .4-1.1h-.2c-.4 0-.7.6-.7.6l.1-.5h-.9l-.6 3.6z"/></g><path id="text9407" class="cls-5" d="M34.4 14.25h.1l.1.1v.2l-.1.1h-.2l-.1-.1v-.2l.1-.1h.1m0 .1h-.1l-.1.1v.2l.1.1h.2l.1-.1v-.2l-.1-.1h-.1m-.2.4v-.3h.2v.1h-.1v.2h-.1a.1.1 0 0 0-.1-.1l.1.1m.1-.2h.1c0-.1 0-.1-.1 0"/></g></g></g></svg>