<svg id="Layer_1" xmlns="http://www.w3.org/2000/svg" viewBox="0 0 83.7 25"><style>.st0{fill:#f90}.st1{fill:#c00}.st2{fill:#fcb340}.st3{fill:#006}.st4{fill:#fff}.st5{fill:#2b3894}.st6{fill:#f79510}</style><g id="layer1"><g id="g10305"><path id="path2268" class="st0" d="M77.4 12.5c0 4.9-4 8.8-8.8 8.8-4.9 0-8.8-4-8.8-8.8 0-4.9 4-8.8 8.8-8.8 4.9-.1 8.8 3.9 8.8 8.8z"/><path id="path1350" class="st1" d="M56.7 3.6c-4.9 0-8.8 4-8.8 8.8 0 4.9 4 8.8 8.8 8.8 2.3 0 4.4-.9 5.9-2.3l.9-.9h-1.8c-.2-.3-.5-.6-.7-.9h3.1c.2-.3.4-.6.5-.9h-4.2c-.1-.3-.3-.6-.4-.9h4.9c.3-.9.5-1.8.5-2.8 0-.6-.1-1.3-.2-1.9H60l.3-.9h4.9c-.2-.4-.3-.7-.5-1h-4.1c.1-.3.3-.6.5-.9h3.1c-.2-.3-.4-.6-.7-.9h-1.7l.9-.9c-1.6-1.5-3.7-2.4-6-2.4z"/><path id="use9412" class="st2" d="M76.6 17.1h.1l.1.1v.2l-.1.1h-.2l-.1-.1v-.2l.1-.1h.1m0 0h-.1s-.1 0-.1.1v.2l.1.1h.2s.1 0 .1-.1v-.2l-.1-.1h-.1m-.2.4v-.3h.2v.1h-.1v.2h-.1s0-.1-.1-.1l.1.1m.1-.1h.1c0-.1 0-.1-.1 0"/></g><g id="g16480"><g id="g13802" transform="translate(-13.744 15.994)"><path id="path13804" class="st3" d="M73.4-1l.1-.8h-.2c-.3 0-.4-.2-.3-.3l.3-1.6h.5l.1-.9h-.5l.1-.6h-1s-.6 3.1-.6 3.5c0 .6.3.8.8.8.4 0 .6-.1.7-.1z"/><path id="path13806" class="st3" d="M73.7-2.5c0 1.3.9 1.6 1.6 1.6.7 0 1.1-.1 1.1-.1l.2-.9s-.6.2-1.1.2c-1 0-.8-.8-.8-.8h1.9s.1-.6.1-.9c0-.6-.3-1.4-1.4-1.4-.9.1-1.6 1.1-1.6 2.3zm1.7-1.3c.5 0 .4.6.4.6h-1c0-.1.1-.6.6-.6z"/><path id="path13808" class="st3" d="M81.3-1l.2-1s-.5.2-.8.2c-.7 0-.9-.5-.9-1.1 0-1.1.6-1.7 1.2-1.7.5 0 .9.3.9.3l.2-1s-.5-.3-.9-.3c-1.5 0-2.3 1-2.3 2.8 0 1.2.6 2 1.7 2 .2-.1.7-.2.7-.2z"/><path id="path13810" class="st3" d="M68.3-4.7c-.6 0-1.1.2-1.1.2l-.2.8s.4-.2 1-.2c.3 0 .6 0 .6.3v.2h-.4c-.9 0-1.7.3-1.7 1.4 0 .8.6 1 .9 1 .7 0 .9-.4.9-.4v.3h.8l.4-2.6c0-.9-.9-1-1.2-1zm.1 2.1c0 .2 0 .9-.6.9-.3 0-.4-.2-.4-.4 0-.3.1-.6.8-.6l.2.1z"/><path id="path13812" class="st3" d="M70.4-.9c.2 0 1.4.1 1.4-1.2 0-1.2-1.1-.9-1.1-1.4 0-.2.2-.3.5-.3h.6l.2-.8s-.3-.1-.9-.1c-.7 0-1.4.3-1.4 1.2 0 1.1 1.2 1 1.2 1.4 0 .3-.3.3-.6.3-.4 0-.8-.1-.8-.1l-.1.9s.2.1 1 .1z"/><path id="path13814" class="st3" d="M89.1-5.4l-.2 1.3s-.4-.5-.9-.5c-1 0-1.6 1-1.6 2.2 0 .8.4 1.5 1.2 1.5.6 0 .9-.4.9-.4v.3h.9l.7-4.5-1 .1zM88.7-3c0 .5-.2 1.2-.8 1.2-.3 0-.5-.3-.5-.7 0-.7.3-1.2.7-1.2.4 0 .6.2.6.7z"/><path id="path13816" class="st3" d="M63.2-.9l.6-3.4.1 3.4h.6l1.2-3.4-.5 3.4h1l.7-4.5h-1.5l-.9 2.7v-2.7H63l-.8 4.5h1z"/><path id="path13818" class="st3" d="M77.7-.9c.3-1.6.4-2.8 1.2-2.5.1-.6.4-1.1.5-1.4 0 0 0-.1-.3-.1-.4 0-1 .9-1 .9l.1-.5h-.9l-.6 3.6h1z"/><g id="use14699" transform="translate(845.3)"><path id="path13810_1_" class="st3" d="M-762-4.7c-.6 0-1.1.2-1.1.2l-.1.8s.4-.2 1-.2c.4 0 .6 0 .6.3v.2h-.4c-.9 0-1.7.3-1.7 1.4 0 .8.6 1 .9 1 .7 0 .9-.4.9-.4v.3h.8l.4-2.6c0-.9-1-1-1.3-1zm.1 2.1c0 .2 0 .9-.6.9-.3 0-.4-.2-.4-.4 0-.3.1-.6.8-.6.3.1.2.1.2.1z"/></g><path id="use14701" class="st3" d="M85.6-.9c.2-1.1.4-2.8 1.2-2.5.1-.6 0-.6-.2-.6h-.5l-.1-.6h-.9L84.5-1h1.1v.1z"/></g><g id="g10289"><path id="path4157" class="st4" d="M59.9 14.7l.1-.8h-.2c-.3 0-.4-.2-.3-.3l.3-1.6h.5l.1-.9h-.5l.1-.6h-1s-.6 3.1-.6 3.5c0 .6.3.8.8.8.4 0 .6-.1.7-.1z"/><path id="path4155" class="st4" d="M60.2 13.2c0 1.3.9 1.6 1.6 1.6.7 0 1-.2 1-.2l.2-.9s-.5.2-1 .2c-1 0-.8-.8-.8-.8h1.9s.1-.6.1-.9c0-.6-.3-1.4-1.3-1.4-1 .2-1.7 1.2-1.7 2.4zm1.7-1.3c.5 0 .4.6.4.6h-1c0-.1.1-.6.6-.6z"/><path id="path4151" class="st4" d="M67.8 14.7l.2-1s-.5.2-.8.2c-.7 0-.9-.5-.9-1.1 0-1.1.6-1.7 1.2-1.7.5 0 .9.3.9.3l.2-1s-.6-.2-1.1-.2c-1.1 0-2.1.9-2.1 2.7 0 1.2.6 1.9 1.7 1.9.2.1.7-.1.7-.1z"/><path id="path4149" class="st4" d="M54.8 11c-.6 0-1.1.2-1.1.2l-.1.8s.4-.2 1-.2c.4 0 .6 0 .6.3v.2h-.4c-.8 0-1.7.3-1.7 1.4 0 .8.6 1 .9 1 .7 0 1-.4 1-.4v.4h.8l.4-2.6c-.2-1-1.1-1.1-1.4-1.1zm.2 2.1c0 .2-.1.9-.7.9-.3 0-.4-.2-.4-.4 0-.3.1-.6.8-.6.2.1.2.1.3.1z"/><path id="path4145" class="st4" d="M56.9 14.8c.2 0 1.4.1 1.4-1.2 0-1.2-1.1-.9-1.1-1.4 0-.2.2-.3.5-.3h.6l.1-.8s-.3-.1-.9-.1c-.7 0-1.4.3-1.4 1.2 0 1.1 1.2 1 1.2 1.4 0 .3-.3.3-.6.3-.4 0-.8-.1-.8-.1l-.1.8c.1.1.3.2 1.1.2z"/><path id="path4139" class="st4" d="M75.6 10.3l-.2 1.3s-.4-.5-.9-.5c-.9 0-1.6 1-1.6 2.2 0 .8.4 1.5 1.2 1.5.6 0 .9-.4.9-.4v.3h.9l.7-4.5-1 .1zm-.4 2.4c0 .5-.2 1.2-.8 1.2-.3 0-.5-.3-.5-.7 0-.7.3-1.2.7-1.2.4 0 .6.2.6.7z"/><path id="path4133" class="st4" d="M49.7 14.8l.6-3.4.1 3.4h.6l1.2-3.4-.5 3.4h1l.7-4.5h-1.5l-1 2.7v-2.7h-1.4l-.8 4.5h1z"/><path id="path4131" class="st4" d="M64.2 14.8c.3-1.6.3-2.8 1-2.6.1-.6.2-.8.4-1.1h-.2c-.4 0-.7.6-.7.6l.1-.5h-.9l-.6 3.6h.9z"/><g id="use8523" transform="translate(847.006)"><path id="path4149_1_" class="st4" d="M-777 11c-.6 0-1.1.2-1.1.2l-.1.8s.4-.2 1-.2c.3 0 .6 0 .6.3v.2h-.4c-.8 0-1.7.3-1.7 1.4 0 .8.6 1 .9 1 .7 0 .9-.4 1-.4v.4h.8l.4-2.6c-.1-1-1.1-1.1-1.4-1.1zm.2 2.1c0 .2-.1.9-.7.9-.3 0-.4-.2-.4-.4 0-.3.1-.6.8-.6l.3.1z"/></g><g id="use8525" transform="translate(442.286)"><path id="path4131_1_" class="st4" d="M-370.2 14.8c.3-1.6.3-2.8 1-2.6.1-.6.2-.8.4-1.1h-.2c-.4 0-.7.6-.7.6l.1-.5h-.9l-.6 3.6h.9z"/></g><path id="text9407" class="st4" d="M76.6 14.2h.1l.1.1v.2l-.1.1h-.2l-.1-.1v-.2l.1-.1h.1m0 .1h-.1l-.1.1v.2l.1.1h.2l.1-.1v-.2l-.1-.1h-.1m-.2.4v-.3h.2v.1h-.1v.2h-.1s0-.1-.1-.1l.1.1m.1-.2h.1c0-.1 0-.1-.1 0"/></g></g></g><g id="g10" transform="matrix(1.25 0 0 -1.25 -74.191 149.042)"><g id="g4163" transform="translate(24.349 24.079) scale(.63849)"><g id="g12" transform="translate(143.448 67.609)"><path id="path14" class="st5" d="M-71.3 59.5l2.2 13.4h3.4l-2.2-13.4h-3.4"/></g><g id="g16" transform="translate(224.353 133.66)"><path id="path18" class="st5" d="M-136.3 6.5c-.7.2-1.7.5-3.1.5-3.4 0-5.8-1.8-5.8-4.4 0-1.9 1.7-3 3-3.6 1.3-.7 1.8-1.1 1.8-1.7 0-.9-1.1-1.3-2.1-1.3-1.4 0-2.1.2-3.2.7l-.4.2-.5-3c.8-.4 2.3-.7 3.8-.7 3.6 0 6 1.8 6 4.6 0 1.5-.9 2.7-2.9 3.6-1.2.6-1.9 1-1.9 1.7 0 .6.6 1.1 2 1.1 1.1 0 1.9-.2 2.6-.5l.3-.2.4 3"/></g><g id="g20" transform="translate(247.634 91.616)"><path id="path22" class="st5" d="M-155 40.2c.3.8 1.4 3.7 1.4 3.7s.3.8.5 1.3l.2-1.2s.7-3.2.8-3.9c-.5.1-2.2.1-2.9.1zm4.3 8.6h-2.7c-.8 0-1.4-.2-1.8-1.1l-5.1-12.2h3.6s.6 1.6.7 2h4.4l.4-2h3.2l-2.7 13.3"/></g><g id="g24" transform="translate(128.78 135.265)"><path id="path26" class="st5" d="M-59.5 5.2l-3.4-9.1-.4 1.9c-.6 2.1-2.6 4.4-4.8 5.6L-65-8.2h3.6L-56 5.1l-3.5.1"/></g><g id="g28" transform="translate(95.781 135.311)"><path id="path30" class="st6" d="M-33.1 5.1h-5.6v-.3c4.3-1.1 7.2-3.8 8.4-7L-31.5 4c-.2.8-.8 1.1-1.6 1.1"/></g><g id="g32" transform="translate(288.329 72.034)"><path id="path34" class="st5" d="M-187.6 55.9h.2c.1 0 .1.1.1.1 0 .1-.1.1-.2.1h-.1v-.2zm-.2.4h.3c.1 0 .3 0 .3-.2 0-.1 0-.1-.1-.2.1 0 .1-.1.1-.2v-.2h-.1v.2c0 .1 0 .1-.2.1h-.1v-.3h-.1l-.1.8zm.3-1.1c.3 0 .6.3.6.6 0 .4-.3.6-.6.6s-.6-.3-.6-.6.3-.6.6-.6zm0 1.4c.4 0 .8-.3.8-.8s-.3-.8-.8-.8c-.4 0-.8.3-.8.8s.4.8.8.8"/></g></g></g></svg>