<svg id="Layer_1" data-name="Layer 1" xmlns="http://www.w3.org/2000/svg" viewBox="0 0 41 25"><defs><style>.cls-1{fill:#2b3894}.cls-2{fill:#f79510}</style></defs><title>payment-options</title><g id="g10"><g id="g4163"><g id="g12"><path id="path14" class="cls-1" d="M14.75 17.81l1.75-10.7h2.72l-1.76 10.7h-2.71"/></g><g id="g16"><path id="path18" class="cls-1" d="M27.44 7.39A8.27 8.27 0 0 0 25 7c-2.72 0-4.63 1.44-4.63 3.51 0 1.52 1.36 2.4 2.39 2.88s1.44.88 1.44 1.35c0 .72-.88 1-1.68 1a5.24 5.24 0 0 1-2.55-.56l-.32-.16-.4 2.4a7.61 7.61 0 0 0 3 .56C25.13 18 27 16.57 27 14.34c0-1.2-.72-2.16-2.31-2.88-1-.48-1.52-.8-1.52-1.35s.48-.88 1.6-.88a5 5 0 0 1 2.07.4l.24.16.32-2.4"/></g><g id="g20"><path id="path22" class="cls-1" d="M31.1 14.05l1.12-3s.23-.64.39-1l.16 1s.56 2.55.64 3.11a20.79 20.79 0 0 0-2.31-.11zm3.43-6.86h-2.15a1.36 1.36 0 0 0-1.44.88l-4.07 9.73h2.87s.48-1.27.56-1.59h3.51l.32 1.59h2.55L34.53 7.19"/></g><g id="g24"><path id="path26" class="cls-1" d="M12.46 7.15l-2.71 7.26-.32-1.51A8.29 8.29 0 0 0 5.6 8.43l2.47 9.41h2.87l4.31-10.61-2.79-.08"/></g><g id="g28"><path id="path30" class="cls-2" d="M7.19 7.19H2.72v.24A9.35 9.35 0 0 1 9.43 13l-1-4.95a1.16 1.16 0 0 0-1.28-.88"/></g><g id="g32"><path id="path34" class="cls-1" d="M37.56 17.15h.16a.08.08 0 0 0 .08-.08c0-.08-.08-.08-.16-.08h-.08v.16zm-.16-.32h.24c.08 0 .24 0 .24.16s0 .08-.08.16c.08 0 .08.08.08.16v.16h-.08v-.16c0-.08 0-.08-.16-.08h-.08v.24h-.08l-.08-.64zm.24.88a.52.52 0 0 0 .48-.48.46.46 0 0 0-.48-.48.48.48 0 0 0 0 1zm0-1.12a.63.63 0 0 1 .64.64.59.59 0 0 1-.64.64.64.64 0 0 1 0-1.28"/></g></g></g></svg>