<svg xmlns="http://www.w3.org/2000/svg" width="50" height="50" viewBox="0 0 50 50"><path style="text-indent:0;text-align:start;line-height:normal;text-transform:none;block-progression:tb" d="M12.594 13.094a2 2 0 0 0-1.188.594L1.5 23.593.094 25 1.5 26.406l9.906 9.907A2 2 0 1 0 14.25 33.5L7.75 27h34.5l-6.469 6.5a2 2 0 1 0 2.813 2.813l9.906-9.907L49.906 25 48.5 23.594l-9.906-9.907a2 2 0 0 0-1.625-.593A2 2 0 0 0 35.78 16.5l6.47 6.5H7.75l6.5-6.5a2 2 0 0 0-1.656-3.406z" color="#6d6e71" overflow="visible"/></svg>