<svg width="63" height="62" viewBox="0 0 63 62" xmlns="http://www.w3.org/2000/svg"><title>Group</title><g fill="none" fill-rule="evenodd"><path d="M31.1 61.997c17.119 0 30.996-13.877 30.996-30.995C62.096 13.884 48.219.007 31.1.007 13.982.007.105 13.884.105 31.002c0 17.118 13.877 30.995 30.995 30.995" fill="#00B7E2"/><path d="M14.942 30.912l5.29-5.302a.947.947 0 0 0-1.349-1.332l-5.285 5.282-5.308-5.29a.948.948 0 1 0-1.333 1.347l5.29 5.288L6.96 36.2a.948.948 0 1 0 1.33 1.349l5.3-5.293 5.28 5.274a.945.945 0 0 0 1.634-.651.94.94 0 0 0-.275-.668l-5.287-5.3m31.446-.001c0 .95.772 1.723 1.723 1.723.949 0 1.721-.773 1.721-1.722 0-.95-.772-1.723-1.721-1.723-.951 0-1.723.773-1.723 1.723" fill="#FFF"/><path d="M41.16 30.912c0 3.831 3.117 6.948 6.95 6.948 3.831 0 6.95-3.117 6.95-6.948 0-3.832-3.119-6.95-6.95-6.95a6.958 6.958 0 0 0-6.95 6.95zm1.961 0a4.993 4.993 0 0 1 4.988-4.988 4.993 4.993 0 0 1 4.987 4.988 4.993 4.993 0 0 1-4.987 4.986 4.993 4.993 0 0 1-4.988-4.986zm-2.455-6.832h-.291c-.876 0-1.72.276-2.425.819a.95.95 0 0 0-.926-.745.937.937 0 0 0-.94.94l.004 11.705c.001.52.426.944.947.944a.95.95 0 0 0 .948-.946V29.6c0-2.399.22-3.367 2.275-3.624.19-.024.396-.02.397-.02.562-.02.962-.406.962-.928a.95.95 0 0 0-.95-.948m-6.504 5.509c-.408-1.934-1.467-3.522-3.08-4.542-2.355-1.496-5.467-1.414-7.743.205-1.857 1.32-2.928 3.481-2.928 5.707 0 .558.067 1.121.207 1.676a7.005 7.005 0 0 0 5.898 5.191 6.613 6.613 0 0 0 2.5-.166 6.846 6.846 0 0 0 2.078-.886c.672-.433 1.234-1.002 1.778-1.685l.033-.036c.377-.469.307-1.134-.108-1.452-.35-.268-.937-.377-1.4.215-.099.141-.21.287-.331.432-.368.407-.824.8-1.37 1.105a4.99 4.99 0 0 1-2.33.589c-2.757-.031-4.232-1.955-4.756-3.329a4.983 4.983 0 0 1-.212-.796 1.793 1.793 0 0 1-.013-.146l9.892-.002c1.357-.028 2.087-.986 1.885-2.08zm-11.695.178l.003-.08a5.021 5.021 0 0 1 9.751.08h-9.754z" fill="#FFF"/></g></svg>