<svg width="433" height="433" viewBox="0 0 433 433" xmlns="http://www.w3.org/2000/svg" xmlns:xlink="http://www.w3.org/1999/xlink"><defs><path id="a" d="M0 .825h405.744v432.174H0z"/><path id="c" d="M.414.002h215.78v321.6H.414z"/></defs><g fill="none" fill-rule="evenodd"><mask id="b" fill="#fff"><use xlink:href="#a"/></mask><path d="M405.744 321.634c-57.96 104.383-189.665 142.09-294.22 84.228C7.005 348.04-30.76 216.506 27.156 112.122 65.747 42.625 136.853.823 216.452.823v47.45c-93.306 0-168.96 75.49-168.96 168.643 0 93.157 75.654 168.643 168.96 168.643 63.619 0 118.965-35.063 147.795-86.906l41.497 22.982z" fill="#2D6F49" fill-rule="nonzero" mask="url(#b)"/><g transform="translate(216 1)"><mask id="d" fill="#fff"><use xlink:href="#c"/></mask><path d="M189.125 321.601l-41.37-23.038c13.409-24.268 21.055-52.19 21.055-81.938 0-93.383-75.381-169.058-168.396-169.058V-.001c119.157 0 215.781 96.962 215.781 216.589 0 39.85-7.835 70.195-27.07 105.013z" fill="#00AB47" fill-rule="nonzero" mask="url(#d)"/></g><path d="M150.34 282V173.51l-13.68 4.37v-23.37l20.52-6.46h16.53V282h-23.37zm30.02 18.62l41.61-164.54h18.81l-41.61 164.54h-18.81zm82.65-17.29c-8.17 0-14.25-1.33-19.76-3.61v-22.04c5.51 2.28 9.69 3.61 16.72 3.61 9.31 0 16.53-7.03 16.53-18.81v-1.52c0-13.87-9.12-19.57-23.18-20.52v-15.2l21.66-33.63h-30.02V149h53.58v20.71l-22.42 34.39c13.49 4.56 23.18 14.06 23.18 35.15v2.09c0 26.03-15.39 41.99-36.29 41.99z" fill="#00AB47" fill-rule="nonzero"/></g></svg>