<svg id="Layer_1" xmlns="http://www.w3.org/2000/svg" viewBox="0 0 24 24"><title>arrow-2-left</title><style>.st0{fill:#fff}</style><path class="st0" d="M23.163 6.252l-.027-.638A1.79 1.79 0 0 0 21.522 3.9l-.637-.065c-2.15-.22-4.015-1.033-5.202-1.676-1.208-.653-1.975-1.27-2.049-1.33L13.175.44c-.638-.56-1.679-.569-2.333-.015l-.469.395c-.083.068-.842.68-2.056 1.338-1.188.643-3.056 1.455-5.204 1.676l-.635.065A1.809 1.809 0 0 0 .862 5.613l-.027.633c0 .03-.138 3.11 1.024 6.767.683 2.145 1.673 4.074 2.946 5.735a16.644 16.644 0 0 0 6.098 4.922l.33.16a1.803 1.803 0 0 0 1.544-.007l.316-.151c2.44-1.166 4.492-2.823 6.1-4.924 1.273-1.66 2.263-3.59 2.946-5.735 1.16-3.652 1.03-6.64 1.024-6.76zm-6.275 3.749l-5.411 5.412a1 1 0 0 1-1.414 0L7.11 12.461a1 1 0 1 1 1.414-1.414l2.245 2.245 4.704-4.705A1 1 0 1 1 16.888 10z"/></svg>