<svg width="60" height="60" viewBox="0 0 60 60" xmlns="http://www.w3.org/2000/svg"><title>No/2</title><g fill="none" fill-rule="evenodd"><circle fill="#FFF" cx="30" cy="30" r="30"/><path d="M30 58c15.464 0 28-12.536 28-28S45.464 2 30 2 2 14.536 2 30s12.536 28 28 28zm0 2C13.431 60 0 46.569 0 30 0 13.431 13.431 0 30 0c16.569 0 30 13.431 30 30 0 16.569-13.431 30-30 30zm-9-18.565v-3.338l8.294-7.056c3.304-2.822 4.508-4.336 4.508-6.504 0-2.375-1.686-3.751-3.888-3.751-2.203 0-3.717 1.204-5.541 3.613l-3.029-2.374C23.65 18.824 25.921 17 30.224 17c4.714 0 7.95 2.89 7.95 7.193v.069c0 3.785-1.997 5.85-6.264 9.326l-4.956 4.13h11.46v3.717H21z" fill="#0BAB47"/></g></svg>