<svg width="60" height="60" viewBox="0 0 60 60" xmlns="http://www.w3.org/2000/svg"><title>No/3</title><g fill="none" fill-rule="evenodd"><circle fill="#FFF" cx="30" cy="30" r="30"/><path d="M30 58c15.464 0 28-12.536 28-28S45.464 2 30 2 2 14.536 2 30s12.536 28 28 28zm0 2C13.431 60 0 46.569 0 30 0 13.431 13.431 0 30 0c16.569 0 30 13.431 30 30 0 16.569-13.431 30-30 30zm.153-18.684c-4.167 0-7.138-1.741-9.153-4.2l2.937-2.733c1.708 2.015 3.62 3.142 6.284 3.142 2.357 0 4.132-1.434 4.132-3.62v-.068c0-2.357-2.151-3.688-5.498-3.688h-1.947l-.683-2.63 6.455-6.865H22.332V17h15.812v3.142l-6.66 6.83c3.62.444 7.036 2.289 7.036 6.694v.069c0 4.405-3.381 7.581-8.367 7.581z" fill="#0BAB47"/></g></svg>