<svg width="85" height="85" viewBox="0 0 85 85" xmlns="http://www.w3.org/2000/svg"><title>Icon/Large/Assistance</title><path d="M2.013 78h62.014c.049-1.708-.053-3.117-.054-3.134-.02-.224-.553-5.634-6.968-8.671l-.001-.001c-2.5-1.188-14.677-6.813-14.8-6.87a1.003 1.003 0 0 1-.58-.909V52.63a1 1 0 0 1 .314-.727c.008-.007 1.143-1.12 1.544-2.881a143.31 143.31 0 0 1 1-4.055 1 1 0 0 1 1.879-.15.82.82 0 0 0 .088.146c.043-.045.096-.108.16-.195.914-1.952 2.956-7.987 2.077-9.422-.043-.071-.077-.127-.271-.132-.062 0-.256.04-.366.072a1.001 1.001 0 0 1-1.238-1.238c.003-.007.234-.822.328-1.762.215-2.064.327-4.235.356-6.836.06-5.346-5.126-9.754-6.947-10.876-3.635-2.23-7.42-1.985-7.457-1.986-.11.003-3.836.027-7.661 2.022-1.411.738-2.272 1.589-2.49 2.457a1.98 1.98 0 0 0 .242 1.5c.22.324.237.75.036 1.086a.982.982 0 0 1-.965.485c-.005-.001-1.405-.125-2.442.852-.92.867-1.347 2.36-1.27 4.435l.038 1.167c.052 1.719.112 3.666.322 5.69.098.944.327 1.763.329 1.772a.999.999 0 0 1-1.238 1.233 1.984 1.984 0 0 0-.375-.073c-.184.005-.218.06-.26.13-.887 1.447 1.187 7.552 2.064 9.402.065.097.12.166.167.214.04-.057.075-.116.089-.147a.999.999 0 0 1 1.879.147c.005.019.523 1.98 1.002 4.054.405 1.763 1.544 2.883 1.556 2.894.194.19.307.452.307.722v5.786a1 1 0 0 1-.58.91c-.123.056-12.307 5.681-14.806 6.869-6.417 3.043-6.95 8.448-6.97 8.678A33.787 33.787 0 0 0 2.014 78zm62.968 2H1.059a1 1 0 0 1-.997-.936 34.75 34.75 0 0 1 .013-4.349c.02-.277.604-6.77 8.105-10.329 2.19-1.04 11.776-5.47 14.244-6.61v-4.755c-.486-.565-1.411-1.816-1.812-3.559a138.41 138.41 0 0 0-.595-2.465c-.077.02-.157.033-.241.04-.518.046-1.278-.112-2.017-1.174a1.898 1.898 0 0 1-.118-.211c-.063-.13-3.761-8.46-1.987-11.356a2.207 2.207 0 0 1 1.37-1.01c-.042-.248-.08-.517-.11-.798-.217-2.097-.278-4.083-.331-5.835l-.037-1.157c-.1-2.696.548-4.711 1.925-5.99a5.137 5.137 0 0 1 2.482-1.255 3.888 3.888 0 0 1 .037-1.614c.347-1.484 1.53-2.762 3.517-3.801 4.236-2.21 8.262-2.247 8.51-2.247h.006c.103-.01 4.393-.283 8.569 2.281 2.223 1.368 7.972 6.298 7.9 12.603-.03 2.663-.146 4.892-.366 7.014-.028.281-.066.551-.108.8a2.208 2.208 0 0 1 1.37 1.011c1.772 2.893-1.927 11.224-1.966 11.306-.06.133-.077.157-.112.214-.77 1.109-1.54 1.278-2.05 1.222a1.902 1.902 0 0 1-.237-.04c-.175.699-.39 1.571-.595 2.468-.395 1.741-1.32 2.989-1.807 3.554v4.755c2.467 1.14 12.046 5.569 14.24 6.61 7.498 3.551 8.082 10.05 8.103 10.326.007.087.154 2.108.014 4.35a.999.999 0 0 1-.997.937zm3.5-73c-8.006 0-14.52 6.524-14.52 14.542 0 3.606 1.335 7.068 3.758 9.747a1 1 0 0 1 .216.96l-1.406 4.679 3.87-2.622a.996.996 0 0 1 1.045-.045 14.514 14.514 0 0 0 7.037 1.828c8.008-.004 14.522-6.53 14.522-14.547C83.003 13.524 76.489 7 68.48 7zM54.8 40.304a.996.996 0 0 1-.586-.19 1.004 1.004 0 0 1-.374-1.085l.52-1.83 1.504-4.995a16.504 16.504 0 0 1-3.9-10.662C51.964 12.42 59.373 5 68.48 5S85 12.42 85 21.542c0 9.12-7.411 16.543-16.52 16.547-2.586 0-5.151-.617-7.46-1.79l-5.661 3.833a.99.99 0 0 1-.56.172zm8.39-17.248a1.716 1.716 0 0 1 0-3.432 1.716 1.716 0 0 1 0 3.432zm6.005 0a1.716 1.716 0 0 1 0-3.432 1.716 1.716 0 0 1 0 3.432zm6.005 0c-.947 0-1.713-.77-1.713-1.716a1.715 1.715 0 1 1 3.427 0c0 .947-.768 1.716-1.714 1.716z" fill="#0BAB47" fill-rule="evenodd"/></svg>