<svg width="24" height="24" viewBox="0 0 24 24" xmlns="http://www.w3.org/2000/svg"><title>Icon/Small/Australia</title><path d="M12 22c5.514 0 10-4.486 10-10S17.514 2 12 2 2 6.486 2 12s4.486 10 10 10zm0-22c6.617 0 12 5.383 12 12s-5.383 12-12 12S0 18.617 0 12 5.383 0 12 0zm3.679 14.812c.618-1.155 1.002-3.139-.319-6.26-.906 1.042-1.942 1.924-2.851 1.924-.96 0-3.331-.994-4.828-1.669-.75 1-1.983 3.344.057 6.2 1.003-.393 2.788-.988 4.37-.988.723 0 1.355.124 1.878.368a.994.994 0 0 1 .265.178c.258.236.784.567 1.093.567.045 0 .163 0 .335-.32zm-.044-9.096c.362.022.687.22.85.525 2.508 4.682 1.939 7.708 1.02 9.424-.64 1.194-1.63 1.372-2.161 1.372-1.074 0-2.007-.675-2.388-.994-.223-.08-.506-.12-.847-.12-1.517 0-3.582.808-4.248 1.12-.146.067-.302.1-.457.1-.302 0-.598-.125-.798-.357-3.68-4.294-1.56-8.314.076-9.84a1.074 1.074 0 0 1 1.179-.179c1.755.818 3.957 1.709 4.589 1.797.426-.199 1.48-1.32 2.272-2.426.202-.282.535-.441.913-.422zm-.778 12.57a1.143 1.143 0 1 1 0 2.285 1.143 1.143 0 0 1 0-2.285z" fill="#FFF" fill-rule="evenodd"/></svg>