<svg width="85" height="85" viewBox="0 0 85 85" xmlns="http://www.w3.org/2000/svg"><title>Icon/Large/Clipboard</title><path d="M68.877 74.099V20.04a6.082 6.082 0 0 0-6.074-6.074h-4.86v.848a2.968 2.968 0 0 1-2.965 2.965H29.896a2.967 2.967 0 0 1-2.963-2.966v-.848h-4.859A6.082 6.082 0 0 0 16 20.041v54.058a6.082 6.082 0 0 0 6.074 6.075h40.729a6.082 6.082 0 0 0 6.074-6.076zm-39.944-61.91v2.625c0 .531.431.966.963.966h25.082a.967.967 0 0 0 .965-.966v-2.625a.967.967 0 0 0-.965-.966h-5.624a.998.998 0 0 1-.961-.724C47.631 7.85 45.182 6 42.437 6a6.208 6.208 0 0 0-5.946 4.497 1 1 0 0 1-.962.727h-5.633a.965.965 0 0 0-.963.966zm33.87-.223c4.452 0 8.074 3.622 8.074 8.075v54.058c0 4.453-3.622 8.075-8.074 8.075H22.074c-4.452 0-8.074-3.623-8.074-8.076V20.041c0-4.454 3.622-8.075 8.074-8.075h4.867a2.969 2.969 0 0 1 2.955-2.742h4.916c1.21-3.11 4.243-5.225 7.625-5.225 3.376 0 6.413 2.115 7.632 5.224h4.909a2.97 2.97 0 0 1 2.957 2.742h4.868zM34.338 26.13a1.002 1.002 0 0 1 1.547 1.27l-5.865 7.148a1.005 1.005 0 0 1-.774.365h-.016a1.001 1.001 0 0 1-.778-.391l-3.18-4.152a1 1 0 0 1 1.588-1.217l2.414 3.15 5.064-6.173zm24.472 3.21a1 1 0 1 1 0 2H39.52a1 1 0 1 1 0-2h19.29zM29.23 47.177a.996.996 0 0 1-.777-.392l-3.18-4.151a1 1 0 1 1 1.587-1.217l2.413 3.15 5.064-6.173a1 1 0 0 1 1.547 1.267l-5.864 7.15a1 1 0 0 1-.773.366h-.017zm10.29-3.575a1 1 0 1 1 0-2h11.721a1 1 0 1 1 0 2h-11.72zM28.453 59.048l-3.18-4.152a1 1 0 0 1 1.588-1.217l2.413 3.15 5.065-6.173a1 1 0 0 1 1.547 1.268l-5.866 7.149a.997.997 0 0 1-.773.367h-.017a1.002 1.002 0 0 1-.777-.392zm26.624-5.184a1 1 0 1 1 0 2H39.52a1 1 0 1 1 0-2h15.556zm-20.738 9.054a1.004 1.004 0 0 1 1.408-.14c.427.352.488.982.139 1.41l-5.865 7.148a1.005 1.005 0 0 1-.774.365h-.016a1.001 1.001 0 0 1-.778-.391l-3.18-4.152a1 1 0 0 1 1.588-1.217l2.414 3.15 5.064-6.173zm16.903 3.209a1 1 0 1 1 0 2h-11.72a1 1 0 1 1 0-2h11.72z" fill="#0BAB47" fill-rule="evenodd"/></svg>