<svg width="24" height="24" viewBox="0 0 24 24" xmlns="http://www.w3.org/2000/svg"><title>Icon/Small/Cruise</title><path d="M14.435 21.148l1.938.765a4.29 4.29 0 0 0 1.492.285l2.214-8.413-7.17-1.237v8.183a7.631 7.631 0 0 1 1.526.417zm-5.641 0a7.647 7.647 0 0 1 2.319-.506v-8.094l-7.17 1.237 2.191 8.334a4.18 4.18 0 0 0 .722-.206l1.938-.765zM5.777 6.992v4.654l6.082-1.048c.028-.006.057.002.087 0 .022-.002.041-.014.064-.014s.043.012.065.014c.03.002.06-.006.089 0l6.079 1.048V6.992a.688.688 0 0 0-.686-.687H6.464a.688.688 0 0 0-.687.687zm5.547-2.483h1.372v-.713h-1.372v.713zm11.78 16.242a.898.898 0 0 1-.002 1.795H23.1c-.359 0-1.538.482-2.242.769l-.666.268a5.927 5.927 0 0 1-1.291.339.868.868 0 0 1-.345.078c-.055 0-.109-.01-.163-.02-.147.01-.293.02-.44.02a6.117 6.117 0 0 1-2.24-.417l-1.937-.765a5.97 5.97 0 0 0-4.324 0l-1.937.765a6.246 6.246 0 0 1-4.478 0l-.293-.119c-1.035-.424-1.662-.652-1.865-.678H.877A.88.88 0 0 1 0 21.891c0-.496.421-.898.917-.899h.002c.4 0 1.009.198 2.505.811l.272.11c.183.072.378.117.571.163l-2.31-8.781a.896.896 0 0 1 .715-1.113l1.31-.226V6.992a2.485 2.485 0 0 1 2.482-2.483h3.064V3.427c0-.787.64-1.427 1.426-1.427h2.113c.786 0 1.425.64 1.425 1.427v1.082h3.065a2.485 2.485 0 0 1 2.481 2.483v4.964l1.31.226a.895.895 0 0 1 .716 1.113l-2.237 8.499.352-.142c1.335-.544 2.26-.901 2.921-.901h.004zM17.28 8.696c0 .528-.41.956-.917.956H7.637c-.506 0-.917-.428-.917-.956s.411-.957.917-.957h8.726c.507 0 .917.429.917.957z" fill="#FFF" fill-rule="evenodd"/></svg>