<svg width="24" height="24" viewBox="0 0 24 24" xmlns="http://www.w3.org/2000/svg"><title>Icon/Small/Globe</title><path d="M10.195 21.743v-2.46a9.982 9.982 0 0 1-5.213-2.184l-1.117 1a1.113 1.113 0 0 1-1.581-.094 1.132 1.132 0 0 1 .092-1.592l1.865-1.671a1.116 1.116 0 0 1 1.538.044 7.808 7.808 0 0 0 11.09 0c3.042-3.065 3.057-8.045.044-11.13a1.136 1.136 0 0 1-.046-1.64L18.54.33a1.115 1.115 0 0 1 1.586 0 1.134 1.134 0 0 1 0 1.596l-.925.93c3.165 3.986 2.915 9.834-.748 13.526a10 10 0 0 1-6.017 2.903v2.457h1.892c.62 0 1.121.505 1.121 1.128 0 .624-.5 1.129-1.12 1.129H8.305c-.619 0-1.12-.505-1.12-1.129 0-.623.501-1.128 1.12-1.128h1.89zm1.12-15.804c-1.855 0-3.36 1.517-3.36 3.387s1.505 3.386 3.36 3.386c1.857 0 3.362-1.516 3.362-3.386S13.172 5.94 11.315 5.94zm0 9.032c-3.088 0-5.6-2.533-5.6-5.645 0-3.112 2.512-5.645 5.6-5.645 3.09 0 5.603 2.533 5.603 5.645 0 3.112-2.514 5.645-5.603 5.645z" fill="#0BAB47" fill-rule="evenodd"/></svg>