<svg width="24" height="24" viewBox="0 0 24 24" xmlns="http://www.w3.org/2000/svg"><title>Icon/Small/Location-A</title><path d="M20.923 19.817c.093-.12.115-.302.062-.514l-2.016-8.119c-.157-.627-.461-1.055-.62-1.181h-.65c-1.122 2.707-3.133 5.25-3.44 5.629a.993.993 0 0 1-.771.368.995.995 0 0 1-.771-.368c-.307-.38-2.319-2.922-3.442-5.63H5.538c-.634 0-1.353.563-1.507 1.182l-2.016 8.12c-.053.212-.031.394.061.513.094.12.264.186.48.186h17.889c.215 0 .385-.067.478-.186zM13.488 4c-1.645 0-2.981 1.264-2.981 2.819 0 1.92 1.752 4.801 2.981 6.526 1.228-1.725 2.981-4.607 2.981-6.527 0-1.553-1.337-2.817-2.981-2.817zm9.425 14.817c.202.81.048 1.623-.423 2.23-.47.607-1.216.956-2.045.956H2.556c-.83 0-1.575-.35-2.046-.956-.471-.607-.625-1.42-.423-2.23l2.016-8.119c.377-1.511 1.885-2.696 3.435-2.696h3.111a6.184 6.184 0 0 1-.13-1.184c0-2.656 2.229-4.817 4.969-4.817 2.739 0 4.969 2.16 4.969 4.818 0 .381-.052.78-.131 1.183h.131c1.214 0 2.116 1.397 2.44 2.696l2.016 8.12zM14.481 7c0 .552-.444 1-.994 1a.997.997 0 0 1-.993-1c0-.552.444-1 .993-1 .55 0 .994.448.994 1z" fill="#0bab47" fill-rule="evenodd"/></svg>