<svg width="24" height="24" viewBox="0 0 24 24" xmlns="http://www.w3.org/2000/svg"><title>Icon/Small/Phone</title><path d="M11 18h11v-1H11v1zm-3.834 4H3.834a1.83 1.83 0 0 1-1.624-1h6.58a1.83 1.83 0 0 1-1.624 1zM3.834 7h3.332A1.83 1.83 0 0 1 8.79 8H2.21c.306-.591.915-1 1.624-1zM5 2h14v9h-8V8.835A3.839 3.839 0 0 0 7.166 5H5V2zm6 11h8.5l1.5 2H11v-2zm-9 6h7v-9H2v9zm21.993-3.034a.995.995 0 0 0-.068-.34c-.009-.022-.023-.038-.032-.059-.029-.057-.054-.115-.093-.167L21 11.667V1a1 1 0 0 0-1-1H4a1 1 0 0 0-1 1v4c0 .033.016.06.019.092A3.836 3.836 0 0 0 0 8.835v11.33A3.839 3.839 0 0 0 3.834 24h3.332A3.839 3.839 0 0 0 11 20.165V20h12a1 1 0 0 0 1-1v-3c0-.012-.006-.022-.007-.034z" fill="#FFF" fill-rule="evenodd"/></svg>