<svg width="24" height="24" viewBox="0 0 24 24" xmlns="http://www.w3.org/2000/svg"><title>Icon/Small/Snowflake</title><path d="M22.699 12.762l-4.964 1.288L14.066 12l3.669-2.049 4.964 1.287c.09.024.18.035.269.035.455 0 .873-.295.997-.742a.999.999 0 0 0-.73-1.225l-2.969-.769 2.095-1.171A.983.983 0 0 0 22.74 6a1.052 1.052 0 0 0-1.411-.366l-2.095 1.17.795-2.872c.148-.533-.18-1.081-.73-1.224-.55-.143-1.119.173-1.267.707l-1.33 4.804-3.668 2.049V6.17l3.634-3.517a.976.976 0 0 0 0-1.414 1.057 1.057 0 0 0-1.461 0l-2.173 2.103V1c0-.552-.463-1-1.034-1s-1.033.448-1.033 1v2.34L8.794 1.239a1.057 1.057 0 0 0-1.461 0 .976.976 0 0 0 0 1.414l3.633 3.515v4.099L7.3 8.219 5.97 3.415c-.148-.534-.713-.851-1.266-.707-.55.143-.879.691-.73 1.224l.794 2.872-2.095-1.17A1.05 1.05 0 0 0 1.261 6a.983.983 0 0 0 .378 1.366l2.095 1.171-2.968.769a.999.999 0 0 0-.73 1.225c.123.447.54.742.996.742.09 0 .18-.011.269-.035l4.964-1.287L9.933 12l-3.668 2.05-4.964-1.288c-.549-.142-1.118.174-1.266.707a.999.999 0 0 0 .73 1.225l2.969.769-2.095 1.171A.983.983 0 0 0 1.26 18c.19.321.538.5.896.5.175 0 .353-.043.515-.134l2.095-1.17-.795 2.872c-.148.533.18 1.081.73 1.224.09.024.18.035.27.035a1.03 1.03 0 0 0 .997-.742l1.33-4.803 3.667-2.049v4.099l-3.633 3.515a.977.977 0 0 0 0 1.415c.404.39 1.057.39 1.461 0l2.172-2.102V23c0 .552.462 1 1.033 1 .57 0 1.034-.448 1.034-1v-2.342l2.173 2.104c.202.195.466.292.73.292.265 0 .53-.097.731-.292a.977.977 0 0 0 0-1.415l-3.634-3.517v-4.098l3.668 2.05 1.33 4.803c.124.447.542.742.997.742.09 0 .18-.011.27-.035.55-.143.878-.691.73-1.224l-.795-2.872 2.095 1.17c.162.091.34.134.515.134.358 0 .705-.179.896-.5a.983.983 0 0 0-.378-1.366l-2.095-1.171 2.968-.769a.999.999 0 0 0 .73-1.225c-.146-.533-.712-.85-1.265-.707" fill="#0BAB47" fill-rule="evenodd"/></svg>