<svg width="85" height="85" viewBox="0 0 85 85" xmlns="http://www.w3.org/2000/svg"><title>Icon/Large/Tick</title><path d="M73.737 51.237c.404-1.52 1.604-2.848 2.765-4.13C77.73 45.75 79 44.344 79 43c0-1.346-1.27-2.75-2.499-4.109-1.16-1.283-2.36-2.61-2.765-4.132-.424-1.583-.043-3.376.324-5.109.39-1.83.756-3.56.123-4.654-.648-1.12-2.427-1.696-4.148-2.252-1.672-.54-3.4-1.099-4.54-2.239-1.14-1.14-1.698-2.869-2.238-4.539-.556-1.72-1.13-3.5-2.254-4.15-1.094-.634-2.825-.267-4.655.122-1.733.368-3.526.748-5.11.324-1.52-.404-2.847-1.603-4.129-2.763C45.751 8.27 44.345 7 43 7c-1.346 0-2.75 1.27-4.11 2.5-1.282 1.16-2.609 2.358-4.13 2.763-1.586.421-3.377.043-5.109-.325-1.83-.389-3.56-.756-4.654-.123-1.12.65-1.696 2.428-2.252 4.15-.54 1.67-1.1 3.4-2.24 4.54-1.14 1.14-2.868 1.698-4.539 2.238-1.72.556-3.5 1.131-4.149 2.253-.634 1.094-.267 2.823.122 4.654.367 1.733.748 3.526.323 5.111-.403 1.52-1.603 2.847-2.763 4.13C8.27 40.251 7 41.654 7 43.001c0 1.343 1.27 2.748 2.498 4.106 1.161 1.283 2.361 2.61 2.765 4.132.424 1.583.043 3.376-.324 5.11-.389 1.83-.756 3.56-.123 4.654.65 1.12 2.428 1.695 4.15 2.252 1.67.54 3.4 1.098 4.54 2.24 1.14 1.14 1.697 2.867 2.237 4.538.556 1.721 1.131 3.501 2.254 4.15 1.093.63 2.823.265 4.654-.123 1.19-.253 2.408-.51 3.567-.51.53 0 1.047.053 1.543.186 1.52.404 2.847 1.604 4.13 2.764C40.248 77.73 41.653 79 43 79c1.344 0 2.75-1.27 4.108-2.5 1.282-1.16 2.61-2.36 4.13-2.765 1.585-.422 3.377-.043 5.11.325 1.83.388 3.56.753 4.654.123 1.12-.648 1.695-2.427 2.252-4.148.54-1.672 1.1-3.4 2.24-4.54 1.14-1.14 2.867-1.699 4.538-2.239 1.722-.556 3.501-1.13 4.15-2.253.63-1.092.264-2.822-.124-4.653-.367-1.734-.747-3.527-.322-5.113zm1.933.516v.002c-.302 1.123.028 2.677.346 4.181.45 2.12.913 4.31-.1 6.068-1.035 1.788-3.187 2.483-5.268 3.155-1.445.467-2.94.95-3.739 1.75-.8.8-1.284 2.295-1.752 3.742-.673 2.08-1.368 4.23-3.152 5.263-1.758 1.016-3.952.553-6.072.102-1.503-.319-3.056-.649-4.179-.348-1.054.28-2.198 1.315-3.303 2.315-1.64 1.483-3.335 3.017-5.45 3.017-2.118 0-3.813-1.534-5.452-3.017-1.106-1-2.25-2.035-3.302-2.314-1.125-.304-2.679.028-4.18.347-2.12.451-4.313.916-6.072-.102-1.788-1.033-2.483-3.186-3.155-5.266-.467-1.446-.95-2.94-1.749-3.74-.8-.8-2.295-1.283-3.742-1.75-2.08-.673-4.23-1.368-5.263-3.153-1.018-1.759-.553-3.952-.104-6.072.32-1.503.65-3.056.35-4.178-.282-1.056-1.317-2.2-2.318-3.306C6.534 46.81 5 45.115 5 43c0-2.116 1.533-3.81 3.015-5.45 1-1.107 2.035-2.25 2.315-3.304.301-1.124-.029-2.678-.348-4.18-.449-2.12-.914-4.313.104-6.072 1.033-1.787 3.184-2.483 5.265-3.154 1.446-.467 2.941-.95 3.74-1.749.8-.8 1.284-2.296 1.751-3.744.673-2.079 1.37-4.229 3.153-5.262 1.757-1.018 3.951-.555 6.071-.103 1.502.318 3.056.647 4.18.35 1.053-.282 2.197-1.316 3.303-2.317C39.19 6.533 40.883 5 43 5c2.116 0 3.811 1.533 5.451 3.015 1.105 1.001 2.25 2.035 3.302 2.315 1.124.303 2.677-.03 4.18-.348 2.12-.452 4.311-.918 6.072.103 1.788 1.033 2.482 3.185 3.155 5.265.467 1.447.95 2.941 1.75 3.741.8.8 2.294 1.283 3.74 1.75 2.08.672 4.231 1.368 5.264 3.153 1.017 1.76.552 3.951.103 6.071-.319 1.503-.648 3.057-.348 4.18.28 1.054 1.315 2.198 2.315 3.304C79.466 39.19 81 40.884 81 43c0 2.115-1.534 3.81-3.015 5.45-1 1.105-2.036 2.25-2.315 3.303zm-36.644 3.078l19.778-19.778-3.883-3.885-15.188 15.188a.996.996 0 0 1-1.414 0l-7.24-7.241L27.195 43l11.831 11.83zm16.602-25.784l5.297 5.299a.999.999 0 0 1 0 1.414L39.733 56.952a.997.997 0 0 1-1.414 0L25.074 43.707a.999.999 0 0 1 0-1.414l5.298-5.3a1.03 1.03 0 0 1 1.414 0l7.24 7.242 15.188-15.188a.996.996 0 0 1 1.414 0z" fill="#0BAB47" fill-rule="evenodd"/></svg>