<?xml version="1.0" standalone="no"?>
<!DOCTYPE svg PUBLIC "-//W3C//DTD SVG 1.1//EN" "http://www.w3.org/Graphics/SVG/1.1/DTD/svg11.dtd" >
<svg xmlns="http://www.w3.org/2000/svg">
<metadata>Generated by IcoMoon</metadata>
<defs>
<font id="CGU-icon-font" horiz-adv-x="1024">
<font-face units-per-em="1024" ascent="1024" descent="0" />
<missing-glyph horiz-adv-x="1024" />
<glyph unicode="&#x20;" horiz-adv-x="512" d="" />
<glyph unicode="&#xe600;" glyph-name="user-profile" d="M1022.080 50.688c-6.912 64.427-57.515 427.307-307.157 457.259 56.747 54.613 92.331 131.413 92.331 216.533 0 165.163-133.248 299.52-297.003 299.52s-297.003-134.357-297.003-299.563c0-85.035 35.499-161.792 92.16-216.32-254.677-35.627-303.104-447.104-305.067-465.408-1.323-12.16-0.256-42.709 42.325-42.709 12.16 0 292.011 0 938.581 0 23.68 0 42.752 0.085 42.752 39.211 0 4.395-0.683 7.467-1.92 11.477zM298.496 724.437c0 117.76 95.019 213.547 211.755 213.547s211.755-95.787 211.755-213.547c0-117.76-95.019-213.547-211.755-213.547s-211.755 95.829-211.755 213.547zM92.757 85.333c19.84 85.333 83.328 341.333 248.32 341.333h340.992c173.568 0 232.32-256 249.685-341.333h-838.997z" />
<glyph unicode="&#xe601;" glyph-name="tasks" d="M256 896h512c23.595 0 42.667 19.115 42.667 42.667s-19.072 42.667-42.667 42.667h-512c-23.595 0-42.667-19.115-42.667-42.667s19.072-42.667 42.667-42.667zM256 725.333h426.667c23.595 0 42.667 19.115 42.667 42.667s-19.072 42.667-42.667 42.667h-426.667c-23.595 0-42.667-19.115-42.667-42.667s19.072-42.667 42.667-42.667zM256 554.667h141.269c31.147 34.731 68.437 63.787 110.251 85.333h-251.52c-23.595 0-42.667-19.115-42.667-42.667s19.072-42.667 42.667-42.667zM256 384h52.565c6.827 29.952 17.237 58.496 30.635 85.333h-83.2c-23.595 0-42.667-19.072-42.667-42.667s19.072-42.667 42.667-42.667zM256 213.333h52.565c-6.229 27.52-9.856 55.979-9.856 85.333h-42.709c-23.595 0-42.667-19.072-42.667-42.667s19.072-42.667 42.667-42.667zM256 128c-23.595 0-42.667-19.072-42.667-42.667s19.072-42.667 42.667-42.667h141.312c-22.997 25.6-42.581 54.229-58.069 85.333h-83.243zM682.709 597.376c-164.651 0-298.667-133.973-298.667-298.667s134.016-298.667 298.667-298.667 298.667 133.973 298.667 298.667-134.016 298.667-298.667 298.667zM682.709 85.376c-117.632 0-213.333 95.701-213.333 213.333s95.701 213.333 213.333 213.333 213.333-95.701 213.333-213.333-95.701-213.333-213.333-213.333zM725.376 213.376c0-23.564-19.103-42.667-42.667-42.667s-42.667 19.103-42.667 42.667c0 23.564 19.103 42.667 42.667 42.667s42.667-19.103 42.667-42.667zM128.043 938.709c0-23.564-19.103-42.667-42.667-42.667s-42.667 19.103-42.667 42.667c0 23.564 19.103 42.667 42.667 42.667s42.667-19.103 42.667-42.667zM128.043 768.043c0-23.564-19.103-42.667-42.667-42.667s-42.667 19.103-42.667 42.667c0 23.564 19.103 42.667 42.667 42.667s42.667-19.103 42.667-42.667zM128.043 597.376c0-23.564-19.103-42.667-42.667-42.667s-42.667 19.103-42.667 42.667c0 23.564 19.103 42.667 42.667 42.667s42.667-19.103 42.667-42.667zM128.043 426.709c0-23.564-19.103-42.667-42.667-42.667s-42.667 19.103-42.667 42.667c0 23.564 19.103 42.667 42.667 42.667s42.667-19.103 42.667-42.667zM128.043 256.043c0-23.564-19.103-42.667-42.667-42.667s-42.667 19.103-42.667 42.667c0 23.564 19.103 42.667 42.667 42.667s42.667-19.103 42.667-42.667zM128.043 85.376c0-23.564-19.103-42.667-42.667-42.667s-42.667 19.103-42.667 42.667c0 23.564 19.103 42.667 42.667 42.667s42.667-19.103 42.667-42.667zM682.667 298.667c23.595 0 42.667 19.072 42.667 42.667v42.667c0 23.595-19.072 42.667-42.667 42.667s-42.667-19.072-42.667-42.667v-42.667c0-23.595 19.072-42.667 42.667-42.667z" />
<glyph unicode="&#xe602;" glyph-name="star-favorite-full" d="M1021.824 636.331c-5.077 15.147-18.219 26.197-34.005 28.629l-301.781 46.165-135.381 288.341c-7.040 14.976-22.059 24.533-38.613 24.533s-31.573-9.557-38.613-24.533l-135.339-288.341-301.824-46.165c-15.829-2.432-28.928-13.44-34.005-28.629s-1.237-31.915 9.899-43.349l219.605-225.067-51.925-318.379c-2.645-16.128 4.224-32.384 17.536-41.771 13.355-9.429 31.019-10.368 45.227-2.475l269.397 148.907 269.397-148.907c6.485-3.541 13.611-5.291 20.693-5.291 8.619 0 17.237 2.645 24.576 7.808 13.312 9.387 20.181 25.643 17.536 41.771l-51.925 318.379 219.605 225.067c11.221 11.435 15.019 28.16 9.941 43.307z" />
<glyph unicode="&#xe603;" glyph-name="star-favorite-empty" d="M1021.824 636.331c-5.077 15.147-18.219 26.197-34.005 28.629l-301.781 46.165-135.381 288.341c-7.040 14.976-22.059 24.533-38.613 24.533s-31.573-9.557-38.613-24.533l-135.339-288.341-301.824-46.165c-15.829-2.432-28.928-13.44-34.005-28.629s-1.237-31.915 9.899-43.349l219.605-225.067-51.925-318.379c-2.645-16.128 4.224-32.384 17.536-41.771 13.355-9.429 31.019-10.368 45.227-2.475l269.397 148.907 269.397-148.907c6.485-3.541 13.611-5.291 20.693-5.291 8.619 0 17.237 2.645 24.576 7.808 13.312 9.387 20.181 25.643 17.536 41.771l-51.925 318.379 219.605 225.067c11.221 11.435 15.019 28.16 9.941 43.307zM716.16 412.075c-9.472-9.685-13.739-23.296-11.563-36.651l41.259-252.928-213.163 117.845c-6.4 3.584-13.483 5.333-20.608 5.333s-14.208-1.749-20.608-5.333l-213.163-117.845 41.259 252.928c2.176 13.355-2.133 27.008-11.563 36.651l-176.683 181.077 242.261 37.035c14.037 2.133 26.112 11.179 32.171 24.021l106.368 226.645 106.411-226.645c6.059-12.885 18.133-21.888 32.171-24.021l242.219-37.035-176.768-181.077z" />
<glyph unicode="&#xe604;" glyph-name="social-youtube" d="M505.984 619.477c5.291 0 9.472 1.408 12.544 4.352 3.115 2.901 4.693 6.997 4.693 12.075v103.68c0 4.181-1.579 7.509-4.736 10.069s-7.339 3.84-12.501 3.84c-4.693 0-8.576-1.237-11.563-3.84-2.901-2.603-4.437-5.931-4.437-10.069v-103.68c0-5.248 1.408-9.259 4.181-12.075 2.731-3.029 6.699-4.352 11.819-4.352zM592.341 401.408c-5.376 0-10.667-1.323-15.957-4.096-5.163-2.731-10.112-6.827-14.805-11.989v75.435h-34.901v-234.24h34.901v13.269c4.48-5.333 9.515-9.173 14.805-11.648 5.248-2.603 11.264-3.755 18.048-3.755 10.197 0 18.091 3.157 23.467 9.771 5.461 6.571 8.107 15.915 8.107 28.075v95.915c0 14.165-2.816 24.917-8.619 32.341-5.76 7.253-14.080 10.923-25.045 10.923zM590.421 267.008c0-5.589-0.981-9.515-2.944-11.904-2.005-2.517-5.077-3.755-9.344-3.755-2.901 0-5.675 0.683-8.32 1.92-2.645 1.152-5.419 3.328-8.192 6.101v107.648c2.389 2.432 4.693 4.181 7.125 5.333 2.432 1.067 4.864 1.664 7.339 1.664 4.608 0 8.235-1.493 10.752-4.48 2.475-2.987 3.627-7.424 3.627-13.312v-89.216zM267.477 426.667h40.235v-200.149h38.912v200.149h40.277v34.091h-119.424zM466.176 268.075c-3.243-3.755-6.784-6.827-10.709-9.344-3.883-2.432-7.125-3.584-9.643-3.584-3.2 0-5.589 0.853-7.083 2.731-1.365 1.835-2.133 4.736-2.133 8.832v132.565h-34.56v-144.512c0-10.325 2.048-17.92 6.059-23.083 4.096-5.248 10.027-7.765 18.091-7.765 6.443 0 13.184 1.749 20.053 5.504 6.912 3.669 13.525 9.003 19.925 16v-18.987h34.56v172.843h-34.56v-131.2zM512 1024c-282.752 0-512-229.248-512-512 0-282.837 229.248-512 512-512 282.795 0 512 229.163 512 512 0 282.752-229.205 512-512 512zM594.389 781.653h38.827v-145.92c0-4.48 0.896-7.765 2.517-9.771 1.579-2.048 4.267-3.072 7.893-3.072 2.816 0 6.485 1.323 10.88 4.011 4.352 2.731 8.32 6.101 11.947 10.24v144.512h38.912v-190.336h-38.912v21.077c-7.125-7.765-14.592-13.739-22.357-17.749s-15.232-6.187-22.528-6.187c-9.045 0-15.744 2.901-20.352 8.661-4.523 5.589-6.827 14.080-6.827 25.429v159.104zM450.005 738.133c0 14.763 5.248 26.496 15.659 35.157 10.453 8.747 24.576 13.099 42.24 13.099 16.085 0 29.269-4.565 39.595-13.739 10.197-9.173 15.317-21.163 15.317-35.584v-98.347c0-16.341-4.992-29.013-15.061-38.315-10.112-9.259-23.979-13.909-41.685-13.909-16.981 0-30.635 4.821-40.832 14.421-10.155 9.6-15.275 22.4-15.275 38.571v98.645zM344.064 849.323l28.416-103.168h2.731l27.136 103.168h44.459l-50.944-150.997v-107.008h-43.733v102.229l-52.139 155.733h44.075zM810.667 256c0-47.104-38.229-85.333-85.333-85.333h-426.667c-47.104 0-85.333 38.229-85.333 85.333v170.667c0 47.104 38.229 85.333 85.333 85.333h426.667c47.104 0 85.333-38.229 85.333-85.333v-170.667zM696.576 403.584c-15.445 0-27.989-4.651-37.803-14.080s-14.677-21.76-14.677-36.651v-77.568c0-16.683 4.48-29.739 13.312-39.168 8.875-9.6 21.077-14.251 36.523-14.251 17.195 0 30.165 4.437 38.741 13.312 8.747 9.003 13.056 22.315 13.056 40.064v8.832h-35.541v-7.851c0-10.155-1.195-16.768-3.413-19.755-2.304-2.987-6.272-4.48-12.032-4.48-5.504 0-9.429 1.749-11.691 5.248-2.261 3.584-3.371 9.899-3.371 18.987v32.512h66.091v44.117c0 16.427-4.267 28.928-12.757 37.675-8.448 8.704-20.608 13.056-36.437 13.056zM710.229 335.659h-30.549v17.408c0 7.253 1.152 12.501 3.584 15.488 2.432 3.243 6.315 4.821 11.819 4.821 5.248 0 9.173-1.579 11.52-4.821 2.389-2.987 3.627-8.235 3.627-15.488v-17.408z" />
<glyph unicode="&#xe605;" glyph-name="social-twitter" d="M512 1024c-282.795 0-512-229.248-512-512s229.205-512 512-512 512 229.248 512 512c0 282.752-229.205 512-512 512zM749.525 623.232c0.256-5.248 0.341-10.539 0.341-15.829 0-161.92-123.221-348.715-348.715-348.715-69.163 0-133.589 20.352-187.819 55.040 9.557-1.152 19.285-1.707 29.227-1.707 57.515 0 110.336 19.627 152.192 52.437-53.632 1.067-98.859 36.437-114.389 85.163 7.424-1.451 15.104-2.261 22.997-2.261 11.136 0 9.941 1.579 20.224 4.309-56.064 11.392-110.251 60.885-110.251 120.192 0 0.555 0 1.109 0 1.579 42.667-9.131 47.403-14.677 67.499-15.317-32.896 21.973-48.555 59.52-48.555 101.973 0 22.485 9.088 43.563 19.584 61.653 60.544-74.112 152.32-122.923 254.080-128.043-2.005 8.96-2.347 18.219-2.347 27.947 0 67.584 55.211 122.539 122.965 122.539 35.072 0 67.243-14.891 89.515-38.656 27.989 5.504 54.357 15.659 78.037 29.696-9.216-28.587-28.544-52.608-53.888-67.797 24.747 3.029 48.341 9.6 70.4 19.371-16.384-24.704-37.163-46.293-61.099-63.573z" />
<glyph unicode="&#xe606;" glyph-name="social-share" d="M1011.499 584.875l-341.333 341.333c-12.203 12.203-30.549 15.829-46.507 9.259-15.957-6.613-26.325-22.187-26.325-39.424v-127.744c-136.491-4.565-597.333-63.019-597.333-640.256 0-19.371 13.013-36.309 31.701-41.216 3.669-0.981 7.339-1.451 10.965-1.451 15.061 0 29.355 7.979 37.035 21.504 127.104 222.464 414.763 238.037 517.632 236.501v-130.005c0-17.237 10.368-32.811 26.325-39.424 15.915-6.613 34.261-2.944 46.507 9.259l341.333 341.333c16.683 16.683 16.683 43.648 0 60.331zM682.667 316.373v67.669c0 21.931-16.64 40.277-38.4 42.453-0.939 0.085-23.637 2.347-59.947 2.347-103.637 0-330.752-18.475-488.363-165.504 64.811 387.2 408.405 419.968 521.216 419.968 12.032 0 19.157-0.427 19.925-0.469 11.691-0.853 23.424 3.328 32.043 11.392s13.568 19.371 13.568 31.147v67.669l238.336-238.336-238.379-238.336z" />
<glyph unicode="&#xe607;" glyph-name="social-linkedin" d="M542.677 549.632v1.067c-0.171-0.384-0.469-0.768-0.683-1.067h0.683zM512 1024c-282.795 0-512-229.248-512-512 0-282.837 229.205-512 512-512 282.752 0 512 229.163 512 512 0 282.752-229.248 512-512 512zM372.267 267.349h-109.824v330.069h109.781v-330.069zM317.355 642.56h-0.725c-36.779 0-60.629 25.387-60.629 57.045 0 32.384 24.576 57.045 62.080 57.045 37.547 0 60.672-24.704 61.355-57.045 0-31.659-23.808-57.045-62.080-57.045zM768 267.349h-109.739v176.597c0 44.416-15.872 74.709-55.637 74.709-30.293 0-48.384-20.48-56.277-40.192-2.901-7.083-3.669-16.811-3.669-26.752v-184.32h-109.696c0 0 1.408 299.179 0 330.112h109.696v-46.763c14.677 22.571 40.704 54.485 98.944 54.485 72.192-0.043 126.379-47.147 126.379-148.608v-189.269z" />
<glyph unicode="&#xe608;" glyph-name="social-google-plus" d="M421.077 758.955c-11.819 8.448-25.301 13.056-40.576 13.483-20.309-0.427-37.035-8.619-50.475-24.576-11.221-16.597-16.725-35.072-16.256-55.637 0-27.093 7.936-55.211 23.68-84.608 7.68-13.653 17.493-25.216 29.696-34.731 11.947-9.557 25.856-14.293 41.472-14.293 19.584 0.768 35.968 7.893 48.981 21.333 6.4 9.472 10.496 19.243 12.245 29.227 1.152 10.069 1.664 18.475 1.664 25.301 0 29.483-7.509 59.307-22.656 89.344-6.997 14.421-16.299 26.069-27.776 35.157zM416.043 438.656c-3.84 0.597-13.568 0-29.269-1.451-15.445-2.133-31.232-5.717-47.317-10.496-3.84-1.451-9.259-3.797-16.043-6.699-6.955-3.157-13.952-7.595-21.035-13.397-6.912-6.144-12.757-13.696-17.408-22.741-5.589-9.472-8.235-20.992-8.235-34.389 0-26.283 11.819-47.915 35.669-65.067 22.443-16.939 53.333-25.771 92.629-26.24 35.115 0.512 61.952 8.192 80.64 23.339 18.005 14.891 27.051 34.133 27.051 57.472 0 18.944-6.229 35.584-18.645 49.664-13.056 13.397-33.493 29.952-61.269 49.408-4.779 0.341-10.368 0.597-16.768 0.597zM512 1024c-282.795 0-512-229.248-512-512s229.205-512 512-512 512 229.248 512 512c0 282.752-229.205 512-512 512zM499.627 756.309c5.589-5.845 11.093-12.459 16.597-21.035 5.077-8.021 9.685-17.195 13.653-28.245 3.243-10.88 4.907-23.509 4.907-38.144-0.512-26.752-6.315-48.213-17.664-64.299-5.589-7.765-11.435-14.848-17.749-21.547-6.827-6.485-14.165-13.184-21.931-20.053-4.48-4.608-8.576-9.813-12.373-15.659-4.48-6.101-6.613-13.184-6.613-21.163 0-7.851 2.261-14.251 6.741-19.456 3.925-4.821 7.68-9.088 11.349-12.757l25.344-20.821c15.744-12.843 29.483-27.136 41.387-42.752 11.221-15.872 17.024-36.565 17.408-62.165 0-36.267-15.915-68.437-47.957-96.469-32.981-29.056-80.768-43.947-143.189-44.971-52.309 0.469-91.307 11.648-117.163 33.536-26.069 20.437-39.040 44.843-39.040 73.344 0 13.824 4.224 29.269 12.715 46.336 8.149 16.939 22.997 31.957 44.587 44.885 24.235 13.781 49.579 23.125 76.16 27.691 26.325 3.883 48.213 6.101 65.579 6.485-5.291 7.168-10.155 14.763-14.251 22.827-4.992 7.851-7.424 17.323-7.424 28.288 0 6.656 0.939 12.203 2.731 16.597 1.749 4.651 3.157 8.96 4.651 12.843-8.491-0.896-16.597-1.493-24.021-1.493-39.808 0.597-70.016 13.141-90.88 37.632-21.76 22.997-32.64 49.621-32.64 80.128 0 105.216 109.312 150.144 197.547 154.667 32.597 1.707 65.109 0.128 97.749 0.128 4.309 0 26.581-3.285 30.123 0l-46.080-42.667h-45.995c4.651 0 9.899-6.144 15.744-11.691zM810.667 512h-85.333v-85.333h-42.667v85.333h-85.333v42.667h85.333v85.333h42.667v-85.333h85.333v-42.667z" />
<glyph unicode="&#xe609;" glyph-name="social-facebook" d="M1024 511.488c0 282.496-229.205 512.512-512 512.512-282.752 0-512-230.016-512-512.512 0-282.539 229.248-511.488 512-511.488 14.421 0 42.667 0.981 42.667 2.176 0 21.461 0 168.491 0 339.157h-85.333v128h85.333v87.211c0 62.763 40.021 160.811 171.093 160.811l84.907-0.469v-119.552h-94.165c-20.523 0-33.835-18.859-33.835-48.853v-79.147h126.421l-25.003-128h-101.419v-311.595c213.333 70.272 341.333 259.115 341.333 481.749z" />
<glyph unicode="&#xe60a;" glyph-name="shopping-trolley" d="M972.331 751.573c-8.064 10.368-20.48 16.427-33.621 16.427h-606.72l-34.56 138.368c-3.499 14.165-14.037 25.557-27.904 30.165l-128.043 42.667c-22.485 7.509-46.507-4.693-53.973-27.051-7.424-22.357 4.651-46.507 27.008-53.931l105.813-35.243 36.651-146.901c0.171-0.768 0.384-1.493 0.555-2.219l85.12-340.181c4.736-18.987 21.803-32.341 41.387-32.341h469.333c19.584 0 36.608 13.312 41.387 32.341l85.333 341.333c3.2 12.715 0.341 26.24-7.765 36.565zM884.053 682.667l-21.333-85.333h-478.72c-3.157 0-5.931-1.152-8.875-1.792l-21.803 87.125h530.731zM417.323 426.667l-21.333 85.333h445.397l-21.333-85.333h-402.731zM426.709 298.709c-70.571 0-128-57.429-128-128s57.429-128 128-128 128 57.429 128 128-57.429 128-128 128zM426.709 128.043c-23.552 0-42.667 19.115-42.667 42.667s19.115 42.667 42.667 42.667 42.667-19.115 42.667-42.667-19.115-42.667-42.667-42.667zM810.709 298.709c-70.571 0-128-57.429-128-128s57.429-128 128-128 128 57.429 128 128-57.429 128-128 128zM810.709 128.043c-23.552 0-42.667 19.115-42.667 42.667s19.115 42.667 42.667 42.667 42.667-19.115 42.667-42.667-19.115-42.667-42.667-42.667z" />
<glyph unicode="&#xe60b;" glyph-name="shopping-recipt" d="M554.667 551.083v88.917h85.333c23.595 0 42.667 19.115 42.667 42.667s-19.072 42.667-42.667 42.667h-85.333v42.667c0 23.552-19.072 42.667-42.667 42.667s-42.667-19.115-42.667-42.667v-46.293c-84.053-14.165-127.957-69.419-127.957-124.373s43.904-110.208 127.957-124.331v-89.003h-85.333c-23.595 0-42.667-19.072-42.667-42.667s19.072-42.667 42.667-42.667h85.333v-42.667c0-23.595 19.072-42.667 42.667-42.667s42.667 19.072 42.667 42.667v46.293c84.096 14.123 128.043 69.461 128.043 124.373 0 54.997-43.947 110.293-128.043 124.416zM426.709 597.333c0 14.421 14.933 29.355 42.624 37.12v-74.24c-27.691 7.765-42.624 22.699-42.624 37.12zM554.667 389.504v74.368c27.733-7.808 42.709-22.699 42.709-37.205 0-14.464-14.976-29.397-42.709-37.163zM920.96 1015.979c-11.179 8.064-25.515 10.155-38.443 5.888l-114.517-38.187-114.475 38.187c-8.747 2.901-18.261 2.901-27.008 0l-114.517-38.187-114.475 38.187c-8.747 2.901-18.261 2.901-27.008 0l-114.517-38.187-114.517 38.187c-13.056 4.267-27.264 2.176-38.443-5.888-11.136-8.021-17.707-20.907-17.707-34.603v-938.667c0-13.696 6.571-26.581 17.707-34.645 11.179-8.021 25.387-10.155 38.443-5.845l114.517 38.187 114.56-38.187c8.747-2.901 18.261-2.901 27.008 0l114.517 38.187 114.517-38.187c8.747-2.901 18.261-2.901 27.008 0l114.475 38.187 114.517-38.187c4.437-1.493 8.96-2.219 13.483-2.219 8.832 0 17.579 2.731 24.96 8.021 11.136 8.021 17.707 20.907 17.707 34.645v938.667c-0.085 13.739-6.656 26.624-17.792 34.645zM853.333 101.931l-71.851 23.936c-8.747 2.901-18.261 2.901-27.008 0l-114.475-38.187-114.517 38.187c-8.747 2.901-18.261 2.901-27.008 0l-114.517-38.187-114.56 38.187c-4.395 1.493-8.96 2.219-13.483 2.219s-9.131-0.725-13.483-2.219l-71.765-23.936v820.267l71.851-23.979c8.747-2.901 18.261-2.901 27.008 0l114.56 38.187 114.517-38.187c8.747-2.901 18.261-2.901 27.008 0l114.517 38.187 114.475-38.187c8.747-2.901 18.261-2.901 27.008 0l71.723 23.979v-820.267z" />
<glyph unicode="&#xe60c;" glyph-name="shopping-credit-card" d="M896 896h-768c-70.571 0-128-57.429-128-128v-512c0-70.571 57.429-128 128-128h768c70.571 0 128 57.429 128 128v512c0 70.571-57.429 128-128 128zM128 810.667h768c23.552 0 42.667-19.157 42.667-42.667v-42.667h-853.333v42.667c0 23.509 19.115 42.667 42.667 42.667zM896 213.333h-768c-23.552 0-42.667 19.157-42.667 42.667v341.333h853.333v-341.333c0-23.509-19.115-42.667-42.667-42.667zM853.376 341.376c0-23.564-19.103-42.667-42.667-42.667s-42.667 19.103-42.667 42.667c0 23.564 19.103 42.667 42.667 42.667s42.667-19.103 42.667-42.667zM725.376 341.376c0-23.564-19.103-42.667-42.667-42.667s-42.667 19.103-42.667 42.667c0 23.564 19.103 42.667 42.667 42.667s42.667-19.103 42.667-42.667zM469.333 384h-256c-23.595 0-42.667-19.072-42.667-42.667s19.072-42.667 42.667-42.667h256c23.595 0 42.667 19.072 42.667 42.667s-19.072 42.667-42.667 42.667zM554.667 512h-341.333c-23.595 0-42.667-19.115-42.667-42.667 0-23.595 19.072-42.667 42.667-42.667h341.333c23.595 0 42.667 19.072 42.667 42.667 0 23.552-19.072 42.667-42.667 42.667z" />
<glyph unicode="&#xe60d;" glyph-name="shopping-cart" d="M1014.357 581.717c-8.107 9.899-20.181 15.616-32.981 15.616h-226.432l-117.632 313.685c-8.277 22.101-32.896 33.109-54.955 24.96-22.059-8.277-33.195-32.896-24.96-54.955l106.411-283.733h-303.573l106.411 283.733c8.235 22.059-2.901 46.635-24.96 54.955-21.973 8.192-46.635-2.859-54.955-24.96l-117.589-313.685h-226.432c-12.8 0-24.875-5.717-32.981-15.616-8.064-9.856-11.349-22.869-8.832-35.413l85.333-426.667c4.011-19.968 21.504-34.304 41.813-34.304h768c20.352 0 37.845 14.336 41.813 34.304l85.333 426.667c2.517 12.544-0.725 25.515-8.832 35.413zM861.099 170.667h-698.112l-68.267 341.333h834.603l-68.224-341.333z" />
<glyph unicode="&#xe60e;" glyph-name="search" d="M930.731 67.499l-205.227 287.275c78.251 70.357 127.829 171.989 127.829 285.269 0 211.712-172.245 384-384 384s-384-172.288-384-384c0-211.712 172.245-384 384-384 67.883 0 131.541 17.877 186.965 48.896l205.013-287.019c8.32-11.648 21.419-17.877 34.731-17.877 8.576 0 17.237 2.603 24.747 7.979 19.2 13.653 23.68 40.32 9.941 59.477zM170.709 640.043c0 164.693 134.016 298.667 298.667 298.667s298.667-133.973 298.667-298.667-134.016-298.667-298.667-298.667-298.667 133.973-298.667 298.667z" />
<glyph unicode="&#xe60f;" glyph-name="question-mark" d="M554.709 128.043c0-23.564-19.103-42.667-42.667-42.667s-42.667 19.103-42.667 42.667c0 23.564 19.103 42.667 42.667 42.667s42.667-19.103 42.667-42.667zM512.043 938.709c-156.203 0-255.957-151.595-256-256 0-23.552 19.072-42.667 42.624-42.667 0.043 0 0.043 0 0.043 0 23.552 0 42.667 19.072 42.667 42.667 0.043 60.16 64.853 170.667 170.667 170.667 103.637 0 170.624-66.987 170.667-170.667 0-86.144-40.021-118.144-90.667-158.677-54.613-43.733-122.667-98.176-122.667-225.323 0-23.552 19.072-42.667 42.667-42.667s42.667 19.115 42.667 42.667c0 86.187 40.021 118.187 90.667 158.72 54.656 43.691 122.667 98.133 122.667 225.323-0.043 150.699-105.344 255.957-256 255.957z" />
<glyph unicode="&#xe610;" glyph-name="print" d="M981.333 640h-128v213.376c0 13.184 4.565 20.267-5.803 28.373l-181.333 143.957c-7.509 5.803-16.683-1.707-26.197-1.707h-405.333c-23.595 0-64 2.219-64-21.333v-362.667h-128c-23.595 0-42.667-19.115-42.667-42.667v-426.667c0-23.595 19.072-42.667 42.667-42.667h68.011l-22.229-53.504c-5.248-13.141-3.627-33.323 4.309-45.099 7.893-11.733 21.12-29.397 35.285-29.397h768c14.165 0 27.392 15.019 35.328 26.752s9.557 34.645 4.309 47.744l-21.931 53.504h67.584c23.595 0 42.667 19.072 42.667 42.667v426.667c0 23.552-19.072 42.667-42.667 42.667zM256 938.667h369.365l142.635-106.155v-192.512h-512v298.667zM191.061 85.333l51.2 128h539.563l51.2-128h-641.963zM938.667 213.333h-59.947l-28.373 69.163c-6.485 16.213-22.187 16.171-39.637 16.171h-597.333c-17.451 0-33.109-2.645-39.637-18.816l-27.648-66.517h-60.757v341.333h853.333v-341.333zM256.043 469.376c0-23.564-19.103-42.667-42.667-42.667s-42.667 19.103-42.667 42.667c0 23.564 19.103 42.667 42.667 42.667s42.667-19.103 42.667-42.667zM384.043 469.376c0-23.564-19.103-42.667-42.667-42.667s-42.667 19.103-42.667 42.667c0 23.564 19.103 42.667 42.667 42.667s42.667-19.103 42.667-42.667z" />
<glyph unicode="&#xe611;" glyph-name="pin" d="M979.456 680.149l-299.52 301.483c-8.917 9.003-21.376 13.056-34.048 12.117-12.629-1.109-24.064-8.448-31.275-18.859l-259.371-375.168-160.256-2.389c-0.043 0-0.043 0-0.085 0-17.195 0-32.768-7.637-39.381-23.552s-3.029-31.573 9.088-43.819l151.979-153.088-251.989-252.032c-16.683-16.683-16.683-43.648 0-60.331 8.32-8.32 19.243-12.501 30.165-12.501s21.845 4.181 30.165 12.501l251.776 251.819 147.627-148.736c8.149-8.192 19.115-12.587 30.293-12.587 5.461 0 11.008 1.024 16.256 3.2 16 6.613 26.411 22.187 26.411 39.467v158.592l376.021 258.816c10.411 7.168 17.067 18.56 18.304 31.147 1.237 12.544-3.285 24.917-12.16 33.92zM530.475 413.824c-11.563-8.021-18.475-21.12-18.475-35.157v-77.44l-214.4 213.461 79.872-2.688c0.043 0 0.043 0 0.085 0 13.995 0 27.093 9.387 35.029 20.864l242.901 352.597 227.413-229.035-352.427-242.603z" />
<glyph unicode="&#xe612;" glyph-name="phone" d="M1011.371 189.781l-221.611 219.605c-16 15.829-44.203 15.787-60.203-0.128-1.664-1.664-41.771-40.832-93.653-40.832-31.915 0-63.445 15.36-93.739 45.653l-128.128 128.128c-77.397 76.715-2.901 184.235 0.213 188.629 12.203 16.939 10.325 40.235-4.437 55.040l-225.109 225.621c-16.597 16.597-43.52 16.683-60.245 0.128-77.952-77.269-124.459-190.72-124.459-303.488 0-97.493 34.688-185.557 97.664-247.936l371.157-367.744c61.013-60.459 141.995-92.459 234.283-92.459 111.317 0 226.603 48.299 308.267 129.152 8.107 8.064 12.629 18.944 12.629 30.336s-4.523 22.315-12.629 30.293zM703.104 85.333c-48.299 0-117.76 11.733-174.208 67.712l-371.157 367.787c-46.677 46.251-72.405 112.768-72.405 187.307 0 75.861 26.069 151.936 71.083 210.859l169.429-169.771c-35.2-67.84-59.776-180.48 27.947-267.435l128-128c46.891-46.891 98.688-70.656 154.069-70.656 51.2 0 93.312 20.565 120.747 38.997l162.219-160.768c-62.251-48.128-140.203-76.032-215.723-76.032z" />
<glyph unicode="&#xe613;" glyph-name="page-website-webpage" d="M883.499 798.208l-213.291 213.291c-7.979 8.021-18.816 12.501-30.165 12.501h-469.376c-23.595 0-42.667-19.115-42.667-42.667v-938.667c0-23.595 19.072-42.667 42.667-42.667h682.667c23.595 0 42.667 19.072 42.667 42.667v725.376c0 11.349-4.48 22.187-12.501 30.165zM793.088 768h-153.088v153.045l153.088-153.045zM213.333 85.333v853.333h341.333v-213.333c0-23.552 19.072-42.667 42.667-42.667h213.333v-597.333h-597.333z" />
<glyph unicode="&#xe614;" glyph-name="page-upload" d="M512 85.333h-341.333v853.333h341.333v-170.667c0-23.552 19.072-42.667 42.667-42.667h213.333v-128c0-23.552 19.072-42.667 42.667-42.667s42.667 19.115 42.667 42.667v170.709c0 11.307-4.48 22.187-12.501 30.165l-213.291 213.291c-7.979 8.021-18.816 12.501-30.165 12.501h-469.376c-23.595 0-42.667-19.115-42.667-42.667v-938.667c0-23.595 19.072-42.667 42.667-42.667h384c23.595 0 42.667 19.072 42.667 42.667s-19.072 42.667-42.667 42.667zM707.712 810.667h-110.379v110.379l110.379-110.379zM926.208 286.208l-170.667 170.667c-1.749 1.749-4.011 2.603-5.973 3.968-2.603 1.835-4.864 3.968-7.808 5.163-10.496 4.395-22.272 4.395-32.811 0.043-5.035-2.133-9.557-5.12-13.397-8.875-0.085-0.171-0.256 6.101-0.384 5.973v6.187c-0.043 0-0.043 0-0.085 0l-170.581-176.853c-16.683-16.683-16.683-46.848 0-63.488s43.648-18.219 60.331-1.536l97.792 96.213v-281.003c0-23.595 19.072-42.667 42.667-42.667s42.667 19.072 42.667 42.667v281.088l97.877-97.877c8.32-8.32 19.243-12.501 30.165-12.501s21.845 4.181 30.165 12.501c16.725 16.683 16.725 43.648 0.043 60.331z" />
<glyph unicode="&#xe615;" glyph-name="page-save" d="M926.208 243.541c-16.683 16.683-43.648 16.683-60.331 0l-97.877-97.877v281.003c0 23.595-19.072 42.667-42.667 42.667s-42.667-19.072-42.667-42.667v-280.917l-97.792 97.792c-16.683 16.683-43.648 16.683-60.331 0s-16.683-43.648 0-60.331l170.411-170.411c4.053-4.096 8.832-7.296 14.208-9.557 2.987-1.195 6.187-1.323 9.259-1.835 2.347-0.427 4.437-1.408 6.912-1.408 1.664 0 3.072 0.768 4.651 0.896 3.925 0.469 7.936 0.853 11.563 2.389 5.248 2.176 9.984 5.291 13.952 9.259v0l170.667 170.667c16.725 16.683 16.725 43.648 0.043 60.331zM554.667 682.667h213.333v-85.333c0-23.552 19.072-42.667 42.667-42.667s42.667 19.115 42.667 42.667v170.709c0 11.307-4.48 22.187-12.501 30.165l-213.291 213.291c-7.979 8.021-18.816 12.501-30.165 12.501h-469.376c-23.595 0-42.667-19.115-42.667-42.667v-938.667c0-23.595 19.072-42.667 42.667-42.667h298.667c23.595 0 42.667 19.072 42.667 42.667s-19.072 42.667-42.667 42.667h-256v853.333h341.333v-213.333c0-23.552 19.072-42.667 42.667-42.667zM750.421 768h-153.088v153.045l153.088-153.045z" />
<glyph unicode="&#xe616;" glyph-name="page-pdf" d="M810.667 85.333h-725.333v853.333h384v-213.333c0-23.552 19.072-42.667 42.667-42.667h256c0-23.552 19.072-42.667 42.667-42.667s42.667 19.115 42.667 42.667v85.419c0 11.307-4.48 22.187-12.501 30.165l-213.291 213.248c-7.979 8.021-18.816 12.501-30.165 12.501h-554.709c-23.595 0-42.667-19.115-42.667-42.667v-938.667c0-23.595 19.072-42.667 42.667-42.667h768c23.595 0 42.667 19.072 42.667 42.667s-19.072 42.667-42.667 42.667zM750.421 768h-195.755v170.667h25.045l170.709-170.667zM211.584 554.667c-23.509 0-40.917-19.115-40.917-42.581v-298.624c0-23.467 19.157-42.667 42.667-42.667s42.667 19.2 42.667 42.667v85.205h40.917c70.485 0 128 57.6 128 128s-57.515 128-128 128h-85.333zM339.584 426.667c0-23.424-19.157-42.667-42.667-42.667h-40.917v85.333h40.917c23.509 0 42.667-19.157 42.667-42.667zM512.043 554.667c-23.467 0-42.709-19.115-42.709-42.581v-298.667c0-23.424 19.243-42.752 42.709-42.752h85.333c70.4 0 127.957 57.728 127.957 128.128v127.957c0 70.443-57.557 127.915-127.957 127.915h-85.333zM640 426.752v-127.957c0-23.467-19.115-42.795-42.624-42.795h-42.709v213.333h42.709c23.509 0 42.624-19.072 42.624-42.581zM981.333 554.667h-170.667c-23.509 0-42.667-19.115-42.667-42.581v-298.667c0-23.467 19.157-42.667 42.667-42.667s42.667 19.2 42.667 42.667v85.248h42.667c23.509 0 42.667 19.2 42.667 42.667s-19.157 42.667-42.667 42.667h-42.667v85.333h128c23.509 0 42.667 19.2 42.667 42.667s-19.157 42.667-42.667 42.667z" />
<glyph unicode="&#xe617;" glyph-name="page-form" d="M883.499 798.208l-213.291 213.291c-7.979 8.021-18.816 12.501-30.165 12.501h-469.376c-23.595 0-42.667-19.115-42.667-42.667v-938.667c0-23.595 19.072-42.667 42.667-42.667h682.667c23.595 0 42.667 19.072 42.667 42.667v725.376c0 11.349-4.48 22.187-12.501 30.165zM793.088 768h-153.088v153.045l153.088-153.045zM213.333 85.333v853.333h341.333v-213.333c0-23.552 19.072-42.667 42.667-42.667h213.333v-597.333h-597.333zM384.043 554.709c0-23.564-19.103-42.667-42.667-42.667s-42.667 19.103-42.667 42.667c0 23.564 19.103 42.667 42.667 42.667s42.667-19.103 42.667-42.667zM682.667 597.333h-213.333c-23.595 0-42.667-19.115-42.667-42.667s19.072-42.667 42.667-42.667h213.333c23.595 0 42.667 19.115 42.667 42.667s-19.072 42.667-42.667 42.667zM384.043 384.043c0-23.564-19.103-42.667-42.667-42.667s-42.667 19.103-42.667 42.667c0 23.564 19.103 42.667 42.667 42.667s42.667-19.103 42.667-42.667zM469.333 341.333h128c23.595 0 42.667 19.072 42.667 42.667s-19.072 42.667-42.667 42.667h-128c-23.595 0-42.667-19.072-42.667-42.667s19.072-42.667 42.667-42.667zM384.043 213.376c0-23.564-19.103-42.667-42.667-42.667s-42.667 19.103-42.667 42.667c0 23.564 19.103 42.667 42.667 42.667s42.667-19.103 42.667-42.667zM682.667 256h-213.333c-23.595 0-42.667-19.072-42.667-42.667s19.072-42.667 42.667-42.667h213.333c23.595 0 42.667 19.072 42.667 42.667s-19.072 42.667-42.667 42.667z" />
<glyph unicode="&#xe618;" glyph-name="page-cancel" d="M554.667 682.667h213.333v-128c0-23.552 19.072-42.667 42.667-42.667s42.667 19.115 42.667 42.667v213.376c0 11.307-4.48 22.187-12.501 30.165l-213.291 213.291c-7.979 8.021-18.816 12.501-30.165 12.501h-469.376c-23.595 0-42.667-19.115-42.667-42.667v-938.667c0-23.595 19.072-42.667 42.667-42.667h256c23.595 0 42.667 19.072 42.667 42.667s-19.072 42.667-42.667 42.667h-213.333v853.333h341.333v-213.333c0-23.552 19.072-42.667 42.667-42.667zM750.421 768h-153.088v153.045l153.088-153.045zM785.707 213.376l140.501 140.501c16.683 16.683 16.683 43.648 0 60.331s-43.648 16.683-60.331 0l-140.501-140.501-140.501 140.501c-16.683 16.683-43.648 16.683-60.331 0s-16.683-43.648 0-60.331l140.501-140.501-140.501-140.501c-16.683-16.683-16.683-43.648 0-60.331 8.32-8.32 19.243-12.501 30.165-12.501s21.845 4.181 30.165 12.501l140.501 140.501 140.501-140.501c8.32-8.32 19.243-12.501 30.165-12.501s21.845 4.181 30.165 12.501c16.683 16.683 16.683 43.648 0 60.331l-140.501 140.501z" />
<glyph unicode="&#xe619;" glyph-name="map" d="M1002.027 221.184l-86.571 346.411c-13.867 55.424-52.565 115.072-104.747 115.072h-5.632c3.413 17.195 5.632 34.176 5.632 50.475 0 113.365-95.701 205.568-213.333 205.568s-213.333-92.245-213.333-205.568c0-16.299 2.219-33.237 5.632-50.475h-133.632c-66.517 0-131.243-50.56-147.413-115.072l-86.571-346.411c-8.661-34.56-2.048-69.163 18.176-95.104s52.181-40.747 87.808-40.747h768c35.627 0 67.627 14.848 87.851 40.747s26.795 60.587 18.133 95.104zM597.376 853.376c70.571 0 128-53.931 128-120.235 0-81.92-75.264-204.885-128-278.485-52.736 73.643-128 196.565-128 278.485 0 66.304 57.429 120.235 128 120.235zM916.608 178.603c-4.011-5.077-11.307-7.936-20.565-7.936h-768c-9.301 0-16.597 2.816-20.565 7.936-3.968 5.077-4.907 12.843-2.645 21.845l86.571 346.453c6.613 26.368 37.419 50.432 64.64 50.432h160.512c48.213-115.541 134.528-224.043 147.755-240.256 8.107-9.899 20.267-15.701 33.067-15.701s24.96 5.803 33.067 15.701c13.227 16.213 99.541 124.715 147.755 240.256h27.904c6.784-5.419 19.84-23.68 26.581-50.475l86.571-346.453c2.304-9.003 1.323-16.725-2.645-21.803zM640.043 725.376c0-23.564-19.103-42.667-42.667-42.667s-42.667 19.103-42.667 42.667c0 23.564 19.103 42.667 42.667 42.667s42.667-19.103 42.667-42.667z" />
<glyph unicode="&#xe61a;" glyph-name="location" d="M512.043 853.376c-94.123 0-170.667-76.544-170.667-170.667s76.544-170.667 170.667-170.667 170.667 76.544 170.667 170.667-76.544 170.667-170.667 170.667zM512.043 597.376c-47.061 0-85.333 38.272-85.333 85.333s38.272 85.333 85.333 85.333 85.333-38.272 85.333-85.333-38.272-85.333-85.333-85.333zM512.043 1024.043c-188.203 0-341.333-153.131-341.333-341.333 0-267.563 295.083-650.027 307.669-666.197 8.064-10.368 20.48-16.469 33.664-16.469s25.6 6.101 33.664 16.469c12.587 16.171 307.669 398.677 307.669 666.197 0 188.203-153.131 341.333-341.333 341.333zM512.043 114.688c-76.373 107.221-256 379.392-256 567.979 0 141.184 114.816 256 256 256s256-114.816 256-256c0-188.544-179.627-460.757-256-567.979z" />
<glyph unicode="&#xe61b;" glyph-name="information-question" d="M512.043 1024.043c-282.325 0-512-229.675-512-512 0-282.283 229.675-512 512-512s512 229.717 512 512c0 282.325-229.675 512-512 512zM512.043 85.376c-235.264 0-426.667 191.36-426.667 426.667 0 235.264 191.403 426.667 426.667 426.667s426.667-191.403 426.667-426.667c0-235.307-191.403-426.667-426.667-426.667zM554.709 256.043c0-23.564-19.103-42.667-42.667-42.667s-42.667 19.103-42.667 42.667c0 23.564 19.103 42.667 42.667 42.667s42.667-19.103 42.667-42.667zM512.043 810.709c-125.227 0-170.667-102.059-170.667-170.667 0-23.552 19.072-42.667 42.667-42.667s42.667 19.115 42.667 42.667c0 14.251 4.139 85.333 85.333 85.333 77.909 0 84.992-65.579 85.333-85.333 0-41.173-15.061-51.2-45.013-71.168-35.029-23.339-82.987-55.339-82.987-142.165 0-23.552 19.072-42.667 42.667-42.667s42.667 19.115 42.667 42.667c0 41.173 15.061 51.2 45.013 71.168 35.029 23.339 82.987 55.339 82.987 142.165 0 68.608-45.44 170.667-170.667 170.667z" />
<glyph unicode="&#xe61c;" glyph-name="home" d="M1008.384 545.024l-469.333 384c-15.659 12.885-38.315 12.885-54.016 0l-469.333-384c-13.952-11.435-19.243-30.379-13.184-47.36s22.144-28.331 40.149-28.331h85.333v-341.333c0-23.595 19.072-42.667 42.667-42.667h170.667c23.595 0 42.667 19.072 42.667 42.667v213.333h85.333v-213.333c0-23.595 19.072-42.667 42.667-42.667h341.333c23.595 0 42.667 19.072 42.667 42.667v341.333h85.376c18.048 0 34.133 11.349 40.149 28.331 6.101 16.981 0.811 35.925-13.141 47.36zM853.333 554.667c-23.595 0-42.667-19.115-42.667-42.667v-341.333h-256v213.333c0 23.595-19.072 42.667-42.667 42.667h-170.667c-23.595 0-42.667-19.072-42.667-42.667v-213.333h-85.333v341.333c0 23.552-19.072 42.667-42.667 42.667h-8.405l349.781 286.208 349.781-286.208h-8.491z" />
<glyph unicode="&#xe61d;" glyph-name="flag" d="M843.477 517.504l-111.019 183.68 114.816 188.715c7.936 13.184 8.107 24.363 0.555 37.717s-21.76 11.051-37.12 11.051h-554.709v42.667c0 23.552-19.072 42.667-42.667 42.667s-42.667-19.115-42.667-42.667v-938.667c0-23.595 19.072-42.667 42.667-42.667s42.667 19.072 42.667 42.667v384h554.709c0.341 0 0.64 0 0.853 0 23.595 0 42.667 29.013 42.667 52.565 0 10.88-4.053 30.72-10.752 38.272zM256 512v341.333h479.317l-89.216-143.445c-8.107-13.525-8.107-25.003 0-38.528l89.216-159.317h-479.317z" />
<glyph unicode="&#xe61e;" glyph-name="email" d="M896 853.333h-768c-70.571 0-128-57.429-128-128v-426.667c0-70.571 57.429-128 128-128h768c70.571 0 128 57.429 128 128v426.667c0 70.571-57.429 128-128 128zM870.315 768l-318.336-254.677c-20.907-16.768-59.008-16.768-79.915 0l-318.293 254.677h716.544zM896 256h-768c-23.552 0-42.667 19.157-42.667 42.667v414.763l333.397-266.709c26.155-20.949 59.691-31.403 93.312-31.403s67.115 10.453 93.312 31.403l333.312 266.667v-414.72c0-23.509-19.115-42.667-42.667-42.667z" />
<glyph unicode="&#xe61f;" glyph-name="edit-write-pen" d="M993.92 840.875l-153.045 153.003c-8.277 8.277-19.2 12.459-30.165 12.459s-21.888-4.139-30.165-12.459l-665.003-665.003c-16.597-16.597-35.456-48.64-41.856-71.211l-61.909-216.576c-5.333-18.688 2.773-30.976 18.56-30.976 3.285 0 6.869 0.555 10.795 1.621l216.619 61.909c22.528 6.4 54.613 25.301 71.211 41.856l664.96 665.045c16.597 16.597 16.597 43.733 0 60.331zM268.587 175.872c-6.4-6.357-25.685-17.707-34.347-20.181l-109.952-31.403 31.36 109.909c2.517 8.704 13.824 27.947 20.224 34.347l634.837 634.837 92.672-92.672-634.795-634.837zM981.376 85.333c-0.043 0-0.043 0-0.128 0h-519.168l-30.165-30.165c-21.589-21.589-54.229-55.168-85.248-55.168h634.667c0 0 0 0 0.043 0 23.552 0 42.667 19.115 42.667 42.667 0 23.595-19.115 42.667-42.667 42.667z" />
<glyph unicode="&#xe620;" glyph-name="download" d="M908.544 627.541l-2.261 2.261c-16.597 16.597-43.776 16.64-60.459 0.128l-291.157-288.939v640.341c0 23.552-19.072 42.667-42.667 42.667s-42.667-19.115-42.667-42.667v-640.256l-291.072 288.853c-16.683 16.512-43.904 16.427-60.459-0.128l-2.261-2.261c-16.597-16.597-16.597-43.733 0-60.331l366.336-366.336c16.597-16.597 43.733-16.597 60.331 0l366.336 366.336c16.597 16.597 16.597 43.733 0 60.331zM725.333 85.333h-426.667c-23.595 0-42.667-19.072-42.667-42.667s19.072-42.667 42.667-42.667h426.667c23.595 0 42.667 19.072 42.667 42.667s-19.072 42.667-42.667 42.667z" />
<glyph unicode="&#xe621;" glyph-name="dashboard" d="M341.333 938.667h-298.667c-23.595 0-42.667-19.115-42.667-42.667v-768c0-23.595 19.072-42.667 42.667-42.667h298.667c23.595 0 42.667 19.072 42.667 42.667v768c0 23.552-19.072 42.667-42.667 42.667zM298.667 170.667h-213.333v682.667h213.333v-682.667zM981.333 938.667h-469.333c-23.595 0-42.667-19.115-42.667-42.667v-213.333c0-23.552 19.072-42.667 42.667-42.667h469.333c23.595 0 42.667 19.115 42.667 42.667v213.333c0 23.552-19.072 42.667-42.667 42.667zM938.667 725.333h-384v128h384v-128zM981.333 554.667h-469.333c-23.595 0-42.667-19.115-42.667-42.667v-384c0-23.595 19.072-42.667 42.667-42.667h469.333c23.595 0 42.667 19.072 42.667 42.667v384c0 23.552-19.072 42.667-42.667 42.667zM938.667 170.667h-384v298.667h384v-298.667z" />
<glyph unicode="&#xe622;" glyph-name="content-video" d="M715.093 591.403l-278.485 159.147c-18.005 10.325-36.139 15.531-53.888 15.531-49.493 0-84.053-39.253-84.053-95.531v-317.013c0-56.235 34.56-95.531 84.053-95.531 17.749 0 35.883 5.248 53.888 15.488l278.528 159.147c33.067 18.859 52.053 47.829 52.053 79.36-0.043 31.573-19.029 60.501-52.096 79.403zM672.811 506.752l-278.528-159.147c-4.139-2.347-7.168-3.413-9.131-3.883-0.555 2.048-1.152 5.248-1.152 9.813v317.013c0 5.376 0.811 8.917 0.213 10.027 1.792-0.299 5.163-1.28 10.027-4.053l278.485-159.147c3.541-2.005 5.931-3.883 7.424-5.333-1.493-1.451-3.84-3.285-7.339-5.291zM512.085 1024.043c-282.325 0-512-229.675-512-512 0-282.283 229.675-512 512-512s512 229.717 512 512c0 282.325-229.675 512-512 512zM512.085 85.376c-235.264 0-426.667 191.36-426.667 426.667 0 235.264 191.403 426.667 426.667 426.667s426.667-191.403 426.667-426.667c0-235.307-191.403-426.667-426.667-426.667z" />
<glyph unicode="&#xe623;" glyph-name="content-twitter" d="M768.043 1024h-512c-141.184 0-256.043-114.816-256.043-255.957v-298.667c0-118.955 75.861-225.195 170.667-250.368v-176.299c0-15.488 8.405-29.781 22.016-37.291 6.4-3.584 13.525-5.376 20.651-5.376 7.893 0 15.701 2.176 22.613 6.443l331.008 206.848h201.088c141.141 0 255.957 114.816 255.957 256.043v298.667c0 141.141-114.816 255.957-255.957 255.957zM938.667 469.376c0-94.123-76.544-170.709-170.624-170.709h-213.333c-8.021 0-15.829-2.261-22.613-6.485l-276.096-172.501v136.363c0 23.552-19.072 42.667-42.667 42.667-59.221 0-128 74.539-128 170.667v298.667c0 94.080 76.587 170.624 170.709 170.624h512c94.080 0 170.624-76.544 170.624-170.624v-298.667zM792.064 823.851c-21.803-12.928-45.995-22.315-71.851-27.435-20.48 22.059-50.091 35.797-82.475 35.797-62.635 0-113.195-50.816-113.195-113.152 0-8.96 1.024-17.493 2.901-25.771-93.867 4.693-177.152 49.835-233.045 118.187-9.685-16.683-15.317-36.096-15.317-56.917 0-39.168 30.165-73.899 60.544-94.080-18.603 0.555-40.96 5.632-40.96 14.123 0-0.384 0-0.896 0-1.451 0-54.699 28.715-100.395 80.512-110.891-9.429-2.475-24.661-4.053-34.987-4.053-7.253 0-16.811 0.811-23.808 2.176 14.336-44.971 54.869-77.568 104.277-78.592-38.571-30.293-87.936-48.469-140.971-48.469-9.216 0-18.645 0.555-27.392 1.621 50.091-32.043 109.312-50.859 173.184-50.859 208.171 0 321.749 172.501 321.749 321.92 0 4.864-0.043 9.728-0.299 14.549 22.101 16 41.131 35.883 56.363 58.667-20.352-9.088-42.155-15.104-65.024-17.877 23.424 13.952 41.387 36.139 49.792 62.507z" />
<glyph unicode="&#xe624;" glyph-name="content-text-blog-writing" d="M170.667 896h682.667c23.595 0 42.667 19.115 42.667 42.667s-19.072 42.667-42.667 42.667h-682.667c-23.595 0-42.667-19.115-42.667-42.667s19.072-42.667 42.667-42.667zM170.667 725.333h597.333c23.595 0 42.667 19.115 42.667 42.667s-19.072 42.667-42.667 42.667h-597.333c-23.595 0-42.667-19.115-42.667-42.667s19.072-42.667 42.667-42.667zM853.333 640h-682.667c-23.595 0-42.667-19.115-42.667-42.667s19.072-42.667 42.667-42.667h682.667c23.595 0 42.667 19.115 42.667 42.667s-19.072 42.667-42.667 42.667zM170.667 384h512c23.595 0 42.667 19.072 42.667 42.667s-19.072 42.667-42.667 42.667h-512c-23.595 0-42.667-19.072-42.667-42.667s19.072-42.667 42.667-42.667zM853.333 298.667h-682.667c-23.595 0-42.667-19.072-42.667-42.667s19.072-42.667 42.667-42.667h682.667c23.595 0 42.667 19.072 42.667 42.667s-19.072 42.667-42.667 42.667zM768 128h-597.333c-23.595 0-42.667-19.072-42.667-42.667s19.072-42.667 42.667-42.667h597.333c23.595 0 42.667 19.072 42.667 42.667s-19.072 42.667-42.667 42.667z" />
<glyph unicode="&#xe625;" glyph-name="content-quote-fact" d="M768.043 1024h-512c-141.184 0-256.043-114.816-256.043-255.957v-298.667c0-118.955 75.861-225.195 170.667-250.368v-176.299c0-15.488 8.405-29.781 22.016-37.291 6.4-3.584 13.525-5.376 20.651-5.376 7.893 0 15.701 2.176 22.613 6.443l331.008 206.848h201.088c141.141 0 255.957 114.816 255.957 256.043v298.667c0 141.141-114.816 255.957-255.957 255.957zM938.667 469.376c0-94.123-76.544-170.709-170.624-170.709h-213.333c-8.021 0-15.829-2.261-22.613-6.485l-276.096-172.501v136.363c0 23.552-19.072 42.667-42.667 42.667-59.221 0-128 74.539-128 170.667v298.667c0 94.080 76.587 170.624 170.709 170.624h512c94.080 0 170.624-76.544 170.624-170.624v-298.667zM256 585.173v-158.507h213.333v170.667h-95.573c-6.229 85.333 10.24 119.893 95.573 128.043v85.333c-128-2.389-213.333-70.485-213.333-225.536zM554.667 640h95.659c6.229-85.333-10.325-119.808-95.659-127.957v-85.333c128 2.389 213.333 70.485 213.333 225.493v158.464h-213.333v-170.667z" />
<glyph unicode="&#xe626;" glyph-name="content-photo" d="M896 938.667h-768c-70.571 0-128-57.429-128-128v-597.333c0-70.571 57.429-128 128-128h768c70.571 0 128 57.429 128 128v597.333c0 70.571-57.429 128-128 128zM128 853.333h768c23.552 0 42.667-19.157 42.667-42.667v-426.624l-128 170.667c-21.675 28.928-53.547 45.099-85.376 44.885-32.597-0.384-63.275-17.493-84.267-46.848l-114.219-159.829c-17.024-23.979-58.496-39.296-87.125-32.171l-5.248 1.323c-57.771 14.421-138.368 0.427-187.776-32.555l-161.323-107.563v588.715c0 23.509 19.115 42.667 42.667 42.667zM896 170.667h-733.696l131.712 87.851c28.928 19.243 85.888 29.099 119.637 20.651l5.248-1.451c62.123-15.531 140.203 12.928 177.408 65.024l114.219 159.275c4.949 6.997 10.752 9.984 15.787 9.984 0.043 0 0.085 0 0.128 0 5.035 0 10.88-2.773 16-9.643l196.267-260.608v-28.416c-0.043-23.509-19.157-42.667-42.709-42.667zM320 469.376c82.347 0 149.333 66.987 149.333 149.333s-66.987 149.333-149.333 149.333-149.333-66.987-149.333-149.333 66.987-149.333 149.333-149.333zM320 682.709c35.285 0 64-28.715 64-64s-28.715-64-64-64-64 28.715-64 64 28.715 64 64 64z" />
<glyph unicode="&#xe627;" glyph-name="content-facebook" d="M768.043 1024h-512c-141.184 0-256.043-114.816-256.043-255.957v-298.667c0-118.955 75.861-225.195 170.667-250.368v-176.299c0-15.488 8.405-29.781 22.016-37.291 6.4-3.584 13.525-5.376 20.651-5.376 7.893 0 15.701 2.176 22.613 6.443l331.008 206.848h201.088c141.141 0 255.957 114.816 255.957 256.043v298.667c0 141.141-114.816 255.957-255.957 255.957zM938.667 469.376c0-94.123-76.544-170.709-170.624-170.709h-213.376v213.333h108.928l15.019 85.333h-123.947v90.027c0 33.792 13.397 56.917 61.995 56.917l66.005 0.085v104.448c0 1.323-55.253 4.565-97.92 4.565-89.344 0-158.080-54.4-158.080-154.411v-101.632h-85.333v-85.333h85.333v-275.968l-170.667-116.395v136.363c0 23.552-19.072 42.667-42.667 42.667-59.221 0-128 74.539-128 170.667v298.667c0 94.123 76.587 170.667 170.709 170.667h512c94.080 0 170.624-76.544 170.624-170.624v-298.667z" />
<glyph unicode="&#xe628;" glyph-name="content-chat-discussion" d="M843.093 682.667h-32.427v48.085c0 114.645-92.416 207.915-205.995 207.915h-396.672c-114.688 0-208-93.269-208-207.915v-99.157c0-92.331 66.773-170.624 128-197.76v-132.821c0-15.488 8.405-29.781 22.016-37.333 6.443-3.541 13.525-5.333 20.651-5.333 7.893 0 15.744 2.219 22.656 6.485l153.771 96.341c17.237-77.44 76.373-147.84 164.053-147.84h126.208l193.621-119.339c6.827-4.181 14.635-6.315 22.357-6.315 7.168 0 14.336 1.835 20.779 5.419 13.483 7.595 21.888 21.845 21.888 37.248v104.491c61.227 23.68 128 91.819 128 172.16v82.944c0 102.699-84.523 192.725-180.907 192.725zM341.333 489.941v-31.701l-128-80.171v88.277c0 22.315-20.181 41.003-42.453 42.667-20.053 1.408-85.547 55.808-85.547 122.581v99.157c0 67.584 55.040 122.581 122.667 122.581h396.672c66.56 0 120.661-54.997 120.661-122.581v-48.085h-214.229c-104.875 0-169.771-100.011-169.771-192.725zM938.667 406.997c0-51.541-65.024-95.659-85.333-95.659-23.595 0-42.667-19.072-42.667-42.667v-61.909l-138.88 85.589c-6.699 4.181-14.464 6.315-22.357 6.315h-138.283c-52.181 0-84.437 56.235-84.437 108.331v82.944c0 51.627 32.299 107.392 84.437 107.392h331.947c49.109 0 95.573-52.181 95.573-107.392v-82.944z" />
<glyph unicode="&#xe629;" glyph-name="comment-speach-bubble" d="M768.043 938.667h-512c-141.184 0-256.043-114.816-256.043-255.957v-128c0-118.955 75.861-225.195 170.667-250.368v-176.299c0-15.488 8.405-29.781 22.016-37.291 6.4-3.584 13.525-5.376 20.651-5.376 7.893 0 15.701 2.176 22.613 6.443l331.008 206.848h201.088c141.141 0 255.957 114.816 255.957 256.043v128c0 141.141-114.816 255.957-255.957 255.957zM938.667 554.709c0-94.123-76.544-170.709-170.624-170.709h-213.333c-8.021 0-15.829-2.261-22.613-6.485l-276.096-172.501v136.363c0 23.552-19.072 42.667-42.667 42.667-59.221 0-128 74.539-128 170.667v128c0 94.080 76.587 170.624 170.709 170.624h512c94.080 0 170.624-76.544 170.624-170.624v-128z" />
<glyph unicode="&#xe62a;" glyph-name="cancel-close-exit" d="M572.373 512.043l311.168 311.168c16.683 16.683 16.683 43.648 0 60.331s-43.648 16.683-60.331 0l-311.168-311.168-311.168 311.168c-16.683 16.683-43.648 16.683-60.331 0s-16.683-43.648 0-60.331l311.168-311.168-311.168-311.168c-16.683-16.683-16.683-43.648 0-60.331 8.32-8.32 19.243-12.501 30.165-12.501s21.845 4.181 30.165 12.501l311.168 311.168 311.168-311.168c8.32-8.32 19.243-12.501 30.165-12.501s21.845 4.181 30.165 12.501c16.683 16.683 16.683 43.648 0 60.331l-311.168 311.168z" />
<glyph unicode="&#xe62b;" glyph-name="calendar" d="M896 938.667h-768c-70.571 0-128-57.429-128-128v-597.333c0-70.571 57.429-128 128-128h768c70.571 0 128 57.429 128 128v597.333c0 70.571-57.429 128-128 128zM128 853.333h768c23.552 0 42.667-19.157 42.667-42.667v-42.667h-853.333v42.667c0 23.509 19.115 42.667 42.667 42.667zM896 170.667h-768c-23.552 0-42.667 19.157-42.667 42.667v469.333h853.333v-469.333c0-23.509-19.115-42.667-42.667-42.667zM298.709 426.709c0-23.564-19.103-42.667-42.667-42.667s-42.667 19.103-42.667 42.667c0 23.564 19.103 42.667 42.667 42.667s42.667-19.103 42.667-42.667zM426.709 426.709c0-23.564-19.103-42.667-42.667-42.667s-42.667 19.103-42.667 42.667c0 23.564 19.103 42.667 42.667 42.667s42.667-19.103 42.667-42.667zM554.709 426.709c0-23.564-19.103-42.667-42.667-42.667s-42.667 19.103-42.667 42.667c0 23.564 19.103 42.667 42.667 42.667s42.667-19.103 42.667-42.667zM682.709 426.709c0-23.564-19.103-42.667-42.667-42.667s-42.667 19.103-42.667 42.667c0 23.564 19.103 42.667 42.667 42.667s42.667-19.103 42.667-42.667zM810.709 426.709c0-23.564-19.103-42.667-42.667-42.667s-42.667 19.103-42.667 42.667c0 23.564 19.103 42.667 42.667 42.667s42.667-19.103 42.667-42.667zM298.709 554.709c0-23.564-19.103-42.667-42.667-42.667s-42.667 19.103-42.667 42.667c0 23.564 19.103 42.667 42.667 42.667s42.667-19.103 42.667-42.667zM426.709 554.709c0-23.564-19.103-42.667-42.667-42.667s-42.667 19.103-42.667 42.667c0 23.564 19.103 42.667 42.667 42.667s42.667-19.103 42.667-42.667zM554.709 554.709c0-23.564-19.103-42.667-42.667-42.667s-42.667 19.103-42.667 42.667c0 23.564 19.103 42.667 42.667 42.667s42.667-19.103 42.667-42.667zM682.709 554.709c0-23.564-19.103-42.667-42.667-42.667s-42.667 19.103-42.667 42.667c0 23.564 19.103 42.667 42.667 42.667s42.667-19.103 42.667-42.667zM810.709 554.709c0-23.564-19.103-42.667-42.667-42.667s-42.667 19.103-42.667 42.667c0 23.564 19.103 42.667 42.667 42.667s42.667-19.103 42.667-42.667zM298.709 298.709c0-23.564-19.103-42.667-42.667-42.667s-42.667 19.103-42.667 42.667c0 23.564 19.103 42.667 42.667 42.667s42.667-19.103 42.667-42.667zM426.709 298.709c0-23.564-19.103-42.667-42.667-42.667s-42.667 19.103-42.667 42.667c0 23.564 19.103 42.667 42.667 42.667s42.667-19.103 42.667-42.667zM554.709 298.709c0-23.564-19.103-42.667-42.667-42.667s-42.667 19.103-42.667 42.667c0 23.564 19.103 42.667 42.667 42.667s42.667-19.103 42.667-42.667zM682.709 298.709c0-23.564-19.103-42.667-42.667-42.667s-42.667 19.103-42.667 42.667c0 23.564 19.103 42.667 42.667 42.667s42.667-19.103 42.667-42.667z" />
<glyph unicode="&#xe62c;" glyph-name="bookmark" d="M725.376 1024h-426.667c-70.571 0-128.043-57.387-128.043-127.957v-853.333c0-16.683 9.728-31.787 24.832-38.784 15.104-6.912 32.896-4.437 45.568 6.4l270.933 232.149 270.933-232.149c7.893-6.741 17.749-10.283 27.733-10.283 6.059 0 12.117 1.28 17.835 3.883 15.104 6.997 24.832 22.144 24.832 38.784v853.333c0 70.571-57.429 127.957-127.957 127.957zM768 135.509l-228.267 195.584c-15.915 13.739-39.595 13.739-55.509 0l-228.224-195.584v760.533c0 23.509 19.157 42.624 42.709 42.624h426.667c23.509 0 42.624-19.115 42.624-42.624v-760.533z" />
<glyph unicode="&#xe62d;" glyph-name="arrow-2-up" d="M926.208 328.832l-384.043 384.043c-16.683 16.683-43.648 16.683-60.331 0l-383.957-384.043c-16.683-16.683-16.683-43.648 0-60.331 8.32-8.32 19.243-12.501 30.165-12.501s21.845 4.181 30.165 12.501l353.792 353.877 353.877-353.877c8.32-8.32 19.243-12.501 30.165-12.501s21.845 4.181 30.165 12.501c16.683 16.683 16.683 43.648 0 60.331z" />
<glyph unicode="&#xe62e;" glyph-name="arrow-2-right" d="M755.541 542.208l-384.043 384c-16.683 16.683-43.648 16.683-60.331 0s-16.683-43.691 0-60.331l353.877-353.792-353.877-353.835c-16.683-16.683-16.683-43.648 0-60.331 8.32-8.363 19.243-12.544 30.165-12.544s21.845 4.181 30.165 12.501l384.043 384c8.32 8.32 12.501 19.243 12.501 30.165s-4.181 21.888-12.501 30.165z" />
<glyph unicode="&#xe62f;" glyph-name="arrow-2-left" d="M401.707 512.043l353.877 353.792c16.683 16.64 16.683 43.648 0 60.331s-43.648 16.683-60.331 0l-384.043-384c-8.32-8.32-12.501-19.243-12.501-30.165s4.181-21.845 12.501-30.165l384.043-384c8.32-8.32 19.243-12.501 30.165-12.501s21.845 4.181 30.165 12.501c16.683 16.683 16.683 43.648 0 60.331l-353.877 353.877z" />
<glyph unicode="&#xe630;" glyph-name="arrow-2-down" d="M926.208 712.917c-16.683 16.683-43.648 16.683-60.331 0l-353.792-353.877-353.877 353.877c-16.683 16.683-43.648 16.683-60.331 0s-16.683-43.648 0-60.331l384.043-384.043c8.32-8.32 19.243-12.501 30.165-12.501s21.845 4.181 30.165 12.501l383.957 384.043c16.683 16.683 16.683 43.691 0 60.331z" />
<glyph unicode="&#xe631;" glyph-name="arrow-1-up" d="M926.208 627.541l-384 384c-16.683 16.683-43.648 16.683-60.331 0l-384-384c-16.683-16.683-16.683-43.648 0-60.331 8.32-8.363 19.243-12.544 30.165-12.544s21.845 4.181 30.165 12.501l311.125 311.125v-835.627c0-23.595 19.072-42.667 42.667-42.667s42.667 19.072 42.667 42.667v835.712l311.211-311.211c8.32-8.32 19.243-12.501 30.165-12.501s21.845 4.181 30.165 12.501c16.683 16.683 16.683 43.691 0 60.373z" />
<glyph unicode="&#xe632;" glyph-name="arrow-1-right" d="M1011.499 542.208l-384 384c-16.683 16.683-43.648 16.683-60.331 0s-16.683-43.648 0-60.331l311.211-311.211h-835.712c-23.595 0-42.667-19.115-42.667-42.667s19.072-42.667 42.667-42.667h835.627l-311.125-311.125c-16.683-16.683-16.683-43.648 0-60.331 8.32-8.32 19.243-12.501 30.165-12.501s21.845 4.181 30.165 12.501l384 384c16.683 16.683 16.683 43.648 0 60.331z" />
<glyph unicode="&#xe633;" glyph-name="arrow-1-left" d="M981.333 554.667h-835.627l311.211 311.211c16.683 16.683 16.683 43.648 0 60.331s-43.648 16.683-60.331 0l-384-384c-16.683-16.683-16.683-43.648 0-60.331l384-384c8.32-8.32 19.243-12.501 30.165-12.501s21.845 4.181 30.165 12.501c16.683 16.683 16.683 43.648 0 60.331l-311.125 311.125h835.541c23.595 0 42.667 19.115 42.667 42.667s-19.072 42.667-42.667 42.667z" />
<glyph unicode="&#xe634;" glyph-name="arrow-1-down" horiz-adv-x="1045" d="M926.208 456.917c-16.683 16.64-43.648 16.64-60.331 0l-311.211-311.253v835.669c0 23.552-19.072 42.667-42.667 42.667s-42.667-19.115-42.667-42.667v-835.584l-311.125 311.168c-16.683 16.64-43.648 16.64-60.331 0-16.683-16.683-16.683-43.648 0-60.331l384-384c8.32-8.32 19.243-12.501 30.165-12.501s21.845 4.181 30.165 12.501l384 384c16.683 16.683 16.683 43.648 0 60.331z" />
<glyph unicode="&#xe635;" glyph-name="alert-circle" d="M512.043 1024.043c-282.325 0-512-229.675-512-512 0-282.283 229.675-512 512-512s512 229.717 512 512c0 282.325-229.675 512-512 512zM512.043 85.376c-235.264 0-426.667 191.36-426.667 426.667 0 235.264 191.403 426.667 426.667 426.667s426.667-191.403 426.667-426.667c0-235.307-191.403-426.667-426.667-426.667zM512 384c23.595 0 42.667 19.072 42.667 42.667v341.333c0 23.552-19.072 42.667-42.667 42.667s-42.667-19.115-42.667-42.667v-341.333c0-23.595 19.072-42.667 42.667-42.667zM554.709 256.043c0-23.564-19.103-42.667-42.667-42.667s-42.667 19.103-42.667 42.667c0 23.564 19.103 42.667 42.667 42.667s42.667-19.103 42.667-42.667z" />
<glyph unicode="&#xe636;" glyph-name="accept-confirm-tick" d="M1011.541 840.917c-16.683 16.683-43.648 16.683-60.331 0l-609.792-609.877-268.544 268.544c-16.683 16.683-43.648 16.683-60.331 0s-16.683-43.648 0-60.331l298.709-298.709c8.32-8.32 19.243-12.501 30.165-12.501s21.845 4.181 30.165 12.501l639.957 640.043c16.683 16.683 16.683 43.691 0 60.331z" />
<glyph unicode="&#xe637;" glyph-name="waiting-clock" d="M512 1024c-282.325 0-512-229.675-512-512s229.675-512 512-512c282.325 0 512 229.675 512 512s-229.675 512-512 512zM512 85.333c-235.264 0-426.667 191.403-426.667 426.667s191.403 426.667 426.667 426.667c235.264 0 426.667-191.403 426.667-426.667s-191.403-426.667-426.667-426.667zM554.667 529.664v281.003c0 23.552-19.072 42.667-42.667 42.667-23.552 0-42.667-19.115-42.667-42.667v-298.667c0-2.261 0.939-4.224 1.28-6.357 0.512-3.285 0.683-6.656 1.963-9.771 2.176-5.333 5.333-10.069 9.344-14.080l210.56-211.499c8.32-8.32 19.285-12.544 30.251-12.544 10.88 0 21.803 4.139 30.123 12.416 16.683 16.64 16.768 43.648 0.128 60.373l-198.315 199.125z" />
<glyph unicode="&#xe638;" glyph-name="repeat-retry-again" d="M853.333 426.709c-23.595 0-42.667-19.072-42.667-42.667 0-164.693-133.973-298.709-298.667-298.709s-298.667 134.016-298.667 298.709 133.973 298.709 298.667 298.709l238.251-0.085-183.125-183.168c-16.683-16.683-16.683-43.648 0-60.331s43.648-16.683 60.331 0l255.957 256c3.712 3.712 6.315 8.064 8.405 12.672 0.64 1.365 0.981 2.731 1.493 4.139 1.109 3.456 1.835 6.997 2.048 10.624 0.128 1.451 0.299 2.816 0.256 4.309-0.171 4.523-0.939 9.003-2.645 13.355-0.171 0.427-0.128 0.853-0.299 1.237-0.043 0-0.043 0.043-0.043 0.085-2.005 4.779-4.949 8.875-8.363 12.544-0.384 0.384-0.512 0.896-0.896 1.323l-255.957 256c-16.683 16.683-43.648 16.683-60.331 0s-16.683-43.648 0-60.331l183.168-183.125-238.251 0.085c-211.755 0-384-172.288-384-384.043s172.245-384.043 384-384.043c211.712 0 384 172.288 384 384.043 0 23.595-19.072 42.667-42.667 42.667z" />
<glyph unicode="&#xe639;" glyph-name="plus-add" d="M896 554.667h-341.333v341.333c0 23.552-19.072 42.667-42.667 42.667-23.552 0-42.667-19.115-42.667-42.667v-341.333h-341.333c-23.552 0-42.667-19.115-42.667-42.667 0-23.595 19.115-42.667 42.667-42.667h341.333v-341.333c0-23.595 19.115-42.667 42.667-42.667 23.595 0 42.667 19.072 42.667 42.667v341.333h341.333c23.595 0 42.667 19.072 42.667 42.667 0 23.552-19.072 42.667-42.667 42.667z" />
<glyph unicode="&#xe63a;" glyph-name="menu-hamburger" d="M896 554.667h-768c-23.552 0-42.667-19.115-42.667-42.667 0-23.595 19.115-42.667 42.667-42.667h768c23.595 0 42.667 19.072 42.667 42.667 0 23.552-19.072 42.667-42.667 42.667zM896 298.667h-768c-23.552 0-42.667-19.072-42.667-42.667s19.115-42.667 42.667-42.667h768c23.595 0 42.667 19.072 42.667 42.667s-19.072 42.667-42.667 42.667zM128 725.333h768c23.595 0 42.667 19.115 42.667 42.667s-19.072 42.667-42.667 42.667h-768c-23.552 0-42.667-19.115-42.667-42.667s19.115-42.667 42.667-42.667z" />
<glyph unicode="&#xe63b;" glyph-name="cricle-accept-confirm-tick" d="M512 1024c-282.325 0-512-229.675-512-512s229.675-512 512-512c282.325 0 512 229.675 512 512s-229.675 512-512 512zM512 85.333c-235.264 0-426.667 191.403-426.667 426.667s191.403 426.667 426.667 426.667c235.264 0 426.667-191.403 426.667-426.667s-191.403-426.667-426.667-426.667zM695.168 627.499l-225.835-225.835-97.835 97.835c-16.683 16.683-43.648 16.683-60.331 0s-16.683-43.648 0-60.331l128-128c8.32-8.32 19.243-12.501 30.165-12.501s21.845 4.181 30.165 12.501l256 256c16.683 16.683 16.683 43.648 0 60.331s-43.648 16.683-60.331 0z" />
<glyph unicode="&#xe63c;" glyph-name="circle-plus-add" d="M512 1024c-282.325 0-512-229.675-512-512s229.675-512 512-512c282.325 0 512 229.675 512 512s-229.675 512-512 512zM512 85.333c-235.264 0-426.667 191.403-426.667 426.667s191.403 426.667 426.667 426.667c235.264 0 426.667-191.403 426.667-426.667s-191.403-426.667-426.667-426.667zM768 554.667h-213.333v213.333c0 23.552-19.072 42.667-42.667 42.667-23.552 0-42.667-19.115-42.667-42.667v-213.333h-213.333c-23.552 0-42.667-19.115-42.667-42.667 0-23.595 19.115-42.667 42.667-42.667h213.333v-213.333c0-23.595 19.115-42.667 42.667-42.667 23.595 0 42.667 19.072 42.667 42.667v213.333h213.333c23.595 0 42.667 19.072 42.667 42.667 0 23.552-19.072 42.667-42.667 42.667z" />
<glyph unicode="&#xe63d;" glyph-name="circle-cancel-close-exit" d="M512 1024c-282.325 0-512-229.675-512-512s229.675-512 512-512c282.325 0 512 229.675 512 512s-229.675 512-512 512zM512 85.333c-235.264 0-426.667 191.403-426.667 426.667s191.403 426.667 426.667 426.667c235.264 0 426.667-191.403 426.667-426.667s-191.403-426.667-426.667-426.667zM723.157 723.157c-16.683 16.683-43.648 16.683-60.331 0l-150.827-150.827-150.869 150.827c-16.683 16.683-43.691 16.683-60.331 0s-16.683-43.648 0-60.331l150.827-150.827-150.827-150.869c-16.683-16.683-16.683-43.648 0-60.331 8.32-8.32 19.243-12.501 30.165-12.501s21.845 4.181 30.165 12.501l150.869 150.869 150.869-150.869c8.32-8.32 19.243-12.501 30.165-12.501s21.845 4.181 30.165 12.501c16.683 16.683 16.683 43.648 0 60.331l-150.869 150.869 150.827 150.869c16.683 16.64 16.683 43.648 0 60.288z" />
<glyph unicode="&#xe63e;" glyph-name="location-inactive" d="M981.333 554.667h-87.851c-19.712 177.664-161.152 319.061-338.816 338.816v87.851c0 23.552-19.072 42.667-42.667 42.667s-42.667-19.115-42.667-42.667v-87.851c-177.664-19.755-319.104-161.152-338.816-338.816h-87.851c-23.595 0-42.667-19.115-42.667-42.667s19.072-42.667 42.667-42.667h87.851c19.755-177.664 161.152-319.104 338.816-338.816v-87.851c0-23.595 19.072-42.667 42.667-42.667s42.667 19.072 42.667 42.667v87.851c177.664 19.755 319.104 161.152 338.816 338.816h87.851c23.595 0 42.667 19.115 42.667 42.667s-19.072 42.667-42.667 42.667zM512 213.333c-164.651 0-298.667 134.016-298.667 298.667 0 164.693 134.016 298.667 298.667 298.667s298.667-133.973 298.667-298.667c0-164.651-134.016-298.667-298.667-298.667zM512 682.667c-94.123 0-170.667-76.544-170.667-170.667 0-94.080 76.544-170.667 170.667-170.667s170.667 76.587 170.667 170.667c0 94.123-76.544 170.667-170.667 170.667zM512 426.667c-47.061 0-85.333 38.229-85.333 85.333 0 47.061 38.272 85.333 85.333 85.333s85.333-38.272 85.333-85.333c0-47.104-38.272-85.333-85.333-85.333z" />
<glyph unicode="&#xe63f;" glyph-name="location-active" d="M981.333 554.667h-87.851c-19.712 177.707-161.109 319.104-338.816 338.859v87.808c0 23.552-19.072 42.667-42.667 42.667s-42.667-19.115-42.667-42.667v-87.808c-177.707-19.755-319.104-161.152-338.816-338.859h-87.851c-23.595 0-42.667-19.115-42.667-42.667s19.072-42.667 42.667-42.667h87.851c19.797-177.664 161.152-319.019 338.816-338.731v-87.936c0-23.595 19.072-42.667 42.667-42.667s42.667 19.072 42.667 42.667v87.936c177.664 19.755 319.061 161.067 338.816 338.731h87.851c23.595 0 42.667 19.115 42.667 42.667s-19.072 42.667-42.667 42.667zM512 213.376c-164.651 0-298.667 133.973-298.667 298.667 0 164.608 133.931 298.667 298.496 298.667 0.085-0.043 0.085-0.043 0.171-0.043s0.085 0.043 0.171 0.043c164.565-0.085 298.496-134.059 298.496-298.667 0-164.693-134.016-298.667-298.667-298.667zM512 725.376c-117.632 0-213.333-95.701-213.333-213.333s95.701-213.333 213.333-213.333 213.333 95.701 213.333 213.333-95.701 213.333-213.333 213.333z" />
<glyph unicode="&#xe640;" glyph-name="ProjectX-car" d="M1014.4 569.557c-7.168 21.589-32.896 37.888-59.819 37.888h-277.717c-11.307 0-24.448 9.899-27.563 20.779l-15.659 54.784c-7.381 25.771-34.133 45.909-60.928 45.909h-69.419c-22.528 0-54.656-10.112-73.131-23.040l-116.608-81.664c-13.397-9.301-39.211-19.541-55.339-21.803l-174.293-24.917c-23.979-3.456-51.328-20.011-63.659-38.485-11.349-17.067-20.267-48-20.267-70.443v-34.645c0-28.757 23.381-52.096 52.096-52.096h72.576c11.776-49.664 56.405-86.741 109.611-86.741 53.248 0 97.877 37.077 109.653 86.741h353.451c11.776-49.664 56.405-86.741 109.611-86.741s97.877 37.077 109.653 86.741h37.888c26.923 0 52.608 16.256 59.819 37.931 5.419 16.085 9.643 45.141 9.643 66.261v17.323c0 21.077-4.224 50.133-9.6 66.219zM989.312 486.016c0-17.323-3.541-42.667-7.808-55.253-1.877-5.675-13.568-14.251-26.923-14.251h-69.419c0 0 0 0 0-8.661 0-43.008-35.029-78.080-78.123-78.080-43.051 0-78.080 35.072-78.080 78.080 0 8.661 0 8.661 0 8.661h-416.555c0 0 0 0 0-8.661 0-43.008-35.029-78.080-78.123-78.080-43.051 0-78.080 35.072-78.080 78.080 0 8.661 0 8.661 0 8.661h-104.107c-9.6 0-17.365 7.851-17.365 17.408v34.645c0 15.744 6.741 39.595 14.464 51.2 6.784 10.197 25.771 21.333 39.723 23.339l174.251 24.917c21.589 3.072 52.437 15.232 70.315 27.733l116.651 81.707c12.757 8.917 37.632 16.768 53.205 16.768h69.419c11.307 0 24.448-9.899 27.563-20.736l15.659-54.827c7.381-25.771 34.133-45.952 60.928-45.952h277.717c13.312 0 25.045-8.533 26.923-14.165 4.267-12.629 7.808-37.931 7.808-55.253v-17.28z" />
<glyph unicode="&#xe641;" glyph-name="ProjectX-trailer" d="M1023.317 435.413l-39.040 292.907c-5.675 42.411-43.605 75.648-86.4 75.648h-504.363c-42.795 0-80.768-33.237-86.4-75.648l-39.040-292.907c-2.091-15.787-17.877-29.568-33.792-29.568h-207.744c-14.677 0-26.539-11.904-26.539-26.539s11.861-26.539 26.539-26.539h21.888v-106.197c0-14.677 11.861-26.539 26.539-26.539s26.539 11.861 26.539 26.539v106.197h402.987c18.091-75.947 86.315-132.693 167.765-132.693 81.365 0 149.632 56.747 167.723 132.693h111.019c21.547 0 41.771 8.917 55.381 24.491s19.797 36.779 16.939 58.155zM966.4 412.245c-3.627-4.139-9.131-6.4-15.445-6.4h-159.275c0 0 0 0 0-13.269 0-65.877-53.589-119.467-119.424-119.467-65.877 0-119.467 53.589-119.467 119.467 0 13.269 0 13.269 0 13.269h-238.464c3.115 7.083 5.248 14.677 6.315 22.571l39.040 292.907c2.091 15.744 17.92 29.611 33.835 29.611h504.363c15.915 0 31.701-13.824 33.792-29.568l39.040-292.949c0.853-6.315-0.683-12.075-4.309-16.171z" />
<glyph unicode="&#xe642;" glyph-name="ProjectX-05-million" d="M748.032 258.432c-42.283-12.629-114.603-17.92-236.075-17.92s-193.749 5.291-235.989 17.92c-16.64-7.765-16.683-16.341-16.683-23.509 0-17.621 0-44.331 252.672-44.331 252.757 0 252.757 26.709 252.757 44.331 0 7.168-0.085 15.744-16.683 23.509zM748.032 347.051c-42.283-12.587-114.603-17.877-236.075-17.877s-193.749 5.291-235.989 17.877c-16.64-7.723-16.683-16.299-16.683-23.467 0-17.664 0-44.331 252.672-44.331 252.757 0 252.757 26.667 252.757 44.331 0 7.168-0.085 15.744-16.683 23.467zM748.032 432.384c-42.283-12.587-114.603-17.877-236.075-17.877s-193.749 5.291-235.989 17.877c-16.64-7.723-16.683-16.299-16.683-23.467 0-17.664 0-44.331 252.672-44.331 252.757 0 252.757 26.667 252.757 44.331 0 7.168-0.085 15.744-16.683 23.467zM511.957 541.909c-252.672 0-252.672-26.667-252.672-44.331s0-44.331 252.672-44.331c252.757 0 252.757 26.667 252.757 44.331s0 44.331-252.757 44.331z" />
<glyph unicode="&#xe643;" glyph-name="ProjectX-10-million" d="M920.917 568.704c-42.24-12.587-114.517-17.877-235.989-17.877s-193.792 5.333-236.075 17.877c-16.64-7.723-16.64-16.299-16.64-23.424 0-17.664 0-44.331 252.715-44.331 252.672 0 252.672 26.667 252.672 44.331 0 7.083 0 15.659-16.683 23.424zM920.917 658.517c-42.24-12.587-114.517-17.877-235.989-17.877s-193.792 5.333-236.075 17.877c-16.64-7.723-16.64-16.299-16.64-23.424 0-17.664 0-44.331 252.715-44.331 252.672 0 252.672 26.667 252.672 44.331 0 7.083 0 15.659-16.683 23.424zM684.928 679.381c252.672 0 252.672 26.667 252.672 44.331s0 44.331-252.672 44.331c-252.715 0-252.715-26.667-252.715-44.331s0-44.331 252.715-44.331zM575.147 258.432c-42.283-12.629-114.56-17.92-236.075-17.92-121.472 0-193.749 5.291-236.032 17.92-16.64-7.765-16.64-16.341-16.64-23.509 0-17.621 0-44.331 252.672-44.331 252.715 0 252.715 26.709 252.715 44.331 0.043 7.168-0.043 15.744-16.64 23.509zM575.147 347.051c-42.283-12.587-114.56-17.877-236.075-17.877-121.472 0-193.749 5.291-236.032 17.877-16.64-7.723-16.64-16.299-16.64-23.467 0-17.664 0-44.331 252.672-44.331 252.715 0 252.715 26.667 252.715 44.331 0.043 7.168-0.043 15.744-16.64 23.467zM920.917 391.381c-42.24-12.629-114.517-17.877-235.989-17.877-23.509 0-44.672 0.256-64.597 0.683-1.664-2.347-3.669-4.48-5.845-6.571 11.563-11.52 16-25.771 16.085-43.52 16.683-0.341 34.645-0.512 54.315-0.512 252.672 0 252.672 26.667 252.672 44.331 0.043 7.168 0.043 15.744-16.64 23.467zM920.917 480.043c-42.24-12.629-114.517-17.92-235.989-17.92-28.757 0-54.485 0.341-77.995 0.939 17.835-12.501 23.595-28.971 23.68-50.347 16.683-0.341 34.645-0.512 54.315-0.512 252.672 0 252.672 26.667 252.672 44.331 0 7.168 0 15.787-16.683 23.509zM339.115 456.576c-252.672 0-252.672-26.667-252.672-44.331s0-44.331 252.672-44.331c252.715 0 252.715 26.667 252.715 44.331s0 44.331-252.715 44.331z" />
<glyph unicode="&#xe644;" glyph-name="ProjectX-20-million" d="M252.672 567.424c252.672 0 252.672 26.667 252.672 44.331 0 7.125 0 15.701-16.64 23.424-42.283-12.587-114.517-17.877-236.032-17.877s-193.749 5.291-236.032 17.877c-16.64-7.723-16.64-16.299-16.64-23.424 0-17.664 0-44.331 252.672-44.331zM252.672 656.085c252.672 0 252.672 26.667 252.672 44.331 0 7.125 0 15.701-16.64 23.424-42.283-12.587-114.56-17.92-236.032-17.92s-193.749 5.333-236.032 17.92c-16.64-7.723-16.64-16.299-16.64-23.424 0-17.664 0-44.331 252.672-44.331zM252.672 744.747c252.672 0 252.672 26.667 252.672 44.331s0 44.331-252.672 44.331c-252.672 0-252.672-26.667-252.672-44.331s0-44.331 252.672-44.331zM1007.36 568.704c-42.283-12.587-114.56-17.877-236.032-17.877s-193.749 5.333-236.032 17.877c-16.64-7.723-16.64-16.299-16.64-23.424 0-17.664 0-44.331 252.672-44.331 252.672-0.043 252.672 26.624 252.672 44.288 0 7.125 0 15.701-16.64 23.467zM771.328 589.568c252.672 0 252.672 26.667 252.672 44.331s0 44.331-252.672 44.331c-252.672 0-252.672-26.667-252.672-44.331s0-44.331 252.672-44.331zM661.589 258.432c-42.24-12.629-114.56-17.92-236.032-17.92s-193.749 5.291-236.032 17.92c-16.64-7.765-16.64-16.341-16.64-23.509 0-17.621 0-44.331 252.672-44.331 252.715 0 252.715 26.709 252.715 44.331-0.043 7.168-0.043 15.744-16.683 23.509zM196.309 479.275c43.093 11.307 113.877 16.085 229.248 16.085 18.005 0 34.603-0.128 50.517-0.384 29.227 8.747 29.312 19.499 29.312 28.075 0 7.125 0 15.744-16.64 23.424-42.283-12.587-114.56-17.877-236.032-17.877s-193.749 5.333-236.032 17.877c-16.683-7.68-16.683-16.256-16.683-23.381 0-16.256 0.171-40.064 196.309-43.819zM661.589 347.051c-42.24-12.587-114.56-17.877-236.032-17.877s-193.749 5.291-236.032 17.877c-16.64-7.723-16.64-16.299-16.64-23.467 0-17.664 0-44.331 252.672-44.331 252.715 0 252.715 26.667 252.715 44.331-0.043 7.168-0.043 15.744-16.683 23.467zM16.64 457.856c-16.64-7.68-16.64-16.299-16.64-23.424 0-14.336 0-34.645 136.192-41.771-1.408 6.016-2.091 12.501-2.091 19.584 0 11.307 1.536 21.205 5.504 29.909-56.533 2.603-95.957 7.68-122.965 15.701zM1007.36 391.381c-42.283-12.629-114.56-17.877-236.032-17.877-23.509 0-44.672 0.256-64.597 0.683-1.664-2.347-3.669-4.48-5.845-6.571 11.563-11.52 16-25.771 16.085-43.52 16.725-0.341 34.645-0.512 54.315-0.512 252.715 0 252.715 26.667 252.715 44.331 0 7.168 0 15.744-16.64 23.467zM1007.36 480.043c-42.283-12.629-114.56-17.92-236.032-17.92-28.757 0-54.485 0.341-77.952 0.939 17.792-12.501 23.552-28.971 23.637-50.347 16.725-0.341 34.645-0.512 54.315-0.512 252.672 0.043 252.672 26.709 252.672 44.373 0 7.125 0 15.744-16.64 23.467zM425.557 456.576c-252.672 0-252.672-26.667-252.672-44.331s0-44.331 252.672-44.331c252.715 0 252.715 26.667 252.715 44.331s-0.043 44.331-252.715 44.331z" />
<glyph unicode="&#xe645;" glyph-name="EasySure-quick-quote" d="M170.667 213.333c0-23.595 19.072-42.667 42.667-42.667h213.333v85.333h-213.333c-23.595 0-42.667-19.072-42.667-42.667zM426.667 394.368l32.299 32.299h-245.632c-23.595 0-42.667-19.072-42.667-42.667s19.072-42.667 42.667-42.667h213.333v53.035zM629.632 597.333h-416.299c-23.595 0-42.667-19.072-42.667-42.667s19.072-42.667 42.667-42.667h330.965l85.333 85.333zM1011.499 542.165l-128 128.043c-7.979 8.021-18.816 12.501-30.165 12.501s-22.187-4.48-30.165-12.501l-298.667-298.667c-8.021-7.979-12.501-18.816-12.501-30.165v-128.043c0-23.595 19.072-42.667 42.667-42.667h128c11.349 0 22.187 4.48 30.165 12.501l298.667 298.667c16.683 16.683 16.683 43.648 0 60.331zM597.333 256v67.712l67.669-67.712h-67.669zM725.333 316.331l-67.669 67.712 195.669 195.669 67.669-67.712-195.669-195.669zM725.333 85.333h-640v853.333h341.333v-213.333c0-23.595 19.072-42.667 42.667-42.667h256c23.595 0 42.667 19.072 42.667 42.667v42.752c0 11.349-4.48 22.187-12.501 30.165l-213.291 213.248c-7.979 8.021-18.859 12.501-30.165 12.501h-469.376c-23.595 0-42.667-19.072-42.667-42.667v-938.667c0-23.595 19.072-42.667 42.667-42.667h682.667c23.595 0 42.667 19.072 42.667 42.667s-19.072 42.667-42.667 42.667zM665.088 768h-153.088v153.045l153.088-153.045z" />
<glyph unicode="&#xe646;" glyph-name="EasySure-travel-time" d="M647.979 463.445l-55.040 99.499c-6.485 11.691-18.133 19.712-31.36 21.589-13.44 1.92-26.667-2.645-36.139-12.075l-169.088-169.088c-10.069-10.069-14.464-24.533-11.648-38.528 11.776-59.093 16.128-126.592 9.515-144.64l-3.157-3.157-91.904 137.771c-2.389 3.584-5.589 6.144-8.704 8.704-1.152 0.939-1.877 2.304-3.115 3.115l-0.043 0.043c-0.085 0.043-0.171 0.085-0.256 0.171l-137.429 91.563 3.115 3.115c18.091 6.528 85.589 2.304 144.768-9.515 13.739-2.731 28.416 1.579 38.485 11.648l169.088 169.131c9.472 9.472 13.909 22.784 12.075 36.053s-9.771 24.875-21.461 31.36l-258.261 144.085-15.616 48.341 3.669 3.669c4.48 1.877 26.283 9.045 77.995-8.149 87.68-29.184 294.827-118.571 296.917-119.509 15.957-6.912 34.645-3.371 47.061 8.917 0 0 89.259 88.917 148.864 148.608 13.184 12.245 34.048 21.632 58.368-2.645 0.128-0.128 0.299-0.171 0.427-0.299s0.171-0.299 0.299-0.427c19.413-19.413 21.248-37.888 5.973-54.357l-150.827-150.827c-12.331-12.331-15.915-30.976-9.045-47.019 0.555-1.323 36.651-85.589 70.443-169.472 25.088 6.869 51.413 10.88 78.72 10.88 3.029 0 6.016-0.384 9.003-0.469-25.216 63.36-53.205 130.048-68.437 166.101l130.475 130.475c34.005 34.005 60.459 108.629-5.973 175.061-0.128 0.128-0.299 0.171-0.427 0.299s-0.171 0.299-0.299 0.427c-66.133 66.219-142.848 38.315-178.475 3.285-42.325-42.453-99.029-98.944-128.896-128.768-59.904 25.515-204.459 86.485-277.205 110.72-107.691 35.755-152.448 0.768-162.987-10.155l-24.405-24.405c-11.392-11.307-15.403-28.075-10.453-43.307l28.8-89.173c3.285-10.24 10.368-18.859 19.797-24.107l223.659-124.757-113.237-113.237c-74.965 13.099-162.304 18.731-196.992-15.915l-42.069-42.069c-9.045-9.045-13.525-21.675-12.288-34.389s8.149-24.192 18.773-31.275l173.909-115.925 115.968-173.952c7.083-10.624 18.603-17.536 31.275-18.773 1.408-0.128 2.816-0.213 4.224-0.213 11.264 0 22.144 4.437 30.165 12.501l42.112 42.112c34.688 34.688 29.099 121.984 15.915 196.907l113.067 113.067 36.779-66.475c18.859 22.315 40.96 41.813 65.536 57.856zM810.667 426.667c-117.632 0-213.333-95.701-213.333-213.333s95.701-213.333 213.333-213.333 213.333 95.701 213.333 213.333-95.701 213.333-213.333 213.333zM810.667 85.333c-70.571 0-128 57.429-128 128s57.429 128 128 128 128-57.429 128-128-57.429-128-128-128zM853.333 230.997v25.003c0 23.595-19.072 42.667-42.667 42.667s-42.667-19.072-42.667-42.667v-42.667c0-11.349 4.48-22.187 12.501-30.165l42.667-42.667c8.32-8.32 19.243-12.501 30.165-12.501s21.845 4.181 30.165 12.501c16.683 16.683 16.683 43.648 0 60.331l-30.165 30.165z" />
<glyph unicode="&#xe647;" glyph-name="EasySure-depart-leave" d="M981.333 213.333h-938.667c-23.595 0-42.667-19.072-42.667-42.667s19.072-42.667 42.667-42.667h938.667c23.595 0 42.667 19.072 42.667 42.667s-19.072 42.667-42.667 42.667zM89.813 364.928c7.253-14.507 22.059-23.595 38.187-23.595 0.597 0 1.195 0 1.792 0 20.651 0 510.379 25.131 839.040 353.835 37.291 37.291 50.688 94.123 32.427 138.069-16.512 39.936-54.869 62.805-105.259 62.805-81.835 0-252.715-64.256-302.635-83.712l-201.003 40.192c-7.381 1.451-14.805 0.981-21.845-1.365l-128-42.667c-15.061-4.992-26.112-17.963-28.629-33.621s3.84-31.445 16.555-40.96l119.893-89.899-143.744-86.272-153.557 38.357c-15.915 4.096-33.152-1.707-43.605-14.677-10.411-13.013-12.331-30.891-4.864-45.781l85.248-170.709zM203.008 470.656c11.008-2.816 22.571-1.024 32.299 4.779l213.333 128c12.16 7.296 19.925 20.224 20.651 34.389 0.725 14.208-5.675 27.819-17.024 36.352l-105.515 79.147 40.021 13.312 202.197-40.448c8.192-1.579 16.597-0.853 24.192 2.219 57.259 22.869 219.648 82.304 282.837 82.304 10.155 0 22.955-1.749 26.411-10.112 4.437-10.624-0.128-31.232-13.909-45.056-262.571-262.571-649.984-316.672-755.157-326.741l-31.019 62.037 80.683-20.181z" />
<glyph unicode="&#xe648;" glyph-name="EasySure-arrive" d="M981.333 128h-938.667c-23.595 0-42.667 19.072-42.667 42.667s19.072 42.667 42.667 42.667h938.667c23.595 0 42.667-19.072 42.667-42.667s-19.072-42.667-42.667-42.667zM882.645 298.667c-0.427 0-3.541 0-3.968 0-464.64 0-818.048 349.653-832.853 364.16-12.032 11.733-16.043 27.435-10.24 43.221l65.707 178.133c5.717 15.616 20.053 25.984 36.651 27.349 16.384 1.323 32.427-7.424 40.576-21.973l77.312-138.197 161.365-45.483-16.683 148.821c-1.749 15.744 5.376 31.189 18.475 40.064 13.141 8.917 30.080 9.813 44.117 2.261l118.827-63.872c6.528-3.541 12.032-8.704 16-15.019l108.501-173.909c48.427-22.955 212.395-103.339 268.459-162.901 34.048-36.139 43.904-75.179 27.051-114.219-18.389-42.667-67.499-68.437-119.296-68.437zM125.568 701.525c79.403-69.632 391.168-314.581 762.325-325.675l4.736-0.555 3.371 0.555c0 0 29.909 10.837 34.347 20.992 3.499 8.149-7.339 18.645-14.208 25.941-43.349 46.037-199.595 123.52-255.488 149.461-7.509 3.499-14.72 9.088-19.072 16.128l-109.568 174.976-37.333 19.968 14.635-131.072c1.579-14.080-4.011-28.075-14.848-37.291-10.88-9.173-25.515-12.203-39.211-8.533l-239.531 67.456c-10.88 3.072-20.139 10.368-25.643 20.267l-40.619 72.533-23.893-65.152z" />
<glyph unicode="&#xe649;" glyph-name="tag" d="M903.253 1024h-213.333c-57.813 0-135.083-31.787-175.872-72.277l-434.005-430.848c-49.877-49.536-49.877-130.133 0-179.669l263.339-261.419c24.107-23.851 56.277-37.12 90.496-37.12s66.432 13.269 90.496 37.12l430.336 430.848c41.643 41.216 69.291 116.267 69.291 174.549v211.755c0 70.059-50.176 127.061-120.747 127.061zM938.667 685.184c0-35.115-19.157-89.771-44.245-114.645l-432.171-430.848c-16-15.872-43.435-15.872-59.435 0l-262.869 261.376c-16.64 16.555-16.384 43.435 0.213 59.904l434.133 430.549c25.045 24.832 80.213 47.147 115.627 47.147h213.333c23.509 0 35.413-18.389 35.413-41.728v-211.755zM817.92 727.552c0-46.775-38.205-84.693-85.333-84.693s-85.333 37.918-85.333 84.693c0 46.775 38.205 84.693 85.333 84.693s85.333-37.918 85.333-84.693z" />
<glyph unicode="&#xe64a;" glyph-name="tag-solid" d="M903.253 1024h-213.333c-57.813 0-135.083-31.787-175.872-72.277l-434.005-430.848c-49.877-49.536-49.877-130.133 0-179.669l263.339-261.419c24.107-23.851 56.277-37.12 90.496-37.12s66.432 13.269 90.496 37.12l430.336 430.848c41.643 41.216 69.291 116.267 69.291 174.549v211.755c0 70.059-50.176 127.061-120.747 127.061zM732.587 642.859c-47.147 0-85.333 37.931-85.333 84.693 0 46.805 38.187 84.693 85.333 84.693 47.104 0 85.333-37.931 85.333-84.693s-38.272-84.693-85.333-84.693z" />
<glyph unicode="&#xe64b;" glyph-name="Voice-positive" d="M513.493 1024c-282.325 0.811-512.64-228.267-513.493-510.549-0.811-282.283 228.224-512.64 510.549-513.451 282.325-0.853 512.64 228.224 513.451 510.507 0.853 282.283-228.181 512.64-510.507 513.493zM510.805 85.333c-235.264 0.683-426.155 192.597-425.472 427.861 0.725 235.307 192.683 426.155 427.904 425.472 235.264-0.725 426.155-192.64 425.429-427.904-0.683-235.307-192.64-426.155-427.861-425.429zM427.008 619.093c0-35.346-28.654-64-64-64s-64 28.654-64 64c0 35.346 28.654 64 64 64s64-28.654 64-64zM727.083 617.472c0-35.747-28.979-64.725-64.725-64.725s-64.725 28.979-64.725 64.725c0 35.747 28.979 64.725 64.725 64.725s64.725-28.979 64.725-64.725zM689.963 413.995c-48.256-46.891-111.317-72.661-177.621-72.661-0.299 0-0.555 0-0.811 0-66.645 0-129.835 25.216-178.048 72.576-16.896 16.469-43.819 17.365-60.373 0.555-16.512-16.853-16.256-42.667 0.555-59.264 64.213-62.976 148.608-99.2 237.611-99.2 0.341 0 0.725 0 1.024 0 88.619 0 172.8 33.195 237.056 95.616 16.896 16.469 17.323 46.805 0.896 63.659-16.427 16.939-43.52 15.061-60.288-1.28z" />
<glyph unicode="&#xe64c;" glyph-name="Voice-netural" d="M513.493 1024c-282.325 0.853-512.64-228.224-513.493-510.507-0.811-282.283 228.224-512.64 510.507-513.493 282.325-0.811 512.64 228.267 513.493 510.549s-228.181 512.597-510.507 513.451zM510.763 85.333c-235.264 0.725-426.112 192.64-425.429 427.904 0.725 235.307 192.683 426.112 427.904 425.429s426.112-192.64 425.429-427.904c-0.683-235.264-192.683-426.112-427.904-425.429zM427.008 619.136c0-35.346-28.654-64-64-64s-64 28.654-64 64c0 35.346 28.654 64 64 64s64-28.654 64-64zM727.083 617.515c0-35.747-28.979-64.725-64.725-64.725s-64.725 28.979-64.725 64.725c0 35.747 28.979 64.725 64.725 64.725s64.725-28.979 64.725-64.725zM724.949 383.104l-426.667 0.896c-0.043 0-0.085 0-0.128 0-23.509 0-42.581-19.328-42.667-42.837-0.085-23.595 18.944-40.747 42.539-40.832l426.667-1.664c0.043 0 0.085 0 0.128 0 23.509 0 42.581 18.56 42.667 42.069 0.085 23.595-18.944 42.283-42.539 42.368z" />
<glyph unicode="&#xe64d;" glyph-name="Voice-negative" d="M513.493 1024c-282.325 0.811-512.64-228.267-513.493-510.549s228.181-512.64 510.507-513.451c282.325-0.853 512.64 228.224 513.493 510.507s-228.181 512.64-510.507 513.493zM510.763 85.333c-235.264 0.683-426.112 192.597-425.429 427.861s192.683 426.155 427.904 425.472c235.264-0.725 426.112-192.64 425.429-427.904s-192.683-426.155-427.904-425.429zM426.965 619.093c0-35.346-28.654-64-64-64s-64 28.654-64 64c0 35.346 28.654 64 64 64s64-28.654 64-64zM727.083 617.472c0-35.747-28.979-64.725-64.725-64.725s-64.725 28.979-64.725 64.725c0 35.747 28.979 64.725 64.725 64.725s64.725-28.979 64.725-64.725zM511.744 426.667c-0.341 0-0.597 0-0.896 0-88.661 0-172.885-34.005-237.227-96.427-16.896-16.427-17.323-43.819-0.896-60.757 16.469-16.896 43.477-17.664 60.331-1.237 48.299 46.933 111.445 73.088 177.792 73.088 0.213 0 0.469 0 0.683 0 66.645 0 129.835-26.411 178.005-73.771 8.32-8.149 19.115-12.971 29.909-12.971 11.051 0 22.101 5.291 30.421 13.781 16.555 16.853 16.299 43.349-0.512 59.819-64.171 63.104-148.565 98.475-237.611 98.475z" />
<glyph unicode="&#xe64e;" glyph-name="Voice-indifferent" d="M513.493 1024c-282.325 0.853-512.64-228.224-513.493-510.507s228.181-512.64 510.507-513.493c282.325-0.811 512.64 228.267 513.493 510.549 0.853 282.24-228.181 512.597-510.507 513.451zM510.763 85.333c-235.264 0.725-426.112 192.64-425.429 427.904s192.683 426.112 427.904 425.429 426.112-192.64 425.429-427.904-192.683-426.112-427.904-425.429zM426.965 619.136c0-35.346-28.654-64-64-64s-64 28.654-64 64c0 35.346 28.654 64 64 64s64-28.654 64-64zM727.083 617.515c0-35.747-28.979-64.725-64.725-64.725s-64.725 28.979-64.725 64.725c0 35.747 28.979 64.725 64.725 64.725s64.725-28.979 64.725-64.725zM696.021 415.829c-60.843 18.389-130.005 5.803-205.739-37.504-54.016-30.848-100.437-41.045-137.557-30.208-38.955 11.264-56.32 42.539-57.387 44.501-10.667 20.736-36.096 29.013-57.045 18.688-21.077-10.539-29.611-36.181-19.072-57.259 3.285-6.571 34.304-65.024 107.563-87.253 18.091-5.461 36.907-8.192 56.405-8.192 46.123 0 96.171 15.232 149.419 45.653 54.059 30.848 100.181 41.003 137.472 30.293 39.381-11.392 56.704-43.264 57.216-44.117 10.496-21.077 36.224-29.525 57.259-19.072 21.077 10.539 29.611 36.181 19.072 57.259-3.285 6.528-34.347 65.067-107.605 87.211z" />
<glyph unicode="&#xe64f;" glyph-name="save-disk" d="M1011.499 798.208l-213.333 213.291c-7.979 8.021-18.816 12.501-30.165 12.501h-725.333c-23.595 0-42.667-19.115-42.667-42.667v-938.667c0-23.595 19.072-42.667 42.667-42.667h938.667c23.595 0 42.667 19.072 42.667 42.667v725.376c0 11.307-4.48 22.187-12.501 30.165zM341.333 938.667h341.333v-170.667h-341.333v170.667zM938.667 85.333h-853.333v853.333h170.667v-213.333c0-23.552 19.072-42.667 42.667-42.667h426.667c23.595 0 42.667 19.115 42.667 42.667v195.669l170.667-170.624v-665.045zM512.043 554.709c-94.123 0-170.709-76.544-170.709-170.667s76.587-170.667 170.709-170.667c102.144 0 170.709 68.565 170.709 170.667s-68.565 170.667-170.709 170.667zM512.043 298.709c-47.104 0-85.376 38.272-85.376 85.333s38.272 85.333 85.376 85.333c25.685 0 85.376-8.277 85.376-85.333s-59.691-85.333-85.376-85.333z" />
<glyph unicode="&#xe650;" glyph-name="page-www-world-wide-web" d="M512 1024c-282.325 0-512-229.675-512-512s229.675-512 512-512 512 229.717 512 512-229.675 512-512 512zM512 85.333c-235.264 0-426.667 191.403-426.667 426.667s191.403 426.667 426.667 426.667 426.667-191.403 426.667-426.667-191.403-426.667-426.667-426.667zM685.312 810.624c-15.787 0.896-29.696-6.272-38.187-18.901-33.067-49.579-77.141-99.797-94.976-108.715-26.411 4.011-118.443 43.861-191.787 80.555-16.469 8.192-36.267 5.035-49.237-8.021-68.395-68.395-157.013-248.491-3.157-440.832 8.363-10.411 20.736-16.043 33.365-16.043 6.443 0 13.013 1.493 19.072 4.48 27.861 13.952 114.133 50.133 177.536 50.133 14.251 0 26.112-1.792 35.413-5.291 15.915-14.336 54.912-44.587 99.797-44.587 22.229 0 63.573 8.021 90.325 61.483 38.4 76.843 62.208 212.437-42.667 422.187-6.784 13.653-20.309 22.571-35.499 23.552zM687.147 403.072c-7.168-14.336-12.117-14.336-13.995-14.336-12.885 0-34.859 14.848-45.653 25.429-3.243 3.243-6.997 5.973-11.093 8.021-21.845 10.923-48.256 16.469-78.464 16.469-66.133 0-140.757-26.667-182.656-44.203-85.291 127.915-33.707 232.96-2.389 277.717 62.549-30.251 161.707-74.837 201.771-74.837 38.059 0 81.28 39.509 119.168 86.229 55.253-139.819 39.211-228.693 13.312-280.491zM682.667 213.333c0-23.564-19.103-42.667-42.667-42.667s-42.667 19.103-42.667 42.667c0 23.564 19.103 42.667 42.667 42.667s42.667-19.103 42.667-42.667z" />
<glyph unicode="&#xe651;" glyph-name="media-stop" d="M896 938.667h-768c-23.595 0-42.667-19.115-42.667-42.667v-768c0-23.595 19.072-42.667 42.667-42.667h768c23.595 0 42.667 19.072 42.667 42.667v768c0 23.552-19.072 42.667-42.667 42.667zM853.333 170.667h-682.667v682.667h682.667v-682.667z" />
<glyph unicode="&#xe652;" glyph-name="media-rewind" d="M1000.704 891.435c-14.293 7.211-31.445 5.931-44.459-3.541l-401.579-292.053v257.579c0 16.043-9.003 30.72-23.296 38.016-14.293 7.211-31.445 5.931-44.459-3.541l-469.333-341.333c-11.051-7.979-17.579-20.821-17.579-34.475s6.528-26.496 17.579-34.517l469.333-341.333c7.424-5.419 16.256-8.149 25.088-8.149 6.613 0 13.269 1.536 19.371 4.651 14.293 7.253 23.296 21.973 23.296 38.016v257.579l401.579-292.096c7.424-5.419 16.256-8.149 25.088-8.149 6.613 0 13.269 1.536 19.371 4.651 14.293 7.253 23.296 21.973 23.296 38.016v682.667c0 16.043-9.003 30.72-23.296 38.016zM469.333 254.549l-354.133 257.536 354.133 257.536v-515.072zM938.667 254.549l-354.133 257.536 354.133 257.536v-515.072z" />
<glyph unicode="&#xe653;" glyph-name="media-previous" d="M916.821 890.667c-13.525 7.552-29.995 7.168-43.221-0.896l-489.6-301.312v222.208c0 23.552-19.072 42.667-42.667 42.667h-213.333c-23.595 0-42.667-19.115-42.667-42.667v-597.333c0-23.595 19.072-42.667 42.667-42.667h213.333c23.595 0 42.667 19.072 42.667 42.667v222.421l489.643-301.312c6.869-4.224 14.635-6.315 22.357-6.315 7.168 0 14.336 1.792 20.821 5.419 13.483 7.509 21.845 21.76 21.845 37.205v682.667c0 15.445-8.363 29.696-21.845 37.248zM298.667 256h-128v512h128v-512zM853.333 247.083l-430.592 265.003 430.592 264.96v-529.963z" />
<glyph unicode="&#xe654;" glyph-name="media-play" d="M883.072 589.568l-659.712 347.179c-17.195 9.088-34.56 13.696-51.541 13.696-50.901 0-86.485-39.893-86.485-97.024v-682.667c0-57.131 35.584-96.981 86.485-96.981 16.981 0 34.347 4.565 51.541 13.653l659.712 347.179c34.304 18.048 53.973 46.293 53.973 77.483s-19.669 59.477-53.973 77.483zM843.349 510.080l-659.712-347.179c-5.803-3.029-9.515-3.669-11.136-3.84-0.725 1.664-1.835 5.205-1.835 11.691v682.667c0 7.253 1.365 10.837 1.493 11.648 1.408-0.043 5.248-0.555 11.477-3.84l659.712-347.179c1.323-0.725 2.517-1.365 3.499-2.005-1.024-0.597-2.176-1.237-3.499-1.963z" />
<glyph unicode="&#xe655;" glyph-name="media-pause" d="M426.667 938.667h-213.333c-23.595 0-42.667-19.115-42.667-42.667v-768c0-23.595 19.072-42.667 42.667-42.667h213.333c23.595 0 42.667 19.072 42.667 42.667v768c0 23.552-19.072 42.667-42.667 42.667zM384 170.667h-128v682.667h128v-682.667zM810.667 938.667h-213.333c-23.595 0-42.667-19.115-42.667-42.667v-768c0-23.595 19.072-42.667 42.667-42.667h213.333c23.595 0 42.667 19.072 42.667 42.667v768c0 23.552-19.072 42.667-42.667 42.667zM768 170.667h-128v682.667h128v-682.667z" />
<glyph unicode="&#xe656;" glyph-name="media-next" d="M85.333 853.419v-682.667c0-15.445 8.363-29.696 21.845-37.248 6.485-3.627 13.653-5.419 20.821-5.419 7.765 0 15.488 2.133 22.357 6.315l489.643 301.355v-222.421c0-23.595 19.072-42.667 42.667-42.667h213.333c23.595 0 42.667 19.072 42.667 42.667v597.333c0 23.552-19.072 42.667-42.667 42.667h-213.333c-23.595 0-42.667-19.115-42.667-42.667v-222.208l-489.643 301.312c-13.227 8.107-29.653 8.448-43.221 0.896-13.44-7.552-21.803-21.803-21.803-37.248zM725.333 768h128v-512h-128v512zM170.667 777.045l430.592-264.96-430.592-265.003v529.963z" />
<glyph unicode="&#xe657;" glyph-name="media-fast-forward" d="M0 853.419v-682.667c0-16.043 9.003-30.763 23.296-38.016 6.101-3.115 12.757-4.651 19.371-4.651 8.832 0 17.664 2.731 25.088 8.149l401.579 292.096v-257.579c0-16.043 9.003-30.763 23.296-38.016 6.144-3.115 12.757-4.651 19.371-4.651 8.832 0 17.664 2.731 25.088 8.149l469.333 341.333c11.051 8.021 17.579 20.864 17.579 34.517s-6.528 26.496-17.579 34.517l-469.333 341.333c-13.013 9.472-30.165 10.752-44.459 3.541-14.293-7.339-23.296-22.016-23.296-38.059v-257.579l-401.579 292.096c-13.013 9.429-30.165 10.709-44.459 3.499-14.293-7.296-23.296-21.973-23.296-38.016zM554.667 769.621l354.133-257.536-354.133-257.536v515.072zM85.333 769.621l354.133-257.536-354.133-257.536v515.072z" />
<glyph unicode="&#xe658;" glyph-name="lock-un-secure" d="M469.333 85.333h-298.667v426.667h682.667v-42.667c0-23.595 19.072-42.667 42.667-42.667s42.667 19.072 42.667 42.667v85.333c0 23.552-19.072 42.667-42.667 42.667h-85.333v128.043c0 164.693-134.016 298.667-298.667 298.667-106.283 0-205.397-57.216-258.645-149.333-11.861-20.395-4.864-46.464 15.531-58.283 20.395-11.776 46.549-4.864 58.283 15.573 38.101 65.792 108.928 106.709 184.832 106.709 117.632 0 213.333-95.701 213.333-213.333v-128.043h-597.333c-23.595 0-42.667-19.115-42.667-42.667v-512c0-23.595 19.072-42.667 42.667-42.667h341.333c23.595 0 42.667 19.072 42.667 42.667s-19.072 42.667-42.667 42.667zM828.373 170.752l97.835 97.835c16.683 16.683 16.683 43.648 0 60.331s-43.648 16.683-60.331 0l-97.835-97.835-97.835 97.835c-16.683 16.683-43.648 16.683-60.331 0s-16.683-43.648 0-60.331l97.835-97.835-97.835-97.835c-16.683-16.683-16.683-43.648 0-60.331 8.32-8.32 19.243-12.501 30.165-12.501s21.845 4.181 30.165 12.501l97.835 97.835 97.835-97.835c8.32-8.32 19.243-12.501 30.165-12.501s21.845 4.181 30.165 12.501c16.683 16.683 16.683 43.648 0 60.331l-97.835 97.835z" />
<glyph unicode="&#xe659;" glyph-name="lock-secure" d="M896 597.333h-85.333v128.043c0 164.693-134.016 298.667-298.667 298.667s-298.667-133.973-298.667-298.667v-128.043h-85.333c-23.595 0-42.667-19.115-42.667-42.667v-512c0-23.595 19.072-42.667 42.667-42.667h768c23.595 0 42.667 19.072 42.667 42.667v512c0 23.552-19.072 42.667-42.667 42.667zM298.667 725.376c0 117.632 95.701 213.333 213.333 213.333s213.333-95.701 213.333-213.333v-128.043h-426.667v128.043zM853.333 85.333h-682.667v426.667h682.667v-426.667z" />
<glyph unicode="&#xe65a;" glyph-name="fax" d="M938.667 597.333h-85.333v298.752c0 12.971-5.888 25.216-16.043 33.323l-106.624 85.248c-7.552 6.059-16.939 9.344-26.624 9.344h-490.709c-23.595 0-42.667-19.115-42.667-42.667v-384h-85.333c-23.595 0-42.667-19.115-42.667-42.667v-341.333c0-23.595 19.072-42.667 42.667-42.667h85.333v-128c0-23.595 19.072-42.667 42.667-42.667h597.333c23.595 0 42.667 19.072 42.667 42.667v128h85.333c23.595 0 42.667 19.072 42.667 42.667v341.333c0 23.552-19.072 42.667-42.667 42.667zM256 938.667h433.067l78.933-63.104v-278.229h-512v341.333zM768 85.333h-512v85.333h512v-85.333zM896 256h-768v256h768v-256zM256 341.333h128c23.595 0 42.667 19.072 42.667 42.667s-19.072 42.667-42.667 42.667h-128c-23.595 0-42.667-19.072-42.667-42.667s19.072-42.667 42.667-42.667zM789.333 341.333c11.52 0 22.187 4.267 29.867 12.373 8.491 8.107 12.8 18.773 12.8 30.293 0 11.093-4.693 22.187-12.373 29.867-15.787 16.213-44.373 16.213-60.587 0.427-7.723-8.107-12.373-19.2-12.373-30.293 0-11.52 4.267-22.187 12.373-30.293 8.064-8.107 18.731-12.373 30.293-12.373zM640 853.333h-298.667c-23.595 0-42.667-19.115-42.667-42.667s19.072-42.667 42.667-42.667h298.667c23.595 0 42.667 19.115 42.667 42.667s-19.072 42.667-42.667 42.667zM554.667 725.333h-213.333c-23.595 0-42.667-19.115-42.667-42.667s19.072-42.667 42.667-42.667h213.333c23.595 0 42.667 19.115 42.667 42.667s-19.072 42.667-42.667 42.667z" />
<glyph unicode="&#xe65b;" glyph-name="download-alt-circle" d="M640 298.667h-256c-23.595 0-42.667-19.072-42.667-42.667s19.072-42.667 42.667-42.667h256c23.595 0 42.667 19.072 42.667 42.667s-19.072 42.667-42.667 42.667zM512.043 1024c-282.325 0-512-229.675-512-512s229.675-512 512-512 512 229.675 512 512c0 282.325-229.675 512-512 512zM512.043 85.333c-235.264 0-426.667 191.403-426.667 426.667 0 220.843 168.704 402.987 383.957 424.491v-424.96l-162.987 161.067c-16.725 16.469-43.989 16.384-60.544-0.171l-2.261-2.261c-16.597-16.597-16.597-43.733 0-60.331l238.336-238.336c16.597-16.597 43.733-16.597 60.331 0l238.336 238.336c16.597 16.597 16.597 43.733 0 60.331l-2.261 2.261c-16.597 16.597-43.819 16.683-60.544 0.171l-163.072-161.152v425.045c215.339-21.461 384.043-203.605 384.043-424.491 0-235.264-191.403-426.667-426.667-426.667z" />
<glyph unicode="&#xe65c;" glyph-name="device-tv" d="M981.333 896h-938.667c-23.595 0-42.667-19.115-42.667-42.667v-512c0-23.595 19.072-42.667 42.667-42.667h426.667v-42.667c0-0.597 0.341-1.067 0.341-1.664-112.768-7.851-186.624-43.776-190.080-45.483-21.077-10.539-29.611-36.181-19.072-57.259 10.581-21.077 36.224-29.568 57.259-19.072 0.725 0.384 77.653 38.144 194.219 38.144 115.243 0 193.621-37.845 194.261-38.187 6.101-3.072 12.629-4.48 19.029-4.48 15.659 0 30.72 8.619 38.229 23.595 10.539 21.077 2.005 46.72-19.072 57.259-3.456 1.707-77.312 37.675-190.080 45.483-0.043 0.597 0.299 1.067 0.299 1.664v42.667h426.667c23.595 0 42.667 19.072 42.667 42.667v512c0 23.552-19.072 42.667-42.667 42.667zM938.667 384h-853.333v426.667h853.333v-426.667z" />
<glyph unicode="&#xe65d;" glyph-name="device-tablet" d="M896 896h-768c-70.571 0-128-57.429-128-128v-512c0-70.571 57.429-128 128-128h768c70.571 0 128 57.429 128 128v512c0 70.571-57.429 128-128 128zM938.667 768v-213.333h-42.667v256c23.552 0 42.667-19.157 42.667-42.667zM85.333 256v512c0 23.509 19.115 42.667 42.667 42.667v-597.333c-23.552 0-42.667 19.157-42.667 42.667zM213.333 213.333v597.333h597.333v-597.333h-597.333zM896 213.333v256h42.667v-213.333c0-23.509-19.115-42.667-42.667-42.667z" />
<glyph unicode="&#xe65e;" glyph-name="device-phone" d="M640 1024h-256c-94.123 0-170.667-76.544-170.667-170.667v-682.667c0-94.080 76.544-170.667 170.667-170.667h256c94.123 0 170.667 76.587 170.667 170.667v682.667c0 94.123-76.544 170.667-170.667 170.667zM298.667 213.333v597.333h426.667v-597.333h-426.667zM384 938.667h256c31.403 0 58.667-17.28 73.472-42.667h-402.944c14.805 25.387 42.069 42.667 73.472 42.667zM310.528 128h158.805v-42.667h-85.333c-31.403 0-58.667 17.28-73.472 42.667zM640 85.333h-85.333v42.667h158.805c-14.805-25.387-42.069-42.667-73.472-42.667z" />
<glyph unicode="&#xe65f;" glyph-name="device-laptop" d="M1016.064 153.899l-120.064 240.171v501.931c0 23.552-19.072 42.667-42.667 42.667h-682.667c-23.595 0-42.667-19.115-42.667-42.667v-501.931l-123.52-246.997c-6.613-13.269-5.931-28.928 1.877-41.515s21.504-20.224 36.309-20.224h938.667c0.341 0 0.64-0.043 0.853 0 23.595 0 42.667 19.072 42.667 42.667 0 9.771-3.285 18.731-8.789 25.899zM810.667 853.333v-426.667h-597.333v426.667h597.333zM111.701 170.667l85.291 170.667h630.016l85.291-170.667h-800.597zM768 298.667h-512c-23.595 0-42.667-19.072-42.667-42.667s19.072-42.667 42.667-42.667h512c23.595 0 42.667 19.072 42.667 42.667s-19.072 42.667-42.667 42.667z" />
<glyph unicode="&#xe660;" glyph-name="device-desktop" d="M128 512h341.333v-42.667h-128c-23.595 0-42.667-19.072-42.667-42.667s19.072-42.667 42.667-42.667h341.333c23.595 0 42.667 19.072 42.667 42.667s-19.072 42.667-42.667 42.667h-128v42.667h341.333c23.595 0 42.667 19.115 42.667 42.667v426.667c0 23.552-19.072 42.667-42.667 42.667h-768c-23.595 0-42.667-19.115-42.667-42.667v-426.667c0-23.552 19.072-42.667 42.667-42.667zM170.667 938.667h682.667v-341.333h-682.667v341.333zM981.333 341.333h-938.667c-23.595 0-42.667-19.072-42.667-42.667v-256c0-23.595 19.072-42.667 42.667-42.667h938.667c23.595 0 42.667 19.072 42.667 42.667v256c0 23.595-19.072 42.667-42.667 42.667zM938.667 85.333h-853.333v170.667h853.333v-170.667zM213.333 170.667c0-23.564-19.103-42.667-42.667-42.667s-42.667 19.103-42.667 42.667c0 23.564 19.103 42.667 42.667 42.667s42.667-19.103 42.667-42.667zM341.333 170.667c0-23.564-19.103-42.667-42.667-42.667s-42.667 19.103-42.667 42.667c0 23.564 19.103 42.667 42.667 42.667s42.667-19.103 42.667-42.667zM640 128h213.333c23.595 0 42.667 19.072 42.667 42.667s-19.072 42.667-42.667 42.667h-213.333c-23.595 0-42.667-19.072-42.667-42.667s19.072-42.667 42.667-42.667z" />
<glyph unicode="&#xe661;" glyph-name="EasySure-pds-product" d="M988.416 767.445l-92.416 15.616v155.605c0 23.595-19.072 42.667-42.667 42.667h-127.915c-97.152 0-171.861-59.733-213.376-103.083-41.515 43.349-116.224 103.083-213.376 103.083h-128c-23.595 0-42.667-19.072-42.667-42.667v-153.813l-93.269-17.579c-20.139-3.755-34.731-21.376-34.731-41.899v-640c0-12.715 5.675-24.747 15.445-32.896 7.723-6.357 17.408-9.771 27.221-9.771 2.645 0 5.333 0.256 8.021 0.768l441.003 83.883 482.347-84.011c12.416-2.176 25.173 1.28 34.773 9.387s15.189 20.053 15.189 32.64v640c0 20.821-15.061 38.613-35.584 42.069zM725.419 896h85.248v-597.333h-85.248c-76.8 0-128.085-12.416-170.752-27.648v527.829c42.667 28.203 88.704 97.152 170.752 97.152zM213.333 896h85.333c82.517 0 128-68.821 170.667-97.067v-527.915c-42.667 15.232-93.867 27.648-170.667 27.648h-85.333v597.333zM85.333 690.005l42.667 8.021v-442.027c0-23.595 19.072-42.667 42.667-42.667h128c50.731 0 88.235-6.101 115.584-13.824l-328.917-62.592v553.088zM938.667 136.107l-340.992 59.264c27.904 9.6 68.395 17.963 127.744 17.963h127.915c23.595 0 42.667 19.072 42.667 42.667v440.448l42.667-7.168v-553.173z" />
<glyph unicode="&#xe662;" glyph-name="contact-email-phone" d="M896 1024h-554.667c-70.571 0-128-57.429-128-128v-32.299c2.091-1.835 4.395-3.243 6.357-5.205l78.976-79.147v106.667l226.688-181.376c26.155-20.949 59.733-31.403 93.312-31.403s67.115 10.496 93.312 31.403l226.688 181.333v-288.683c0-23.509-19.115-42.624-42.667-42.624h-471.424c-4.011 0-9.6-24.533-17.536-35.584-3.755-5.76-8.235-17.152-9.301-23.893l25.813-25.856h472.448c70.571 0 128 57.387 128 127.957v298.709c0 70.571-57.429 128-128 128zM658.645 771.285c-20.907-16.768-59.008-16.768-79.915 0l-209.237 167.381h498.389l-209.237-167.381zM626.773 331.008c-7.979 7.893-18.773 10.325-30.037 10.325-0.128 0-0.256 0-0.427 0-11.392 0-22.229-2.731-30.165-10.923-0.299-0.256-29.141-26.24-65.067-26.24-22.016 0-44.032 10.923-65.579 32.469l-99.029 98.987c-52.864 52.437-4.352 125.269 1.28 133.205 12.16 16.939 10.283 40.235-4.437 55.040l-173.995 174.336c-16.64 16.597-43.563 16.683-60.245 0.128-61.995-61.483-99.029-151.723-99.029-241.365 0-77.952 27.819-148.48 78.336-198.528l286.848-284.203c48.981-48.555 113.92-74.24 187.819-74.24h0.043c88.491 0 180.139 38.144 244.992 102.4 8.064 8.021 12.629 18.645 12.629 29.995 0 11.435-4.523 21.845-12.629 29.824l-171.307 168.789zM553.045 85.333c-35.499 0-86.443 8.576-127.744 49.493l-286.848 284.203c-34.261 33.92-53.077 82.901-53.077 137.941 0 52.736 16.896 105.6 46.379 148.053l118.016-118.229c-26.752-55.637-42.539-143.147 26.496-211.541l98.901-98.901c38.144-38.229 80.512-57.557 125.909-57.515 38.059 0 69.803 13.696 91.989 27.477l111.829-110.805c-44.8-31.915-99.157-50.176-151.851-50.176z" />
</font>
</defs>
</svg>
