<svg id="Layer_1" xmlns="http://www.w3.org/2000/svg" viewBox="0 0 240.8 202.8"><style>.st0{fill:#fff}</style><path class="st0" d="M212 125.8c0 6.5-1.5 12.7-4.5 18.2-15.4 27.7-66.2 30.1-112 4.4-45.9-25.7-70-69.8-54.6-97.5 15.4-27.7 65.6-29.2 111.5-3.5 2.1 1.2 2.2 1.1.1-.2C104.8 19 52 20.5 34.4 50.4c-17.6 29.9 6.6 77 54.1 105.2 47.5 28.2 100.3 26.8 117.9-3.2 4.7-7.8 6.4-17 5.6-26.6M88.8 69z"/><path class="st0" d="M104.3 117c-3.3.8-7.1 1.7-13.1 1.7-11.7 0-25.3-5.7-25.3-21.7 0-14.7 10.7-22 25.2-22 4.5 0 8.8 1 13.1 2.2l-.9 9.1c-3.8-2-7.5-3-11.5-3C83.4 83.3 78 89.1 78 97c0 8.3 6.1 13.3 14.7 13.3 3.9 0 7.8-1 11-2.2l.6 8.9m46.1-.2c-7.5 1.8-13 1.9-17.1 1.9-11.7 0-25.3-5.7-25.3-21.7 0-15.9 11.7-22.1 27.9-22.1 2.9 0 9 .3 13.3 1.9l-.9 9.2c-3.7-2.1-8-2.7-10.7-2.7-9.5 0-17.4 3.8-17.4 13.7 0 8.3 6.1 13.3 14.7 13.3 1.6 0 3.1-.2 4.2-.7v-8.4h-6.9v-8h18.3v23.6m47.2-14.9c0 11.6-8.1 16.8-19.9 16.8-11.8 0-19.9-5.2-19.9-16.8V75.7H170V100c0 5.6 1.6 10.3 7.8 10.3 6.2 0 7.8-4.7 7.8-10.3V75.7h12.1v26.2"/></svg>