<svg width="30" height="25" viewBox="0 0 30 25" xmlns="http://www.w3.org/2000/svg"><title>icon/calendar/white</title><path d="M27.5 5h-25V3.75c0-.69.56-1.25 1.25-1.25h22.5c.69 0 1.25.56 1.25 1.25V5zm-1.786 6.426a1.79 1.79 0 0 1-1.785-1.785c0-.981.804-1.786 1.785-1.786.982 0 1.786.805 1.786 1.786a1.79 1.79 0 0 1-1.786 1.785zm0 5.358a1.792 1.792 0 0 1-1.785-1.786 1.79 1.79 0 0 1 1.785-1.785 1.79 1.79 0 0 1 1.786 1.785c0 .98-.804 1.786-1.786 1.786zm-5.356-5.358a1.792 1.792 0 0 1-1.787-1.785c0-.981.805-1.786 1.787-1.786.982 0 1.786.805 1.786 1.786a1.79 1.79 0 0 1-1.786 1.785zm0 5.358a1.793 1.793 0 0 1-1.787-1.786c0-.982.805-1.785 1.787-1.785a1.79 1.79 0 0 1 1.786 1.785c0 .98-.804 1.786-1.786 1.786zm0 5.356a1.793 1.793 0 0 1-1.787-1.786c0-.982.805-1.785 1.787-1.785a1.79 1.79 0 0 1 1.786 1.785c0 .981-.804 1.786-1.786 1.786zM15 11.426a1.792 1.792 0 0 1-1.786-1.785c0-.981.805-1.786 1.786-1.786.982 0 1.787.805 1.787 1.786 0 .982-.806 1.785-1.787 1.785zm0 5.358a1.793 1.793 0 0 1-1.786-1.786c0-.982.805-1.785 1.786-1.785.982 0 1.787.803 1.787 1.785 0 .98-.806 1.786-1.787 1.786zm0 5.356a1.793 1.793 0 0 1-1.786-1.786c0-.982.805-1.785 1.786-1.785.982 0 1.787.803 1.787 1.785 0 .981-.806 1.786-1.787 1.786zM9.645 11.426a1.792 1.792 0 0 1-1.786-1.785c0-.981.805-1.786 1.786-1.786s1.786.805 1.786 1.786c0 .982-.805 1.785-1.786 1.785zm0 5.358a1.793 1.793 0 0 1-1.786-1.786c0-.982.805-1.785 1.786-1.785s1.786.803 1.786 1.785c0 .98-.805 1.786-1.786 1.786zm0 5.356a1.793 1.793 0 0 1-1.786-1.786c0-.982.805-1.785 1.786-1.785s1.786.803 1.786 1.785c0 .981-.805 1.786-1.786 1.786zM4.289 11.426a1.791 1.791 0 0 1-1.786-1.785c0-.981.803-1.786 1.786-1.786.981 0 1.785.805 1.785 1.786a1.79 1.79 0 0 1-1.785 1.785zm0 5.358a1.792 1.792 0 0 1-1.786-1.786 1.79 1.79 0 0 1 1.786-1.785 1.79 1.79 0 0 1 1.785 1.785c0 .98-.804 1.786-1.785 1.786zm0 5.356a1.792 1.792 0 0 1-1.786-1.786 1.79 1.79 0 0 1 1.786-1.785 1.79 1.79 0 0 1 1.785 1.785c0 .981-.804 1.786-1.785 1.786zM26.25 0H3.75A3.755 3.755 0 0 0 0 3.75v17.5A3.755 3.755 0 0 0 3.75 25h22.5A3.755 3.755 0 0 0 30 21.25V3.75A3.755 3.755 0 0 0 26.25 0z" fill="#FFF" fill-rule="evenodd"/></svg>