<svg width="31" height="28" viewBox="0 0 31 28" xmlns="http://www.w3.org/2000/svg" xmlns:xlink="http://www.w3.org/1999/xlink"><title>icon/emergency/white</title><defs><path id="a" d="M0 0h3v8H0z"/></defs><g fill="none" fill-rule="evenodd"><path d="M27.7 25.415h-2.6v-6.638C25.1 14.02 20.932 10 16 10c-4.932 0-9.1 4.02-9.1 8.777v6.638H4.3c-.719 0-1.3.58-1.3 1.293C3 27.422 3.581 28 4.3 28h23.4c.719 0 1.3-.578 1.3-1.292 0-.714-.581-1.293-1.3-1.293" fill="#FFF"/><g transform="translate(14)"><mask id="b" fill="#fff"><use xlink:href="#a"/></mask><path d="M1.5 8C2.33 8 3 7.404 3 6.667V1.333C3 .597 2.33 0 1.5 0S0 .597 0 1.333v5.334C0 7.404.67 8 1.5 8" fill="#FFF" mask="url(#b)"/></g><path d="M24.213 11c.311 0 .622-.119.858-.355l2.573-2.574a1.212 1.212 0 1 0-1.715-1.715L23.356 8.93a1.211 1.211 0 0 0 .857 2.07m-19.284-.355a1.21 1.21 0 0 0 1.715 0 1.211 1.211 0 0 0 0-1.715L4.071 6.356A1.212 1.212 0 1 0 2.356 8.07l2.573 2.574zM4 19.5c0-.828-.596-1.5-1.333-1.5H1.333C.596 18 0 18.672 0 19.5c0 .83.596 1.5 1.333 1.5h1.334C3.404 21 4 20.33 4 19.5M29.667 18h-1.334c-.737 0-1.333.672-1.333 1.5 0 .83.596 1.5 1.333 1.5h1.334c.737 0 1.333-.67 1.333-1.5 0-.828-.596-1.5-1.333-1.5" fill="#FFF"/></g></svg>