<svg id="Layer_1" xmlns="http://www.w3.org/2000/svg" viewBox="0 0 24 24"><title>arrow-2-left</title><style>.st0{fill:#fff}</style><path class="st0" d="M13 13.129v1.744c.65-.182 1.001-.533 1.001-.872s-.35-.69-1.001-.872zm-2.999-3.128c0 .338.35.688.999.87v-1.74c-.65.182-.999.532-.999.87z"/><path class="st0" d="M21.585.189a1 1 0 0 0-.901-.138L18 .946 15.317.05a1.001 1.001 0 0 0-.632 0L12 .946 9.317.05a1.001 1.001 0 0 0-.632 0L6 .946 3.316.05A.998.998 0 0 0 2 1v22a1 1 0 0 0 1.316.949L6 23.054l2.685.895c.205.068.427.068.632 0l2.684-.895 2.684.895c.205.068.427.068.632 0L18 23.054l2.684.895a1.007 1.007 0 0 0 .901-.138A1 1 0 0 0 22 23V1a1 1 0 0 0-.415-.811zM13 16.917v1.085a1 1 0 1 1-2 0v-1H9a1 1 0 1 1 0-2h2v-2.087C9.03 12.583 8.001 11.288 8.001 10S9.031 7.419 11 7.087V6.002a1 1 0 1 1 2 0v1h2a1 1 0 1 1 0 2h-2v2.083c1.97.331 3.001 1.628 3.001 2.916s-1.03 2.585-3.001 2.916z"/></svg>