<svg id="Layer_1" xmlns="http://www.w3.org/2000/svg" viewBox="0 0 24 24"><title>arrow-2-left</title><style>.st0{fill:#fff}</style><path class="st0" d="M22.979 17.196l-.878-.874a1 1 0 0 0-1.413 1.417l.878.874a1.461 1.461 0 0 1 0 2.081 1.49 1.49 0 0 1-2.1 0l-7.125-7.096c1.092-.766 1.994-.813 2.03-.814.541 0 .985-.445 1-.987 0-.057.052-1.4 1.462-2.802 1.337-1.332 2.99-1.05 3.049-1.04a1.002 1.002 0 0 0 .901-1.69C16.275 1.777 9.086 1.56 4.31 5.6l-.647-.645A1 1 0 0 0 2.25 6.371l.64.638A12.008 12.008 0 0 0 0 14.844a12.03 12.03 0 0 0 3.567 8.579.993.993 0 0 0 1.171.172c.387-.203.596-.64.518-1.069-.013-.07-.294-1.71 1.039-3.038 1.412-1.405 2.764-1.456 2.808-1.458.542 0 .985-.445 1-.987 0-.046.048-.946.82-2.035l7.132 7.103a3.476 3.476 0 0 0 2.462 1.014A3.478 3.478 0 0 0 24 19.654a3.45 3.45 0 0 0-1.021-2.458z"/></svg>