<svg width="715" height="237" viewBox="0 0 715 237" xmlns="http://www.w3.org/2000/svg"><title>Backed by IAG_Reverse_RGB</title><g fill="none" fill-rule="evenodd"><path d="M713.148 118.949c0 65.2-52.855 118.051-118.052 118.051-65.199 0-118.051-52.851-118.051-118.051C477.045 53.75 529.897.898 595.096.898c65.197 0 118.052 52.852 118.052 118.051" fill="#FFF"/><path d="M513.891 81.144h16.754V145h-16.754V81.144zm74.056 0h16.754V145h-16.754v-4.404a32.839 32.839 0 0 1-18.106 5.413c-18.23 0-33.004-14.775-33.004-33.001 0-18.227 14.774-33.005 33.004-33.005a32.841 32.841 0 0 1 18.106 5.416v-4.275zm-.241 31.864c0-9.853-8.015-17.868-17.865-17.868-9.853 0-17.868 8.015-17.868 17.868 0 9.852 8.015 17.864 17.868 17.864 9.85 0 17.865-8.012 17.865-17.864zm-65.438-56.159a9.37 9.37 0 0 0-9.37 9.37c0 5.171 4.195 9.367 9.37 9.367 5.174 0 9.367-4.196 9.367-9.367 0-5.175-4.193-9.37-9.367-9.37zm132.97 87.298c12.833-4.532 22.055-16.779 22.055-31.145 0-5.917-1.572-11.47-4.308-16.28h4.171v-16.74h-32.582c-.105 0-.206-.006-.308-.006-18.21 0-33.026 14.816-33.026 33.026 0 14.479 9.37 26.805 22.365 31.25-8.698 4.113-14.731 12.97-14.731 23.212 0 14.149 11.512 25.663 25.661 25.663 14.152 0 25.664-11.514 25.664-25.663 0-10.333-6.14-19.253-14.961-23.317m-28.655-31.145c0-9.751 7.933-17.686 17.683-17.686 9.751 0 17.687 7.935 17.687 17.686 0 9.751-7.936 17.684-17.687 17.684-9.75 0-17.683-7.933-17.683-17.684m17.952 64.783c-5.69 0-10.321-4.631-10.321-10.321 0-5.693 4.631-10.322 10.321-10.322 5.693 0 10.322 4.629 10.322 10.322 0 5.69-4.629 10.321-10.322 10.321" fill="#4C2A6C"/><path d="M0 58.987h9.299v21.997l-.228 9.978c4.988-4.423 11.111-7.71 17.234-7.71 14.287 0 21.882 10.998 21.882 28.005 0 18.822-11.223 29.821-23.81 29.821-5.103 0-10.883-2.496-15.759-6.804h-.342l-.793 5.443H0v-80.73zm22.79 74.267c9.071 0 15.761-8.278 15.761-21.882 0-12.134-4.082-20.297-14.514-20.297-4.647 0-9.523 2.608-14.738 7.483v28.913c4.875 4.196 9.863 5.783 13.491 5.783zm67.463-28.46c0-7.028-2.38-13.832-11.339-13.832-6.463 0-12.131 2.948-16.439 5.896l-3.743-6.463c5.104-3.288 12.812-7.143 21.658-7.143 13.491 0 19.162 8.958 19.162 22.674v33.791h-7.711l-.793-6.575h-.227c-5.331 4.308-11.451 7.936-18.255 7.936-9.298 0-16.214-5.784-16.214-15.647 0-12.019 10.431-18.029 33.901-20.637m-15.079 28.8c5.328 0 9.751-2.607 15.079-7.371v-15.306c-18.482 2.268-24.717 6.803-24.717 13.834 0 6.236 4.195 8.843 9.638 8.843m62.132-50.342c7.255 0 12.358 3.06 16.101 6.576l-4.65 6.007c-3.288-2.832-6.688-4.875-11.111-4.875-9.979 0-17.235 8.618-17.235 21.317 0 12.587 6.916 21.09 17.007 21.09 5.218 0 9.639-2.608 12.926-5.556l4.196 6.124c-4.988 4.423-11.339 7.143-17.914 7.143-14.627 0-25.853-10.544-25.853-28.801 0-18.482 12.359-29.025 26.533-29.025m26.984-24.265h9.184v54.65h.34l23.472-29.025h10.319l-18.482 22.109 20.974 32.996h-10.203l-16.102-26.532-10.318 12.018v14.514h-9.184v-80.73m72.453 24.265c14.059 0 21.998 10.091 21.998 25.85 0 1.928-.116 3.743-.34 5.103h-37.192c.68 11.906 7.823 19.39 18.37 19.39 5.215 0 9.635-1.701 13.718-4.308l3.288 6.12c-4.763 3.063-10.658 5.671-18.142 5.671-14.739 0-26.417-10.774-26.417-28.801 0-18.026 12.131-29.025 24.717-29.025m13.831 24.83c0-11.224-4.987-17.462-13.603-17.462-7.711 0-14.742 6.351-15.874 17.462h29.477m39.454-24.83c6.351 0 10.546 2.38 15.422 6.351l-.455-9.414V58.987h9.411v80.731h-7.708l-.796-6.463h-.34c-4.308 4.195-10.203 7.823-16.666 7.823-13.834 0-22.79-10.431-22.79-28.801 0-17.914 11.339-29.025 23.922-29.025m.908 50.003c5.103 0 9.526-2.496 14.059-7.599V96.858c-4.648-4.195-8.844-5.783-13.379-5.783-8.843 0-15.874 8.503-15.874 21.09 0 13.154 5.558 21.09 15.194 21.09m60.432-74.268h9.299v21.997l-.228 9.978c4.991-4.423 11.111-7.71 17.235-7.71 14.286 0 21.882 10.998 21.882 28.005 0 18.822-11.224 29.821-23.81 29.821-5.1 0-10.884-2.496-15.759-6.804h-.34l-.795 5.443h-7.484v-80.73zm22.793 74.267c9.068 0 15.759-8.278 15.759-21.882 0-12.134-4.083-20.297-14.514-20.297-4.648 0-9.524 2.608-14.739 7.483v28.913c4.875 4.196 9.863 5.783 13.494 5.783zm37.865 22.45c6.235 0 10.206-4.988 12.471-11.791l1.248-4.083-22.11-55.218h9.638l11.224 30.5c1.703 4.761 3.628 10.431 5.331 15.535h.452c1.588-4.991 3.176-10.659 4.648-15.535l9.866-30.5h9.071l-20.749 59.638c-3.856 10.886-9.524 19.162-20.635 19.162-2.495 0-4.651-.452-6.463-1.132l1.812-7.368c1.136.337 2.836.792 4.196.792" fill="#FFF"/></g></svg>