<svg width="48" height="48" xmlns="http://www.w3.org/2000/svg" xmlns:xlink="http://www.w3.org/1999/xlink"><defs><path id="a" d="M0 .376h47.343V47.69H0z"/></defs><g fill="none" fill-rule="evenodd"><mask id="b" fill="#fff"><use xlink:href="#a"/></mask><path d="M39.674 25.126c0 3.042-2.1 4.982-4.929 4.982-2.847 0-4.928-1.94-4.928-4.982v-6.938h2.847v6.938c0 1.405.818 2.349 2.081 2.349 1.264 0 2.082-.944 2.082-2.349v-6.938h2.847v6.938zm-16.165 4.981c-3.612.004-6.052-2.555-6.056-6.042-.004-3.487 2.43-6.052 6.362-6.057 1.512-.002 2.812.39 3.737.868l.003 2.67c-.872-.48-2.367-.906-3.613-.905-2.26.003-3.538 1.375-3.536 3.42.002 2.046 1.285 3.415 3.367 3.413.462 0 .907-.073 1.351-.269l-.002-1.69-1.779.002-.003-2.633 4.626-.006.006 5.32c-.941 1.228-2.631 1.907-4.463 1.91zm-7.39-8.646c-.623-.445-1.743-.819-2.793-.819-2.028 0-3.273 1.37-3.273 3.417 0 2.045 1.245 3.416 3.273 3.416 1.05 0 2.17-.374 2.793-.819v2.668c-.605.392-1.637.784-3.006.784-3.612 0-6.014-2.563-6.014-6.05 0-3.487 2.402-6.049 6.014-6.049 1.37 0 2.401.392 3.006.784v2.668zM0 24.048C0 37.121 10.599 47.72 23.672 47.72s23.671-10.6 23.671-23.672S36.745.376 23.672.376C10.599.376 0 10.975 0 24.048z" fill="#00AD20" mask="url(#b)"/></g></svg>