<svg width="155" height="45" xmlns="http://www.w3.org/2000/svg"><path d="M52.635 26.492v-8.654h1.52v8.654h-1.52zm6.808-6.464c1.374 0 2.379.786 2.379 2.622v3.842H60.38v-3.58c0-1.167-.502-1.534-1.282-1.534-.515 0-1.043.144-1.625.512v4.602h-1.441v-6.333h1.44v.524c.595-.432 1.217-.655 1.97-.655zm6.713 2.74c.873.17 1.745.538 1.745 1.783 0 1.298-.992 2.071-2.67 2.071-.965 0-1.679-.235-2.089-.497V24.8c.423.274 1.124.524 2.036.524.767 0 1.229-.223 1.229-.656 0-.603-.846-.603-1.679-.813-.82-.21-1.666-.63-1.666-1.849 0-1.206.952-1.98 2.526-1.98.951 0 1.586.263 1.97.512v1.324c-.398-.275-1.032-.538-1.878-.538-.687 0-1.123.21-1.123.657 0 .55.753.59 1.599.786zm6.952 2.007v-4.616h1.454v6.333h-1.454v-.51c-.555.418-1.137.641-1.837.641-1.295 0-2.247-.774-2.247-2.61V20.16h1.454v3.593c0 1.153.436 1.534 1.15 1.534.476 0 .952-.172 1.48-.511zm4.64-4.616v.603c.727-.458 1.493-.734 2.233-.734v1.442c-.753 0-1.506.17-2.234.577v4.445h-1.44v-6.333h1.44zm3.343 6.333V20.16h1.44v6.332h-1.44zm.714-9.283c.528 0 .925.407.925.918a.91.91 0 0 1-.925.931.908.908 0 0 1-.912-.93c0-.512.396-.919.912-.919zm5.881 2.82c1.375 0 2.38.786 2.38 2.621v3.842h-1.44v-3.58c0-1.166-.503-1.534-1.283-1.534-.516 0-1.044.145-1.626.512v4.602h-1.44v-6.333h1.44v.525c.594-.433 1.216-.656 1.969-.656zm8.618 4.457v-2.465c-.582-.472-1.098-.642-1.653-.642-1.176 0-1.929.746-1.929 1.875 0 1.127.753 1.874 1.93 1.874.554 0 1.07-.17 1.652-.642zm0-3.829v-.497h1.455l-.001 6.083c0 1.626-1.243 2.871-3.516 2.871-1.018 0-1.85-.275-2.326-.577v-1.324c.475.328 1.321.565 2.207.565 1.428 0 2.18-.578 2.18-1.535v-.393c-.555.432-1.176.63-1.89.63-1.824 0-3.199-1.352-3.199-3.226 0-1.888 1.375-3.226 3.2-3.226.713 0 1.334.197 1.89.63zm8.51 3.03h2.724l-1.362-3.33-1.361 3.33zm.993-5.848h.793l3.793 8.653h-1.718l-.622-1.534h-3.767l-.621 1.534H102l3.807-8.653zm12.913 2.19c1.27 0 2.22.786 2.22 2.621v3.842h-1.453v-3.58c0-1.166-.424-1.533-1.124-1.533-.476 0-.965.183-1.52.55.04.223.052.46.052.721v3.842h-1.44v-3.58c0-1.166-.422-1.533-1.124-1.533-.475 0-.937.17-1.467.511v4.602h-1.44v-6.333h1.44v.511c.542-.405 1.124-.642 1.824-.642.78 0 1.428.29 1.824.944.661-.59 1.336-.944 2.208-.944zm6.939 5.257c1.203 0 1.956-.787 1.956-1.954 0-1.18-.753-1.953-1.956-1.953-.556 0-1.058.17-1.64.642v2.623c.582.471 1.084.642 1.64.642zm.237-5.257c1.838 0 3.213 1.376 3.213 3.303 0 1.928-1.375 3.291-3.213 3.291-.687 0-1.321-.183-1.876-.617v.486h-1.441v-9.178h1.44v3.343a2.972 2.972 0 0 1 1.877-.628zm5.194-2.82c.529 0 .925.407.925.918a.91.91 0 0 1-.925.931.908.908 0 0 1-.912-.93c0-.512.397-.919.912-.919zm-.713 9.283V20.16h1.44v6.332h-1.44zm4.85-7.381v1.048h2.036v1.233h-2.036v2.858c0 .735.317 1.036 1.018 1.036.344 0 .687-.08 1.018-.21v1.337a4.39 4.39 0 0 1-1.255.21c-1.349 0-2.235-.747-2.235-2.295v-2.936h-.846v-.695l1.613-1.586h.687zm3.978-1.902c.529 0 .926.407.926.918a.911.911 0 0 1-.926.931.908.908 0 0 1-.912-.93c0-.512.397-.919.912-.919zm-.713 9.283V20.16h1.44v6.332h-1.44zm6.08-1.206c1.15 0 1.903-.787 1.903-1.954 0-1.18-.753-1.953-1.903-1.953s-1.89.773-1.89 1.953c0 1.167.74 1.954 1.89 1.954zm0-5.257c1.996 0 3.384 1.376 3.384 3.303 0 1.928-1.388 3.291-3.384 3.291s-3.384-1.363-3.384-3.291c0-1.927 1.388-3.303 3.384-3.303zm8.049 0c1.375 0 2.379.786 2.379 2.621v3.842h-1.44v-3.58c0-1.166-.503-1.533-1.282-1.533-.516 0-1.045.144-1.627.511v4.602h-1.44v-6.333h1.44v.525c.595-.433 1.217-.656 1.97-.656zm-114.79 3.496V16.93h-2.714v6.595c0 1.336-.78 2.232-1.985 2.232s-1.984-.896-1.984-2.232V16.93h-2.715v6.595c0 2.891 1.985 4.735 4.7 4.735 2.697 0 4.699-1.844 4.699-4.735zm-15.413 4.734c1.746-.002 3.358-.647 4.255-1.814l-.005-5.057-4.411.006.003 2.502 1.696-.002.002 1.607a3.139 3.139 0 0 1-1.289.256c-1.985.002-3.208-1.299-3.21-3.244-.002-1.944 1.217-3.249 3.372-3.251 1.187-.001 2.613.403 3.444.86l-.002-2.538c-.883-.456-2.122-.826-3.564-.825-3.75.005-6.07 2.443-6.066 5.758.004 3.314 2.33 5.746 5.775 5.742zm-7.047-8.218v-2.536c-.577-.372-1.561-.745-2.867-.745-3.444 0-5.735 2.435-5.735 5.75 0 3.314 2.29 5.75 5.735 5.75 1.306 0 2.29-.372 2.867-.745v-2.536c-.594.423-1.663.778-2.664.778-1.934 0-3.121-1.302-3.121-3.247 0-1.945 1.188-3.247 3.121-3.247 1.001 0 2.07.355 2.664.778zM22.573 0c12.466 0 22.573 10.074 22.573 22.5 0 12.427-10.107 22.5-22.573 22.5C10.106 45 0 34.927 0 22.5 0 10.074 10.106 0 22.573 0z" fill="#00AD20" fill-rule="evenodd"/></svg>