<svg width="40" height="40" xmlns="http://www.w3.org/2000/svg"><path d="M33.52 20.91c0 2.571-1.774 4.21-4.164 4.21-2.405 0-4.164-1.639-4.164-4.21v-5.86h2.405v5.862c0 1.187.691 1.984 1.759 1.984 1.067 0 1.759-.797 1.759-1.984V15.05h2.405v5.862zm-13.657 4.21c-3.052.003-5.114-2.16-5.117-5.105-.004-2.947 2.053-5.113 5.375-5.118 1.277-.001 2.375.328 3.157.734l.003 2.254c-.737-.405-2-.764-3.052-.763-1.91.002-2.99 1.161-2.988 2.89.002 1.729 1.085 2.885 2.844 2.883a2.79 2.79 0 0 0 1.142-.227l-.002-1.428-1.503.001-.002-2.224 3.908-.006.005 4.495c-.795 1.038-2.223 1.612-3.77 1.613zm-6.244-7.306c-.526-.375-1.473-.692-2.36-.692-1.713 0-2.766 1.158-2.766 2.887s1.052 2.886 2.766 2.886c.887 0 1.834-.316 2.36-.691v2.254c-.511.332-1.383.662-2.54.662-3.052 0-5.081-2.165-5.081-5.111 0-2.947 2.03-5.111 5.081-5.111 1.157 0 2.029.331 2.54.662v2.254zM20 0C8.954 0 0 8.955 0 20c0 11.046 8.954 20 20 20 11.045 0 20-8.954 20-20C40 8.955 31.045 0 20 0z" fill="#FFF" fill-rule="evenodd"/></svg>