<svg xmlns="http://www.w3.org/2000/svg" width="512" height="640" viewBox="244 -308 512 640"><path d="M690.844-99.125A121.541 121.541 0 0 0 692-116c0-70.563-57.406-128-128-128-40.938 0-78.531 19.344-102.344 51.063A108.881 108.881 0 0 0 436-196c-61.75 0-112 50.25-112 112 0 1.563.031 3.094.094 4.625C277.813-65.625 244-22.687 244 28c0 61.75 50.25 112 112 112h272c70.594 0 128-57.406 128-128 0-46.656-25.656-88.812-65.156-111.125zM628 108H356c-44.188 0-80-35.813-80-80s35.813-80 80-80c2.438 0 4.75.5 7.125.719-4.5-10-7.125-21.031-7.125-32.719 0-44.188 35.813-80 80-80 14.438 0 27.813 4.125 39.5 10.813C490-187.75 524.156-212 564-212c53.031 0 96 42.969 96 96 0 12.625-2.594 24.625-7.031 35.688C693.813-69.25 724-32.312 724 12c0 53.031-42.969 96-96 96z"/><path d="M524-84H396v32h128v32l80-48-80-48zm-48 64l-80 48 80 48V44h128V12H476z"/></svg>