<svg xmlns="http://www.w3.org/2000/svg" width="24" height="24" viewBox="-987 989 24 24"><path d="M-965.808 996.05c-1.131-1.131-2.687-1.697-4.172-1.768.424.707.707 1.414.849 2.121.707.141 1.344.495 1.909 1.061a4.011 4.011 0 0 1 0 5.657l-3.536 3.536a4.011 4.011 0 0 1-5.657 0 4.011 4.011 0 0 1 0-5.657l2.475-2.475c.071-.778-.141-1.556-.707-2.121l-3.182 3.182c-2.333 2.333-2.333 6.152 0 8.485 2.333 2.333 6.152 2.333 8.485 0l3.536-3.536c2.334-2.333 2.334-6.151 0-8.485z"/><path d="M-984.192 1005.95c1.131 1.131 2.687 1.697 4.172 1.768-.424-.707-.707-1.414-.849-2.121-.707-.141-1.344-.495-1.909-1.061a4.011 4.011 0 0 1 0-5.657l3.536-3.536a4.011 4.011 0 0 1 5.657 0 4.011 4.011 0 0 1 0 5.657l-2.475 2.475c-.071.778.141 1.556.707 2.121l3.182-3.182c2.333-2.333 2.333-6.152 0-8.485-2.333-2.333-6.152-2.333-8.485 0l-3.536 3.536c-2.334 2.333-2.334 6.151 0 8.485z"/></svg>