<svg width="60" height="60" xmlns="http://www.w3.org/2000/svg"><path d="M50.28 31.366c0 3.856-2.661 6.314-6.246 6.314-3.608 0-6.246-2.458-6.246-6.314v-8.793h3.608v8.793c0 1.781 1.037 2.977 2.638 2.977 1.6 0 2.638-1.196 2.638-2.977v-8.793h3.607v8.793zM29.793 37.68c-4.578.005-7.67-3.238-7.675-7.657-.006-4.42 3.08-7.67 8.062-7.676 1.917-.002 3.563.492 4.737 1.1l.003 3.382c-1.104-.608-3-1.147-4.578-1.146-2.864.004-4.485 1.743-4.481 4.336.002 2.593 1.627 4.327 4.266 4.324a4.16 4.16 0 0 0 1.712-.34l-.002-2.143-2.254.003-.004-3.337 5.862-.008.008 6.742c-1.193 1.557-3.335 2.417-5.656 2.42zM20.429 26.72c-.79-.563-2.21-1.037-3.54-1.037-2.57 0-4.15 1.736-4.15 4.33 0 2.592 1.579 4.33 4.15 4.33 1.33 0 2.75-.475 3.54-1.039v3.382c-.767.497-2.076.993-3.81.993-4.578 0-7.622-3.248-7.622-7.667 0-4.42 3.044-7.666 7.622-7.666 1.734 0 3.043.496 3.81.993v3.381zM30 0C13.431 0 0 13.432 0 30c0 16.569 13.431 30 30 30 16.568 0 30-13.431 30-30C60 13.432 46.568 0 30 0z" fill="#FFF" fill-rule="evenodd"/></svg>