<svg width="40" height="40" xmlns="http://www.w3.org/2000/svg"><g fill="none" fill-rule="evenodd"><path d="M20 0c11.045 0 20 8.955 20 20 0 11.046-8.955 20-20 20C8.954 40 0 31.046 0 20 0 8.955 8.954 0 20 0z" fill="#00AD20"/><path d="M27.597 15.049v5.862c0 1.187.691 1.984 1.759 1.984 1.028 0 1.707-.739 1.756-1.854l.003-.13v-5.862h2.405v5.862c0 2.57-1.774 4.209-4.164 4.209-2.352 0-4.086-1.567-4.162-4.04l-.002-.17V15.05h2.405zm-16.518-.151c1.157 0 2.029.331 2.54.662v2.254c-.526-.375-1.473-.692-2.36-.692-1.713 0-2.766 1.158-2.766 2.887s1.052 2.886 2.766 2.886c.887 0 1.834-.316 2.36-.691v2.254c-.511.332-1.383.662-2.54.662-3.052 0-5.081-2.165-5.081-5.111 0-2.947 2.03-5.111 5.081-5.111zm9.042 0a6.995 6.995 0 0 1 2.997.653l.16.08.003 2.254c-.737-.405-2-.764-3.052-.763-1.91.002-2.99 1.161-2.988 2.89.002 1.729 1.085 2.885 2.844 2.883.335-.001.66-.046.981-.163l.16-.064V21.24l-1.504.001-.002-2.224 3.908-.006.005 4.495c-.795 1.038-2.223 1.612-3.77 1.613-3.052.004-5.114-2.158-5.117-5.104-.004-2.947 2.053-5.113 5.375-5.118z" fill="#FFF"/></g></svg>