<svg xmlns="http://www.w3.org/2000/svg" width="514" height="161" viewBox="0 0 514 161"><path fill="#FFF" d="M81.25 96.725c-3.656.912-7.616 1.827-14.014 1.827-12.643 0-27.267-6.093-27.267-23.309 0-15.839 11.579-23.761 27.113-23.761 4.875 0 9.444 1.066 14.014 2.285l-1.066 9.901c-4.11-2.134-8.073-3.198-12.338-3.198-8.987 0-14.775 6.244-14.775 14.772 0 8.988 6.549 14.32 15.842 14.32 4.113 0 8.377-1.067 11.881-2.285l.61 9.448m49.505-.155c-8.076 1.982-14.014 2.134-18.278 2.134-12.646 0-27.267-6.095-27.267-23.306 0-17.061 12.491-23.764 30.008-23.764 3.046 0 9.746.305 14.316 1.983l-1.063 9.9c-3.962-2.285-8.532-2.895-11.578-2.895-10.207 0-18.736 4.112-18.736 14.775 0 8.985 6.549 14.316 15.842 14.316 1.675 0 3.348-.302 4.415-.761v-8.986h-7.461v-8.53h19.648V96.57m51.183-15.994c0 12.492-8.683 17.979-21.325 17.979-12.646 0-21.325-5.638-21.325-17.979v-28.18h12.947v26.2c0 5.942 1.675 11.12 8.378 11.12 6.699 0 8.377-5.026 8.377-11.12v-26.2h12.948v28.18"/><path fill="#FFF" d="M197.015 106.318c0 7.008-1.522 13.559-4.874 19.498-16.604 29.855-71.135 32.293-120.489 4.724-49.2-27.572-74.028-74.792-57.425-104.496C30.679-3.81 83.687-3.963 132.735 21.932c2.285 1.221 2.285 1.221.152-.151C81.858-8.533 25.042-7.01 6.153 25.131c-18.887 32.14 7.16 82.864 58.188 113.176 51.028 30.312 107.844 28.791 126.734-3.352 5.026-8.528 6.854-18.277 5.94-28.637"/></svg>