<svg xmlns="http://www.w3.org/2000/svg" width="416.368" height="101.667" viewBox="0 0 416.368 101.667"><path d="M233.047 75.104l17.223.01.035-28.57 23.596.018.006-13.93-23.586-.029.031-14.425 23.586.024.002-13.936-40.805-.039-.088 70.877zm-215.456-.192h17.204l.052-56.935 16.265.018V3.923l-49.841.109V17.93l16.366.037-.046 56.945zm298.011.289l.031-13.96h-23.412l.021-14.658 23.404.006.006-13.916h-23.361V18.208l23.389.037V4.212l-40.602.054.049 70.878 40.475.057zm49.644-70.875v13.95l16.387.029-.051 57.044 17.324-.082-.064-56.949 16.256.021V4.301l-49.852.025zm-49.264 20.821c-.027 10.807 6.053 17.303 21.549 22.852 8.285 2.987 10.201 4.451 10.201 7.773 0 3.197-3.197 5.615-7.363 5.615-4.555 0-8.393-2.973-8.393-6.492l.121-1.158-16.881-.02c-.039 14.019 9.627 22.843 25.152 22.871 15.195.027 25.408-8.814 25.43-21.947 0-5.784-2.025-10.663-5.967-14.277-3.172-2.855-6.902-4.898-15.055-7.969-5.219-2.02-6.602-2.557-7.879-3.297-2.438-1.404-3.512-3.102-3.512-5.332 0-3.385 2.797-5.65 7.031-5.611 4.883 0 7.348 2.249 7.859 7.109l17.547.026c-2.018-14.356-10.92-22.328-25.277-22.341-14.768.001-24.535 8.901-24.563 22.198M198.253 52.026l8.152.004c15.462 0 25.335-9.642 25.374-24.516 0-14.764-9.533-23.287-26.357-23.302l-24.348-.056-.069 70.904 17.217.02.031-23.054zm.025-33.686h5.966c6.063.006 10.069 3.947 10.069 9.783 0 6.141-4.154 9.754-11.252 9.754h-4.782V18.34zM142.745 2.77c-9.881-.014-18.821 3.164-25.511 9.009-8.174 7.199-12.871 17.319-12.904 28.047 0 20.382 16.781 36.567 37.928 36.567 20.474.041 37.082-16.324 37.086-36.619.022-21.164-15.674-36.986-36.599-37.004m-.793 57.666c-11.266 0-20.073-9.126-20.073-20.832 0-12.004 8.609-20.906 20.218-20.891 11.365 0 19.843 9.147 19.843 21.254-.006 11.378-8.939 20.506-19.988 20.469M103.9 27.272c0-6.677-2.002-12.349-5.818-16.285-4.547-4.641-12.004-6.906-22.617-6.918l-22.972-.016-.033 70.883 17.206.031.01-27.43 15.469 27.44h20.633L90.189 48.923c9.126-3.565 13.711-10.835 13.711-21.651M75.225 37.858h-5.548l.023-19.65h6.615c6.14.037 10.169 3.932 10.169 9.896-.001 6.16-4.16 9.773-11.259 9.754m124.238 49.675h-1.011v11.863h5.292v-1.012h-4.281V87.533zm-9.974 5.463c-1.382-.477-1.796-.656-2.168-.967-.42-.332-.655-.891-.655-1.506 0-1.334.977-2.291 2.316-2.291.874 0 1.611.367 1.989.973.229.379.303.691.316 1.387h.98c0-1.992-1.284-3.27-3.263-3.27-1.986 0-3.35 1.328-3.35 3.248 0 .896.317 1.656.901 2.191.504.461.875.641 2.32 1.121 2 .639 2.647 1.221 2.647 2.393 0 1.441-1.065 2.424-2.647 2.424-.912 0-1.637-.373-1.995-.982-.215-.369-.303-.701-.34-1.342h-.94v.285c0 .666.247 1.361.714 1.893.586.711 1.44 1.061 2.646 1.061 2.08 0 3.541-1.377 3.541-3.338 0-.754-.269-1.494-.73-2.021-.465-.517-1.035-.814-2.282-1.259m28.417 1.295c.834 0 1.459-.088 1.936-.262 1.303-.508 2.102-1.689 2.102-3.148 0-2.047-1.482-3.352-3.787-3.352l-3.047.004v11.863h1.021v-5.123l5.289 5.123h1.389l-5.307-5.123c.178.018.336.018.404.018m-1.775-5.852l1.955-.006c1.867 0 2.832.844 2.832 2.494 0 1.674-1.088 2.566-3.08 2.566h-1.707v-5.054zm-96.305 10.95h5.953v-.904h-4.947v-4.643h4.947v-.904h-4.947V88.44h4.947v-.906h-5.953v11.855zm88.838-11.856l-4.67 11.863h1.014l1.268-3.121h5.732l1.152 3.121h1.117l-4.512-11.863h-1.101zm-2.011 7.824l2.527-6.469 2.475 6.469h-5.002zm-62.193-7.824l-3.112 9.904-2.894-9.904h-.891l-2.973 9.904-3.129-9.904h-1.056l3.817 11.863h.741l3.003-10.119 3.022 10.119h.736l3.761-11.863h-1.025zm23.542 0h-1.02v11.863h5.297v-1.012h-4.277V87.533zm8.514 0h-3.044v11.863h2.56c3.776 0 5.993-2.301 5.993-6.174-.001-3.482-2.136-5.689-5.509-5.689m2.741 10.024c-.933.736-1.842.928-4.216.928h-.553V88.439h1.977c2.93 0 4.535 1.684 4.535 4.783 0 2.014-.578 3.452-1.743 4.335m-62.759-4.512h-6.44v-5.512h-1.017v11.855h1.017V93.95h6.44v5.438h1.014V87.533h-1.014v5.512zm44.424 1.246c.832 0 1.459-.088 1.942-.262 1.289-.508 2.095-1.689 2.095-3.148 0-2.047-1.476-3.348-3.788-3.348h-3.044v11.863h1.018v-5.123l5.297 5.123h1.392l-5.325-5.123c.187.018.344.018.413.018m-1.777-5.852h1.949c1.866 0 2.83.838 2.83 2.488 0 1.674-1.088 2.566-3.071 2.566h-1.708v-5.054zm23.451 2.528l.695.303 1.743-3.572-.772-.393-1.666 3.662zm-31.645-3.645c-1.38 0-2.742.531-3.789 1.496-1.267 1.152-1.908 2.734-1.908 4.703 0 1.41.357 2.709 1.019 3.623 1.033 1.525 2.845 2.469 4.638 2.469 1.243 0 2.472-.447 3.525-1.266 1.384-1.068 2.133-2.742 2.133-4.734 0-1.701-.391-3.021-1.191-4.049-1.087-1.394-2.754-2.242-4.427-2.242m3.461 9.694c-.845 1.043-2.167 1.66-3.519 1.66-2.684 0-4.604-2.186-4.604-5.223 0-3.006 1.97-5.203 4.641-5.203 1.067 0 2.206.459 3.042 1.223 1.063.975 1.558 2.258 1.558 4.068-.001 1.264-.44 2.652-1.118 3.475m-53.556-8.577h3.101v10.949h1.016V88.439h3.11v-.906h-7.228v.906zm176.021 4.606h-6.436v-5.516h-1.01v11.867h1.01v-5.445h6.436v5.445h1.02V87.529h-1.02v5.516zm87.984-.049c-1.377-.477-1.791-.656-2.164-.967-.424-.332-.652-.891-.652-1.506 0-1.334.977-2.291 2.307-2.291.877 0 1.619.367 1.998.973.225.379.299.691.309 1.387h.979c0-1.992-1.27-3.27-3.262-3.27-1.98 0-3.346 1.328-3.346 3.248 0 .896.32 1.656.914 2.191.494.463.867.637 2.303 1.121 2.012.639 2.652 1.221 2.652 2.393 0 1.441-1.068 2.424-2.652 2.424-.91 0-1.639-.373-1.988-.982-.213-.369-.303-.701-.336-1.342h-.945v.285c0 .666.246 1.361.707 1.893.59.711 1.449 1.061 2.648 1.061 2.08 0 3.545-1.375 3.545-3.338 0-.754-.26-1.494-.729-2.021-.469-.517-1.036-.819-2.288-1.259m-10.627 6.4h5.961v-.912h-4.943v-4.643h4.943v-.904h-4.943v-4.504h4.943v-.904h-5.961v11.867zm-125.726-5.388h4.531c-.033 1.172-.234 1.873-.764 2.652-.82 1.199-2.359 2.016-3.803 2.016-2.598 0-4.596-2.246-4.596-5.207 0-2.967 2.033-5.219 4.686-5.219.9 0 1.791.277 2.5.814.316.213.537.445 1.025.979l.756-.621c-1.107-1.389-2.547-2.1-4.248-2.1-3.381 0-5.75 2.541-5.75 6.188 0 3.541 2.404 6.104 5.717 6.104 3.195 0 5.447-2.41 5.447-5.783v-.725h-5.502v.902zm118.605 5.388h1.014v-5.555h4.861v-.904h-4.861v-4.504h4.861v-.904h-5.875v11.867zm-12.451-2.084l-4.836-9.783h-.814v11.867h1.014v-9.371l4.637 9.371 4.676-9.354v9.354h1.004V87.529h-.797l-4.884 9.783zm33.272-8.878h3.111v10.963h1.006V88.434h3.113v-.904h-7.23v.904zm8.195 10.962h1.012V87.529h-1.012v11.867zm14.406-11.867l-4.646 11.867h1.004l1.27-3.121h5.729l1.148 3.121h1.121l-4.516-11.867h-1.11zm-2.004 7.828l2.527-6.469 2.467 6.469h-4.994zm9.477-7.828h-1.01v11.867h5.297v-1.012h-4.287V87.529zm-11.727 0l-3.65 10.188-3.576-10.188h-1.08l4.221 11.867h.861l4.307-11.867h-1.083zm-62.742 0h-1.02v11.867h5.301v-1.012h-4.281V87.529zm-58.621 5.467c-1.381-.477-1.795-.656-2.176-.967-.424-.332-.652-.891-.652-1.506 0-1.334.982-2.291 2.309-2.291.871 0 1.617.367 1.992.973.238.379.297.691.32 1.387h.979c0-1.992-1.277-3.27-3.271-3.27-1.975 0-3.34 1.328-3.34 3.248 0 .896.316 1.656.906 2.191.498.461.869.637 2.309 1.121 2.012.639 2.652 1.221 2.652 2.393 0 1.441-1.074 2.424-2.652 2.424-.9 0-1.633-.373-1.984-.982-.219-.369-.301-.701-.336-1.342h-.943v.285c0 .666.242 1.361.703 1.893.586.711 1.443 1.061 2.648 1.061 2.08 0 3.543-1.375 3.543-3.338 0-.754-.262-1.494-.736-2.021-.464-.517-1.027-.814-2.271-1.259m54.275 6.4h1.02V87.529h-1.02v11.867zm-72.998-6.4c-1.387-.477-1.801-.656-2.172-.967-.428-.332-.66-.891-.66-1.506 0-1.334.98-2.291 2.312-2.291.865 0 1.619.367 1.992.973.234.379.303.691.324 1.387h.977c0-1.992-1.279-3.27-3.264-3.27s-3.354 1.328-3.354 3.248c0 .896.316 1.656.9 2.191.51.461.875.637 2.322 1.121 2.01.639 2.643 1.221 2.643 2.393 0 1.441-1.059 2.424-2.643 2.424-.902 0-1.639-.373-1.992-.982-.219-.369-.303-.701-.342-1.342h-.947v.285c0 .666.256 1.361.719 1.893.584.711 1.434 1.061 2.652 1.061 2.078 0 3.537-1.375 3.537-3.338 0-.754-.268-1.494-.73-2.021-.465-.517-1.03-.814-2.274-1.259m-10.629 6.4h5.949v-.912h-4.936v-4.643h4.936v-.904h-4.936v-4.504h4.936v-.904h-5.949v11.867zm49.561-12.074a5.616 5.616 0 0 0-3.781 1.496c-1.262 1.152-1.908 2.734-1.908 4.703 0 1.41.359 2.709 1.018 3.623 1.035 1.525 2.854 2.469 4.635 2.469 1.25 0 2.48-.447 3.521-1.266 1.4-1.068 2.137-2.742 2.137-4.734 0-1.701-.385-3.021-1.191-4.053-1.085-1.39-2.749-2.238-4.431-2.238m3.471 9.694a4.573 4.573 0 0 1-3.514 1.66c-2.691 0-4.605-2.186-4.605-5.223 0-3 1.977-5.203 4.635-5.203 1.066 0 2.207.459 3.037 1.229 1.068.975 1.564 2.25 1.564 4.062 0 1.264-.444 2.652-1.117 3.475m-39.34-8.582h3.105v10.963h1.021V88.434h3.111v-.904h-7.238v.904zm62.804 10.962h1.02v-5.555h4.871v-.904h-4.871v-4.504h4.871v-.904h-5.891v11.867zm-12.636-10.962h3.111v10.963h1.016V88.434h3.111v-.904h-7.238v.904zm-4.319 5.857c.834 0 1.453-.088 1.941-.262 1.295-.508 2.096-1.689 2.096-3.156 0-2.039-1.477-3.344-3.783-3.344h-3.045v11.867h1.014v-5.123l5.297 5.123h1.385l-5.311-5.123c.17.018.33.018.406.018m-1.777-5.857h1.949c1.863 0 2.828.844 2.828 2.494 0 1.674-1.078 2.566-3.076 2.566h-1.701v-5.06zM81.657 99.439h2.447V87.541h-2.447v11.898zm-5.155-11.906h-2.443v11.906h6.422v-2.016h-3.979v-9.89zm-10.563 7.856l1.659-4.922 1.647 4.922h-3.306zm.182-7.856l-4.106 11.906h2.589l.713-2.051h4.564l.676 2.051h2.678l-4.07-11.906h-3.044zm22.722 7.856l1.663-4.922 1.637 4.922h-3.3zm.179-7.856L84.92 99.439h2.584l.711-2.051h4.569l.677 2.051h2.677l-4.062-11.906h-3.054zm-48.5 4.895c-.874-.318-1.072-.416-1.392-.596-.487-.266-.726-.633-.726-1.115 0-.746.577-1.248 1.455-1.248.964 0 1.47.479 1.554 1.471h2.462c-.193-2.275-1.696-3.637-4.017-3.637-2.337 0-3.923 1.461-3.923 3.607 0 1.818.931 2.797 3.53 3.727.949.332 1.142.434 1.445.656a1.2 1.2 0 0 1 .485.951c0 .715-.677 1.266-1.574 1.266-.922 0-1.618-.586-1.618-1.396v-.16h-2.376c-.014 2.291 1.52 3.713 4.02 3.713 2.456 0 4.097-1.445 4.097-3.619 0-.91-.32-1.713-.942-2.297-.52-.515-1.18-.839-2.48-1.323m-22.924 2.961l1.664-4.922 1.64 4.922h-3.304zm.181-7.856l-4.1 11.906h2.582l.72-2.051h4.562l.675 2.051h2.677l-4.064-11.906h-3.052zm14.454 6.973c0 1.1-.118 1.607-.466 2.098-.359.49-1.035.82-1.732.82-.66 0-1.306-.289-1.66-.74-.39-.459-.537-1.064-.537-2.172v-6.979h-2.44v6.893c0 1.838.298 2.904 1.071 3.76.833.949 2.155 1.48 3.601 1.48 1.392 0 2.644-.492 3.442-1.387.802-.891 1.176-2.105 1.176-3.854v-6.893h-2.455v6.974zm24.575-1.229h-1.109v-3.725h1.326c1.216 0 1.96.717 1.96 1.859-.001 1.189-.793 1.866-2.177 1.866m4.651-1.994c0-2.443-1.588-3.75-4.528-3.75h-3.669v11.906h2.437V94.71l3.27 4.729h2.956l-3.278-4.562c1.835-.475 2.812-1.723 2.812-3.594m-17.176-1.752h2.833v9.908h2.448v-9.908h2.82v-1.998h-8.102v1.998z" fill="#FFF"/></svg>