<svg width="614" height="614" viewBox="0 0 614 614" xmlns="http://www.w3.org/2000/svg"><title>Shape</title><path d="M474.73 256.24c-27.222 0-49.33 22.11-49.33 49.33s22.108 49.33 49.33 49.33c27.218 0 49.328-22.11 49.328-49.33 0-27.115-22.11-49.33-49.33-49.33h.002zm0 66.434c-9.387 0-17-7.613-17-17 0-9.386 7.613-17 17-17s16.998 7.614 16.998 17c.104 9.283-7.614 17-17 17h.002zm-205.454-66.642c-23.152 0-42.654 15.957-48.077 37.44v.834h96.468c-5.213-21.9-24.82-38.274-48.392-38.274h.001zM306.51 0C137.245 0 0 137.246 0 306.508c0 169.262 137.246 306.51 306.51 306.51 169.264 0 306.508-137.248 306.508-306.51C613.12 137.246 475.874 0 306.508 0h.002zM192.415 373.984c-2.504 0-4.902-1.043-6.78-2.92L133.39 318.92l-52.46 52.352a9.314 9.314 0 0 1-6.57 2.71 9.346 9.346 0 0 1-9.386-9.386c0-2.5 1.043-4.9 2.816-6.673l52.25-52.354-52.355-52.25c-1.772-1.772-2.815-4.17-2.815-6.674a9.346 9.346 0 0 1 9.386-9.387c2.502 0 4.797.937 6.57 2.71l52.458 52.355 52.25-52.25c1.772-1.772 4.17-2.816 6.674-2.816a9.346 9.346 0 0 1 9.386 9.386c0 2.502-.94 4.796-2.712 6.57l-52.354 52.458 52.25 52.458c1.773 1.773 2.71 4.068 2.71 6.57.21 5.11-3.963 9.282-9.072 9.282l-.001.003zm125.772-60.905h-97.824c0 .416.105.937.105 1.458.52 2.712 1.145 5.32 2.084 7.823 5.215 13.56 19.815 32.642 47.036 32.956 8.343 0 16.165-2.19 23.048-5.84 5.423-3.023 9.907-6.883 13.558-10.95 1.25-1.46 2.294-2.92 3.336-4.276 4.59-5.84 10.43-4.797 13.87-2.085 4.068 3.128 4.798 9.698 1.045 14.392-.105.104-.21.208-.313.417-5.423 6.78-10.95 12.41-17.625 16.686-6.363 4.068-13.35 6.988-20.547 8.763-8.343 2.188-16.477 2.605-24.715 1.666-27.95-3.442-51.416-24.092-58.3-51.31-1.354-5.528-2.084-11.056-2.084-16.584 0-22.004 10.637-43.384 28.992-56.42 22.527-15.957 53.292-16.79 76.55-1.98 15.956 10.114 26.386 25.76 30.453 44.948 1.98 10.636-5.217 20.022-18.672 20.335l.003.001zm78.948-56.318c-20.336 2.503-22.526 12.098-22.526 35.876v71.126a9.346 9.346 0 0 1-9.386 9.386c-5.11 0-9.386-4.172-9.386-9.386V248.002c0-5.214 4.172-9.282 9.28-9.282 4.486 0 8.24 3.13 9.18 7.405 6.987-5.422 15.33-8.134 23.986-8.134h2.92a9.346 9.346 0 0 1 9.385 9.387c0 5.215-3.963 8.97-9.49 9.177-.105 0-2.087 0-3.964.208l.001-.002zm77.593 117.535c-37.857 0-68.73-30.87-68.73-68.727s30.872-68.727 68.73-68.727c37.856 0 68.726 30.87 68.726 68.727 0 37.96-30.767 68.727-68.727 68.727h.001z" fill="#FFF" fill-rule="evenodd"/></svg>