<svg width="1209" height="588" viewBox="0 0 1209 588" xmlns="http://www.w3.org/2000/svg"><title>Untitled</title><g fill="none" fill-rule="evenodd"><path d="M914.172 587.737c162.332 0 293.926-131.607 293.926-293.926 0-162.338-131.594-293.94-293.926-293.94-162.33 0-293.938 131.602-293.938 293.94 0 162.32 131.608 293.926 293.938 293.926" fill="#000"/><path d="M293.557 587.737c162.332 0 293.926-131.598 293.926-293.926C587.483 131.48 455.89-.122 293.557-.122S-.382 131.48-.382 293.811c0 162.328 131.607 293.926 293.94 293.926" fill="#00B7E3"/><path d="M140.337 292.964l50.153-50.283a9 9 0 0 0 2.593-6.334c0-4.96-4.03-8.97-8.983-8.97a8.906 8.906 0 0 0-6.405 2.67L127.58 280.13l-50.333-50.166c-1.706-1.681-3.953-2.586-6.352-2.586-4.94 0-8.97 4.01-8.97 8.969 0 2.42.95 4.685 2.682 6.4l50.153 50.139-50.114 50.23c-1.772 1.733-2.722 4.006-2.722 6.43 0 4.967 4.03 8.973 8.971 8.973a8.945 8.945 0 0 0 6.352-2.62l50.27-50.18 50.063 50c1.784 1.849 4.068 2.825 6.52 2.825 4.953 0 8.983-4.031 8.983-8.998 0-2.4-.937-4.633-2.619-6.326l-50.127-50.256zm298.188-.014c0 8.996 7.326 16.324 16.35 16.324 8.997 0 16.31-7.328 16.31-16.324 0-9.01-7.313-16.332-16.31-16.332-9.024 0-16.35 7.322-16.35 16.332" fill="#FFF"/><path d="M388.948 292.95c0 36.346 29.569 65.887 65.914 65.887 36.344 0 65.912-29.54 65.912-65.887 0-36.344-29.568-65.914-65.912-65.914-36.345 0-65.914 29.57-65.914 65.914m18.598 0c0-26.078 21.226-47.298 47.316-47.298 26.053 0 47.279 21.22 47.279 47.298 0 26.078-21.226 47.291-47.28 47.291-26.09 0-47.315-21.213-47.315-47.29m-23.27-64.784h-2.771c-8.303 0-16.311 2.618-22.998 7.775-.872-4.047-4.492-7.07-8.764-7.07a8.918 8.918 0 0 0-8.934 8.9l.039 111.005c.014 4.94 4.057 8.959 8.984 8.959 4.94 0 8.983-4.019 8.997-8.974v-68.248c0-22.745 2.078-31.937 21.574-34.375 1.795-.218 3.759-.185 3.759-.185 5.339-.18 9.125-3.845 9.125-8.805 0-4.953-4.056-8.982-9.011-8.982M322.6 280.4c-3.877-18.334-13.913-33.4-29.197-43.065-22.343-14.193-51.848-13.404-73.434 1.951-17.607 12.52-27.77 33.014-27.77 54.113a64.74 64.74 0 0 0 1.962 15.902c6.648 26.141 29.132 45.944 55.93 49.217 7.968.961 15.708.512 23.728-1.58 6.88-1.682 13.552-4.467 19.686-8.393 6.38-4.107 11.705-9.509 16.865-15.978.101-.115.205-.219.306-.359 3.581-4.428 2.928-10.754-1.014-13.758-3.324-2.54-8.906-3.58-13.269 2.04a63.163 63.163 0 0 1-3.156 4.108c-3.479 3.85-7.817 7.584-12.989 10.471a46.988 46.988 0 0 1-22.099 5.57c-26.142-.28-40.117-18.519-45.11-31.545a49.473 49.473 0 0 1-1.99-7.558c-.076-.487-.1-.963-.128-1.385l93.802-.014c12.871-.269 19.802-9.355 17.877-19.738zm-110.896 1.692c0-.23.014-.5.027-.755 5.21-20.612 23.895-35.884 46.136-35.884 22.536 0 41.388 15.637 46.341 36.64h-92.504zm529.353-7.506c-3.397 9.287-6.568 18.573-9.513 28.199h19.139a458.159 458.159 0 0 0-9.626-28.2m23.782 60.25c-3.284 0-6.455-1.812-7.473-6.115-.907-4.077-1.926-8.155-2.946-12.118h-26.613c-1.02 3.963-2.04 8.04-2.945 12.118-1.02 4.19-4.076 6.115-7.248 6.115-4.416 0-8.947-3.624-7.587-9.513 5.435-23.782 12.57-45.64 21.177-67.044 2.832-6.796 6.569-8.154 10.08-8.154 3.397 0 7.474 1.358 10.192 8.154 8.72 21.404 15.742 43.262 21.178 67.044 1.246 5.889-3.284 9.513-7.815 9.513m60.691-52.661c0-9.626-2.944-15.97-14.723-15.97h-12.57v53.002h12.57c11.78 0 14.723-6.342 14.723-15.968v-21.064zm-13.59 51.642h-21.518c-4.303 0-7.7-3.51-7.7-7.815V259.07c0-4.303 3.397-7.813 7.7-7.813h21.517c25.143 0 29.106 18.232 29.106 30.69v21.29c0 12.573-3.963 30.579-29.106 30.579zm85.165-51.642c0-9.626-2.945-15.97-14.724-15.97h-12.57v53.002h12.57c11.78 0 14.724-6.342 14.724-15.968v-21.064zm-13.591 51.642h-21.518c-4.303 0-7.7-3.51-7.7-7.815V259.07c0-4.303 3.397-7.813 7.7-7.813h21.518c25.143 0 29.106 18.232 29.106 30.69v21.29c0 12.573-3.963 30.579-29.106 30.579zm77.826-26.274h-30.01c-3.85 0-7.021-3.172-7.021-6.908 0-3.852 3.17-7.022 7.02-7.022h30.013c3.85 0 7.02 3.17 7.02 7.022 0 3.736-3.17 6.908-7.02 6.908m62.014-26.727c0-9.514-3.058-16.421-13.93-16.421-10.873 0-13.93 6.794-13.93 16.42v23.442c0 9.742 3.058 16.537 13.93 16.537 10.871 0 13.93-6.91 13.93-16.536v-23.442zm-13.93 54.134c-22.085 0-29.446-15.177-29.446-30.692v-23.442c0-15.515 7.361-30.578 29.446-30.578 21.97 0 29.558 15.063 29.558 30.578v23.442c0 15.515-7.587 30.692-29.558 30.692zm93.714-.114c-3.397 0-5.89-1.133-7.587-3.85l-29.105-48.358V327.7a7.106 7.106 0 0 1-7.135 7.135 7.105 7.105 0 0 1-7.135-7.135v-70.215c0-3.964 2.83-7.248 7.587-7.248 3.398 0 5.89 1.359 7.588 4.077l28.992 48.245v-45.074c0-3.964 3.17-7.248 7.135-7.248 3.964 0 7.248 3.284 7.248 7.248V327.7c0 3.964-3.058 7.135-7.587 7.135" fill="#FFF"/></g></svg>